<svg width="32" height="32" viewBox="0 0 32 32" fill="none" xmlns="http://www.w3.org/2000/svg">
<path d="M15.9996 3.77539C9.26035 3.77539 3.77734 9.25839 3.77734 15.9976C3.77734 22.7368 9.26035 28.2198 15.9996 28.2198C19.2645 28.2198 22.3335 26.9487 24.6421 24.6401C24.841 24.4412 24.841 24.1189 24.6421 23.92C24.4431 23.7211 24.1208 23.7211 23.922 23.92C21.8058 26.0361 18.9925 27.2013 15.9996 27.2013C9.82181 27.2013 4.79585 22.1754 4.79585 15.9976C4.79585 9.81985 9.82181 4.79389 15.9996 4.79389C22.1773 4.79389 27.2033 9.81985 27.2033 15.9976V17.0161C27.2033 18.7011 25.8327 20.0717 24.1477 20.0717C22.4628 20.0717 21.0922 18.7011 21.0922 17.0161V12.4328C21.0922 12.3659 21.0791 12.2996 21.0535 12.2378C21.0279 12.176 20.9904 12.1199 20.9431 12.0726C20.8958 12.0253 20.8396 11.9878 20.7778 11.9622C20.716 11.9366 20.6498 11.9235 20.5829 11.9235C20.516 11.9235 20.4498 11.9366 20.388 11.9622C20.3261 11.9878 20.27 12.0253 20.2227 12.0726C20.1754 12.1199 20.1379 12.176 20.1123 12.2378C20.0867 12.2996 20.0736 12.3659 20.0736 12.4328V12.9736C19.1445 11.7257 17.6712 10.905 15.9996 10.905C13.1917 10.905 10.907 13.1897 10.907 15.9976C10.907 18.8055 13.1917 21.0902 15.9996 21.0902C17.8725 21.0902 19.4946 20.0623 20.3792 18.5521C20.9873 20.0384 22.4451 21.0902 24.1477 21.0902C26.3941 21.0902 28.2217 19.2626 28.2217 17.0162V15.9976C28.2218 9.25839 22.7388 3.77539 15.9996 3.77539ZM15.9996 20.0717C13.7532 20.0717 11.9255 18.244 11.9255 15.9976C11.9255 13.7512 13.7532 11.9236 15.9996 11.9236C18.246 11.9236 20.0736 13.7512 20.0736 15.9976C20.0736 18.244 18.246 20.0717 15.9996 20.0717Z" fill="currentColor"/>
</svg>
