<svg width="16" height="16" viewBox="0 0 16 16" fill="none" xmlns="http://www.w3.org/2000/svg">
<path d="M1.33203 4.66699L6.77531 8.47729C7.21609 8.78583 7.43648 8.94011 7.67621 8.99986C7.88796 9.05265 8.10943 9.05265 8.32119 8.99986C8.56091 8.94011 8.7813 8.78583 9.22208 8.47729L14.6654 4.66699M4.53203 13.3337H11.4654C12.5855 13.3337 13.1455 13.3337 13.5733 13.1157C13.9497 12.9239 14.2556 12.618 14.4474 12.2416C14.6654 11.8138 14.6654 11.2538 14.6654 10.1337V5.86699C14.6654 4.74689 14.6654 4.18683 14.4474 3.75901C14.2556 3.38269 13.9497 3.07673 13.5733 2.88498C13.1455 2.66699 12.5855 2.66699 11.4654 2.66699H4.53203C3.41193 2.66699 2.85187 2.66699 2.42405 2.88498C2.04773 3.07673 1.74176 3.38269 1.55002 3.75901C1.33203 4.18683 1.33203 4.74689 1.33203 5.86699V10.1337C1.33203 11.2538 1.33203 11.8138 1.55002 12.2416C1.74176 12.618 2.04773 12.9239 2.42405 13.1157C2.85187 13.3337 3.41193 13.3337 4.53203 13.3337Z" stroke="currentColor" stroke-width="0.75" stroke-linecap="round" stroke-linejoin="round"/>
</svg>
