<svg width="32" height="32" viewBox="0 0 32 32" fill="none" xmlns="http://www.w3.org/2000/svg">
<path fill-rule="evenodd" clip-rule="evenodd" d="M8.00521 7.97975C8.00521 8.78389 8.30951 9.55666 8.85436 10.1441H8.70648C8.12611 10.1441 7.65955 10.1441 7.28207 10.1749C6.89391 10.2066 6.55531 10.2735 6.24279 10.4327C5.74451 10.6866 5.33939 11.0917 5.08551 11.59C4.92627 11.9025 4.85942 12.2411 4.82771 12.6293C4.79687 13.0068 4.79687 13.4733 4.79688 14.0537L4.79688 23.2947C4.79687 23.8751 4.79687 24.3416 4.82771 24.7191C4.85942 25.1072 4.92627 25.4458 5.08551 25.7584C5.33939 26.2566 5.74451 26.6618 6.24279 26.9156C6.55531 27.0749 6.89391 27.1417 7.28207 27.1734C7.65954 27.2043 8.12608 27.2043 8.70643 27.2043H15.9988L16.0006 27.2043L16.0023 27.2043H23.2945C23.8749 27.2043 24.3416 27.2043 24.7191 27.1735C25.1072 27.1417 25.4458 27.0749 25.7584 26.9157C26.2567 26.6618 26.6618 26.2566 26.9157 25.7584C27.0749 25.4458 27.1417 25.1072 27.1735 24.7191C27.2043 24.3416 27.2043 23.8751 27.2043 23.2947V14.0537C27.2043 13.4733 27.2043 13.0068 27.1735 12.6293C27.1417 12.2411 27.0749 11.9025 26.9157 11.59C26.6618 11.0917 26.2566 10.6866 25.7584 10.4327C25.4458 10.2735 25.1072 10.2066 24.7191 10.1749C24.3416 10.1441 23.8751 10.1441 23.2947 10.1441H23.1468C23.6916 9.55666 23.9959 8.78389 23.9959 7.97975C23.9959 7.1356 23.6606 6.32602 23.0637 5.72912C22.4668 5.13221 21.6572 4.79688 20.8131 4.79688C18.6584 4.79688 17.322 6.34332 16.557 7.73432C16.3307 8.14578 16.1471 8.55562 16.0006 8.92932C15.8541 8.55562 15.6705 8.14578 15.4442 7.73432C14.6791 6.34332 13.3428 4.79688 11.1881 4.79688C10.3439 4.79688 9.53435 5.13221 8.93745 5.72912C8.34055 6.32602 8.00521 7.1356 8.00521 7.97975ZM9.65765 6.44932C10.0635 6.04342 10.6141 5.81539 11.1881 5.81539C12.7764 5.81539 13.8463 6.94256 14.5518 8.22517C14.8986 8.85575 15.1373 9.49107 15.2895 9.97159C15.3086 10.0318 15.3262 10.0894 15.3425 10.1441H11.1881C10.6141 10.1441 10.0635 9.91607 9.65765 9.51017C9.25176 9.10428 9.02373 8.55377 9.02373 7.97975C9.02373 7.40572 9.25176 6.85521 9.65765 6.44932ZM15.4913 17.6302V11.1626L8.72836 11.1626C8.12101 11.1626 7.69613 11.163 7.36501 11.1901C7.03984 11.2166 6.8502 11.2663 6.70519 11.3402C6.39855 11.4965 6.14925 11.7458 5.99301 12.0524C5.91913 12.1974 5.86941 12.3871 5.84284 12.7122C5.81579 13.0433 5.81539 13.4682 5.81539 14.0756V17.6302H15.4913ZM5.81539 23.2728L5.81539 18.6487H15.4913L15.4913 26.1858L8.72836 26.1858C8.12101 26.1858 7.69612 26.1854 7.36501 26.1583C7.03984 26.1317 6.8502 26.082 6.70519 26.0081C6.39855 25.8519 6.14925 25.6026 5.99301 25.296C5.91913 25.151 5.86941 24.9613 5.84284 24.6361C5.81579 24.305 5.81539 23.8801 5.81539 23.2728ZM16.5098 26.1858L16.5098 18.6487H26.1858V23.2728C26.1858 23.8801 26.1854 24.305 26.1583 24.6362C26.1317 24.9613 26.082 25.151 26.0081 25.296C25.8519 25.6026 25.6026 25.8519 25.296 26.0081C25.151 26.082 24.9613 26.1317 24.6362 26.1583C24.305 26.1854 23.8801 26.1858 23.2728 26.1858L16.5098 26.1858ZM26.1858 14.0756V17.6302H16.5098L16.5098 11.1626L23.2728 11.1626C23.8801 11.1626 24.305 11.163 24.6362 11.1901C24.9613 11.2166 25.151 11.2664 25.296 11.3402C25.6026 11.4965 25.8519 11.7458 26.0081 12.0524C26.082 12.1974 26.1317 12.3871 26.1583 12.7122C26.1854 13.0433 26.1858 13.4682 26.1858 14.0756ZM16.7117 9.97159C16.6926 10.0318 16.675 10.0894 16.6587 10.1441H20.8131C21.3871 10.1441 21.9376 9.91607 22.3435 9.51017C22.7494 9.10428 22.9774 8.55377 22.9774 7.97975C22.9774 7.40572 22.7494 6.85521 22.3435 6.44932C21.9376 6.04342 21.3871 5.81539 20.8131 5.81539C19.2247 5.81539 18.1548 6.94256 17.4494 8.22517C17.1026 8.85575 16.8638 9.49107 16.7117 9.97159Z" fill="currentColor"/>
</svg>
