<svg width="16" height="16" viewBox="0 0 16 16" fill="none" xmlns="http://www.w3.org/2000/svg">
<path id="Vector" fill-rule="evenodd" clip-rule="evenodd" d="M7.99871 6.00065C6.89378 6.00065 5.9987 6.89605 5.9987 8.00065C5.9987 9.10552 6.89411 10.0006 7.99871 10.0006C9.10358 10.0006 9.99871 9.10525 9.99871 8.00065C9.99871 6.89578 9.10331 6.00065 7.99871 6.00065ZM7.99871 4.66732C9.83898 4.66732 11.332 6.15872 11.332 8.00065C11.332 9.84098 9.84065 11.334 7.99871 11.334C6.15839 11.334 4.66536 9.84258 4.66536 8.00065C4.66536 6.16034 6.15677 4.66732 7.99871 4.66732ZM7.99871 1.33398C9.80978 1.33398 10.0359 1.34065 10.747 1.37398C11.4564 1.40676 11.9404 1.51898 12.3654 1.68398C12.8048 1.85343 13.1759 2.08232 13.5464 2.45287C13.9164 2.82343 14.1454 3.19565 14.3154 3.63398C14.4798 4.05843 14.592 4.54287 14.6254 5.25232C14.657 5.96343 14.6654 6.18954 14.6654 8.00065C14.6654 9.81178 14.6587 10.0378 14.6254 10.749C14.5926 11.4584 14.4798 11.9423 14.3154 12.3673C14.1459 12.8068 13.9164 13.1778 13.5464 13.5484C13.1759 13.9184 12.8031 14.1473 12.3654 14.3173C11.9404 14.4818 11.4564 14.594 10.747 14.6273C10.0359 14.659 9.80978 14.6673 7.99871 14.6673C6.18759 14.6673 5.96147 14.6606 5.25036 14.6273C4.54092 14.5945 4.05758 14.4818 3.63203 14.3173C3.19314 14.1478 2.82147 13.9184 2.45092 13.5484C2.08036 13.1778 1.85203 12.8051 1.68203 12.3673C1.51703 11.9423 1.40536 11.4584 1.37203 10.749C1.34036 10.0378 1.33203 9.81178 1.33203 8.00065C1.33203 6.18954 1.3387 5.96343 1.37203 5.25232C1.4048 4.54232 1.51703 4.05898 1.68203 3.63398C1.85147 3.1951 2.08036 2.82343 2.45092 2.45287C2.82147 2.08232 3.1937 1.85398 3.63203 1.68398C4.05703 1.51898 4.54036 1.40732 5.25036 1.37398C5.96147 1.34232 6.18759 1.33398 7.99871 1.33398ZM11.4987 5.33343C11.9582 5.33343 12.332 4.96016 12.332 4.50008C12.332 4.04058 11.9576 3.66674 11.4987 3.66732C11.0392 3.66732 10.6654 4.04058 10.6654 4.50008C10.6654 4.95958 11.0386 5.33343 11.4987 5.33343Z" fill="currentColor"/>
</svg>
