<svg width="24" height="24" viewBox="0 0 24 24" fill="none" xmlns="http://www.w3.org/2000/svg">
<path fill-rule="evenodd" clip-rule="evenodd" d="M19.1111 11.0556C19.1111 13.1001 18.3494 14.9668 17.0943 16.3872L21.2071 20.5L20.5 21.2071L16.3872 17.0943C14.9668 18.3494 13.1001 19.1111 11.0556 19.1111C6.6066 19.1111 3 15.5045 3 11.0556C3 6.6066 6.6066 3 11.0556 3C15.5045 3 19.1111 6.6066 19.1111 11.0556ZM4 11.0556C4 7.15888 7.15888 4 11.0556 4C14.9522 4 18.1111 7.15888 18.1111 11.0556C18.1111 12.8742 17.423 14.5322 16.293 15.7833L15.7833 16.293C14.5322 17.423 12.8742 18.1111 11.0556 18.1111C7.15888 18.1111 4 14.9522 4 11.0556Z" fill="currentColor"/>
</svg>
