<svg width="16" height="16" viewBox="0 0 16 16" fill="none" xmlns="http://www.w3.org/2000/svg">
<path d="M8.00065 1.33398C11.6825 1.33398 14.6673 4.31875 14.6673 8.00065C14.6673 11.6825 11.6825 14.6673 8.00065 14.6673C4.31875 14.6673 1.33398 11.6825 1.33398 8.00065H2.66732C2.66732 10.9462 5.05513 13.334 8.00065 13.334C10.9462 13.334 13.334 10.9462 13.334 8.00065C13.334 5.05513 10.9462 2.66732 8.00065 2.66732C6.16746 2.66732 4.5503 3.59221 3.59032 5.00081L5.33398 5.00065V6.33398H1.33398V2.33398H2.66732L2.66724 4.0001C3.88354 2.38115 5.8198 1.33398 8.00065 1.33398ZM8.66732 4.66732L8.66718 7.72398L10.8291 9.88625L9.88625 10.8291L7.33385 8.27598L7.33398 4.66732H8.66732Z" fill="currentColor"/>
</svg>
