<svg width="24" height="24" viewBox="0 0 24 24" fill="none" xmlns="http://www.w3.org/2000/svg">
<rect width="24" height="24" rx="12" fill="currentColor"/>
<path d="M15.9314 6.35345C15.9314 6.35345 16.9949 5.85579 16.9063 7.06443C16.8768 7.56212 16.6109 9.30399 16.4041 11.188L15.695 16.7692C15.695 16.7692 15.6359 17.5868 15.1041 17.729C14.5723 17.8712 13.7746 17.2313 13.6269 17.0891C13.5087 16.9825 11.411 15.3828 10.6724 14.6007C10.4656 14.3874 10.2292 13.9608 10.7019 13.4631L13.8042 9.90832C14.1587 9.48175 14.5132 8.48638 13.036 9.69502L8.89976 13.0721C8.89976 13.0721 8.42703 13.4276 7.54071 13.1077L5.62031 12.3967C5.62031 12.3967 4.91124 11.8635 6.12257 11.3302C9.07703 9.65945 12.711 7.95313 15.9314 6.35345Z" fill="var(--color2)"/>
</svg>
