<svg width="16" height="16" viewBox="0 0 16 16" fill="none" xmlns="http://www.w3.org/2000/svg">
<path d="M14.2418 0.471264C14.2418 0.471264 15.6599 -0.192279 15.5418 1.41925C15.5024 2.08283 15.1478 4.40532 14.8721 6.9174L13.9266 14.3589C13.9266 14.3589 13.8479 15.449 13.1388 15.6386C12.4297 15.8282 11.3661 14.9751 11.1692 14.7855C11.0116 14.6433 8.21473 12.5104 7.2299 11.4676C6.95414 11.1832 6.63899 10.6144 7.26927 9.95086L11.4055 5.2111C11.8783 4.64233 12.3509 3.31517 10.3813 4.9267L4.86635 9.42952C4.86635 9.42952 4.23604 9.90347 3.05429 9.4769L0.49375 8.52896C0.49375 8.52896 -0.45168 7.81799 1.16343 7.10699C5.10271 4.87927 9.94803 2.60417 14.2418 0.471264Z" fill="currentColor"/>
</svg>
