<svg width="20" height="21" viewBox="0 0 20 21" fill="none" xmlns="http://www.w3.org/2000/svg">
<path d="M4.43155 16.699C4.93849 15.5047 6.12207 14.667 7.5013 14.667H12.5013C13.8805 14.667 15.0641 15.5047 15.5711 16.699M13.3346 8.41699C13.3346 10.2579 11.8423 11.7503 10.0013 11.7503C8.16035 11.7503 6.66797 10.2579 6.66797 8.41699C6.66797 6.57604 8.16035 5.08366 10.0013 5.08366C11.8423 5.08366 13.3346 6.57604 13.3346 8.41699ZM18.3346 10.5003C18.3346 15.1027 14.6037 18.8337 10.0013 18.8337C5.39893 18.8337 1.66797 15.1027 1.66797 10.5003C1.66797 5.89795 5.39893 2.16699 10.0013 2.16699C14.6037 2.16699 18.3346 5.89795 18.3346 10.5003Z" stroke="currentColor" stroke-width="1.25" stroke-linejoin="round"/>
</svg>
