<svg width="24" height="24" viewBox="0 0 24 24" fill="none" xmlns="http://www.w3.org/2000/svg">
<path d="M12 0C5.3832 0 0 5.38281 0 12C0 14.3281 0.667578 16.5727 1.93477 18.5219L0.0648438 22.8852C-0.0640625 23.1852 0.00312502 23.5344 0.234375 23.7656C0.3875 23.9188 0.592188 24 0.8 24C0.90625 24 1.01367 23.9789 1.11523 23.9352L5.47852 22.0648C7.42734 23.3328 9.67188 24 12 24C18.6172 24 24 18.6172 24 12C24 5.38281 18.6172 0 12 0Z" fill="currentColor"/>
<path d="M18.1523 16.2937C18.1523 16.2937 17.1546 17.5734 16.4335 17.8726C14.6007 18.6312 12.0132 17.8726 9.06556 14.9257C6.11868 11.978 5.3597 9.39054 6.11868 7.55773C6.4179 6.83586 7.69759 5.83898 7.69759 5.83898C8.04446 5.56867 8.58353 5.60226 8.89446 5.9132L10.3421 7.36086C10.6531 7.67179 10.6531 8.18117 10.3421 8.49211L9.43353 9.39992C9.43353 9.39992 9.06556 10.5046 11.2757 12.7155C13.4859 14.9257 14.5913 14.5577 14.5913 14.5577L15.4992 13.6491C15.8101 13.3382 16.3195 13.3382 16.6304 13.6491L18.0781 15.0968C18.389 15.4077 18.4226 15.946 18.1523 16.2937Z" fill="var(--color2)"/>
</svg>
