<svg width="20" height="16" viewBox="0 0 20 16" fill="none" xmlns="http://www.w3.org/2000/svg">
<path fill-rule="evenodd" clip-rule="evenodd" d="M18.9355 1.64873C19.2458 1.98101 19.4692 2.39467 19.5835 2.84838C19.9951 4.51798 20 8.00353 20 8.00353C20 8.00353 20 11.4891 19.5835 13.1587C19.4692 13.6124 19.2458 14.026 18.9355 14.3583C18.6252 14.6906 18.239 14.9299 17.8153 15.0522C16.2562 15.5 10 15.5 10 15.5C10 15.5 3.74547 15.5 2.18637 15.0522C1.76254 14.9302 1.3761 14.691 1.06576 14.3587C0.75543 14.0264 0.532108 13.6125 0.418175 13.1587C0 11.4891 0 8.00353 0 8.00353C0 8.00353 0 4.51798 0.418175 2.84838C0.531098 2.39321 0.753972 1.97792 1.06437 1.64428C1.37477 1.31064 1.76175 1.07043 2.18637 0.947814C3.74383 0.5 10 0.5 10 0.5C10 0.5 16.2545 0.5 17.8153 0.954866C18.239 1.0772 18.6252 1.31646 18.9355 1.64873ZM12.5 8L7.5 10.5V5.5L12.5 8Z" fill="currentColor"/>
</svg>
