<svg width="201" height="40" viewBox="0 0 201 40" fill="none" xmlns="http://www.w3.org/2000/svg">
<path d="M199.142 39.214L199.436 39.6186L199.142 39.214C198.991 39.3239 198.743 39.4091 198.25 39.4544C197.758 39.4995 197.105 39.5 196.187 39.5L20 39.5C9.23044 39.5 0.5 30.7696 0.5 20C0.5 9.23045 9.23044 0.500004 20 0.500004L196.187 0.5C197.105 0.5 197.758 0.500504 198.25 0.545578C198.743 0.590885 198.991 0.676132 199.142 0.786007C199.486 1.03548 199.708 1.41899 199.753 1.84136C199.773 2.02739 199.723 2.28434 199.516 2.73506C199.31 3.18346 198.985 3.75033 198.528 4.54588L190.702 18.1557L190.663 18.2241C190.366 18.7388 190.162 19.0945 190.08 19.4819L190.569 19.5856L190.08 19.482C190.007 19.8235 190.007 20.1765 190.08 20.518C190.162 20.9054 190.366 21.261 190.662 21.7755L190.702 21.8443L198.528 35.4541C198.985 36.2497 199.31 36.8165 199.516 37.2649C199.723 37.7157 199.773 37.9726 199.753 38.1586C199.708 38.581 199.486 38.9645 199.142 39.214Z" stroke="#FFF8F5" stroke-opacity="0.25"/>
</svg>
