<svg width="201" height="40" viewBox="0 0 201 40" fill="none" xmlns="http://www.w3.org/2000/svg">
<path d="M199.4 39.214L199.694 39.6186L199.4 39.214C199.249 39.3239 199.001 39.4091 198.507 39.4544C198.016 39.4995 197.362 39.5 196.445 39.5L20.2578 39.5C9.48826 39.5 0.757812 30.7696 0.757813 20C0.757813 9.23045 9.48826 0.500004 20.2578 0.500004L196.445 0.5C197.362 0.5 198.016 0.500504 198.507 0.545578C199.001 0.590885 199.249 0.676132 199.4 0.786007C199.744 1.03548 199.966 1.41899 200.011 1.84136C200.03 2.02739 199.981 2.28434 199.774 2.73506C199.568 3.18346 199.243 3.75033 198.785 4.54588L190.96 18.1557L190.92 18.2241C190.624 18.7388 190.419 19.0945 190.337 19.4819L190.827 19.5856L190.337 19.482C190.265 19.8235 190.265 20.1765 190.337 20.518C190.419 20.9054 190.624 21.261 190.92 21.7755L190.96 21.8443L198.785 35.4541C199.243 36.2497 199.568 36.8165 199.774 37.2649C199.981 37.7157 200.03 37.9726 200.011 38.1586C199.966 38.581 199.744 38.9645 199.4 39.214Z" stroke="#FFF8F5" stroke-opacity="0.25"/>
</svg>
