<svg width="193" height="40" viewBox="0 0 193 40" fill="none" xmlns="http://www.w3.org/2000/svg">
<path id="flag" d="M0.257813 20C0.257813 8.95431 9.21212 3.8147e-06 20.2578 3.8147e-06L188.445 0C190.26 0 191.168 0 191.694 0.381344C192.152 0.713978 192.448 1.22534 192.508 1.78849C192.576 2.4341 192.124 3.2211 191.219 4.79511L183.393 18.4049C183.059 18.9861 182.892 19.2767 182.827 19.5856C182.769 19.8588 182.769 20.1412 182.827 20.4144C182.892 20.7233 183.059 21.0139 183.393 21.5951L191.219 35.2049C192.124 36.7789 192.576 37.5659 192.508 38.2115C192.448 38.7747 192.152 39.286 191.694 39.6187C191.168 40 190.26 40 188.445 40L20.2578 40C9.21212 40 0.257812 31.0457 0.257813 20Z" fill="#4280EF"/>
</svg>
