<svg width="201" height="40" viewBox="0 0 201 40" fill="none" xmlns="http://www.w3.org/2000/svg">
<path id="flag" d="M0 20C4.82822e-07 8.95431 8.9543 3.8147e-06 20 3.8147e-06L196.187 0C198.003 0 198.91 0 199.436 0.381344C199.894 0.713978 200.19 1.22534 200.25 1.78849C200.319 2.4341 199.866 3.2211 198.961 4.79511L191.135 18.4049C190.801 18.9861 190.634 19.2767 190.569 19.5856C190.511 19.8588 190.511 20.1412 190.569 20.4144C190.634 20.7233 190.801 21.0139 191.135 21.5951L198.961 35.2049C199.866 36.7789 200.319 37.5659 200.25 38.2115C200.19 38.7747 199.894 39.286 199.436 39.6187C198.91 40 198.003 40 196.187 40L20 40C8.9543 40 -4.82823e-07 31.0457 0 20Z" fill="#FC3F1D"/>
</svg>
