<svg width="0" height="0" class="hidden">
  <symbol fill="none" xmlns="http://www.w3.org/2000/svg" viewBox="0 0 20 20" id="ic_all">
    <path d="M9.99935 10.6673C10.3675 10.6673 10.666 10.3688 10.666 10.0007C10.666 9.63246 10.3675 9.33398 9.99935 9.33398C9.63116 9.33398 9.33268 9.63246 9.33268 10.0007C9.33268 10.3688 9.63116 10.6673 9.99935 10.6673Z" stroke="currentColor" stroke-width="0.75" stroke-linecap="round" stroke-linejoin="round"></path>
    <path d="M13.666 10.6673C14.0342 10.6673 14.3327 10.3688 14.3327 10.0007C14.3327 9.63246 14.0342 9.33398 13.666 9.33398C13.2978 9.33398 12.9993 9.63246 12.9993 10.0007C12.9993 10.3688 13.2978 10.6673 13.666 10.6673Z" stroke="currentColor" stroke-width="0.75" stroke-linecap="round" stroke-linejoin="round"></path>
    <path d="M6.33268 10.6673C6.70087 10.6673 6.99935 10.3688 6.99935 10.0007C6.99935 9.63246 6.70087 9.33398 6.33268 9.33398C5.96449 9.33398 5.66602 9.63246 5.66602 10.0007C5.66602 10.3688 5.96449 10.6673 6.33268 10.6673Z" stroke="currentColor" stroke-width="0.75" stroke-linecap="round" stroke-linejoin="round"></path>
    <path d="M10 17C13.866 17 17 13.866 17 10C17 6.13401 13.866 3 10 3C6.13401 3 3 6.13401 3 10C3 13.866 6.13401 17 10 17Z" stroke="currentColor" stroke-width="0.75" stroke-linecap="round" stroke-linejoin="round"></path>
  </symbol>
  <symbol fill="none" xmlns="http://www.w3.org/2000/svg" viewBox="0 0 32 32" id="ic_category1">
    <path fill-rule="evenodd" clip-rule="evenodd" d="M15.9993 10.0938C18.6141 10.0938 21.0728 11.1121 22.922 12.9613C24.7712 14.8104 25.7896 17.2688 25.7895 19.884C25.7895 22.4992 24.7712 24.9576 22.922 26.8068C21.0728 28.6559 18.614 29.6743 15.9993 29.6743C13.3844 29.6743 10.9256 28.6559 9.07653 26.8068C7.22741 24.9576 6.20898 22.4992 6.20898 19.884C6.20898 17.2688 7.22733 14.8104 9.07653 12.9613C10.9257 11.1122 13.3845 10.0938 15.9993 10.0938ZM15.9993 28.8743C18.4005 28.8743 20.6585 27.9395 22.3564 26.2411C24.0544 24.5427 24.9896 22.2856 24.9896 19.884C24.9896 17.4825 24.0549 15.2249 22.3564 13.5269C20.6581 11.829 18.4005 10.8937 15.9993 10.8937C13.5982 10.8937 11.3402 11.829 9.64222 13.5269C7.94428 15.2249 7.00905 17.4825 7.00905 19.884C7.00905 22.2856 7.94381 24.5432 9.64222 26.2411C11.3406 27.9391 13.5982 28.8743 15.9993 28.8743Z" fill="currentColor"></path>
    <path fill-rule="evenodd" clip-rule="evenodd" d="M21.1682 3.81675L16.9155 7.80748C23.1686 8.27833 28.1137 13.513 28.1138 19.8844C28.1138 26.5651 22.6786 31.9998 15.9983 31.9998C9.31798 31.9998 3.88281 26.5651 3.88281 19.8844C3.88281 13.5125 8.82791 8.2781 15.0806 7.80693L10.8279 3.8162C10.8263 3.81456 10.8255 3.81261 10.8239 3.81097C10.8178 3.8049 10.8131 3.79786 10.8084 3.79084C10.8051 3.78584 10.8017 3.78085 10.7979 3.7762C10.7759 3.74941 10.7551 3.72261 10.7411 3.69183C10.7368 3.68241 10.7341 3.67249 10.7313 3.66238C10.7298 3.65664 10.7282 3.65084 10.7263 3.64503C10.7159 3.613 10.7087 3.58144 10.7067 3.54824C10.7064 3.5447 10.7054 3.54138 10.7044 3.53805C10.7032 3.53388 10.7019 3.52968 10.7019 3.52503C10.7019 3.51927 10.7036 3.51396 10.7052 3.50862C10.7066 3.50396 10.708 3.49927 10.7084 3.49425C10.7108 3.4631 10.717 3.43235 10.7268 3.40269C10.7322 3.38403 10.7392 3.36584 10.7476 3.34832C10.7497 3.34412 10.7511 3.33969 10.7524 3.33523C10.7541 3.32989 10.7557 3.32451 10.7587 3.31949L11.0751 2.79114C12.1055 1.0696 13.9919 0 15.9983 0C18.0046 0 19.891 1.0696 20.9214 2.79161L21.2378 3.32004C21.2408 3.32503 21.2424 3.33037 21.244 3.33568C21.2454 3.34017 21.2467 3.34464 21.2489 3.34886C21.2572 3.36643 21.2642 3.38461 21.2697 3.40324C21.2794 3.43295 21.2856 3.46367 21.2881 3.4948C21.2887 3.49957 21.29 3.50404 21.2913 3.50847C21.2929 3.51405 21.2946 3.51957 21.2946 3.52558C21.2946 3.52974 21.2934 3.53371 21.2922 3.53769C21.2911 3.54133 21.29 3.54498 21.2898 3.54878C21.2878 3.58199 21.2802 3.61316 21.2702 3.64519C21.2683 3.65091 21.2668 3.65663 21.2653 3.6623C21.2625 3.67251 21.2598 3.68259 21.2554 3.69238C21.2414 3.72316 21.2206 3.74995 21.1986 3.77675C21.1944 3.78164 21.1908 3.78691 21.1872 3.79217C21.1826 3.79893 21.1781 3.80567 21.1722 3.81151L21.1704 3.814L21.1682 3.81675ZM18.0987 3.92519L16.9955 6.63515L19.8834 3.92519H18.0987ZM18.0454 3.1252H20.181C19.4118 1.89396 18.1302 1.06639 16.7094 0.856786L18.0454 3.1252ZM14.8795 3.1252H17.1174L15.9983 1.22483L14.8795 3.1252ZM13.951 3.1252L15.2867 0.856396C13.8663 1.06639 12.5843 1.89396 11.8151 3.1252H13.951ZM13.8979 3.92519H12.1127L15.0011 6.63554L13.8979 3.92519ZM17.2355 3.92519H14.7615L15.9983 6.96359L17.2355 3.92519ZM4.6828 19.8845C4.6828 26.124 9.75876 31.2 15.9983 31.2C22.2377 31.2 27.3138 26.124 27.3138 19.8845C27.3138 13.645 22.2378 8.56903 15.9983 8.56903C9.75876 8.56903 4.6828 13.645 4.6828 19.8845Z" fill="currentColor"></path>
  </symbol>
  <symbol fill="none" xmlns="http://www.w3.org/2000/svg" viewBox="0 0 32 32" id="ic_category2">
    <path d="M12.3278 32C15.4863 32 18.6448 30.7976 21.0492 28.3932C22.3342 27.1083 23.2974 25.5984 23.9143 23.9052C25.5982 23.2922 27.1271 22.3173 28.3932 21.0492C33.2021 16.2404 33.2021 8.41554 28.3932 3.60659C23.5846 -1.2022 15.7595 -1.2022 10.9506 3.60659C9.666 4.89128 8.70213 6.40152 8.08456 8.09495C6.40116 8.7082 4.87263 9.68299 3.60659 10.9507C-1.2022 15.7595 -1.2022 23.5844 3.60659 28.3932C6.01107 30.7976 9.16957 31.9999 12.3278 31.9999V32ZM11.5167 4.17227C16.0142 -0.324298 23.3307 -0.324064 27.8276 4.17227C32.3245 8.66915 32.3245 15.9863 27.8276 20.4835C23.3305 24.9804 16.0136 24.9804 11.5167 20.4835C9.2335 18.2002 8.01203 15.0491 8.15185 11.824C8.75947 11.4988 9.40314 11.246 10.0697 11.0708C10.0156 11.4869 9.979 11.9067 9.979 12.3277C9.979 17.6726 14.3275 22.0209 19.6722 22.0209C25.0169 22.0209 29.365 17.6727 29.365 12.3277C29.365 6.98306 25.0169 2.63483 19.6722 2.63483C16.2664 2.63483 13.0715 4.45558 11.3317 7.38696C10.5667 7.44851 9.80906 7.58106 9.06859 7.78289C9.64435 6.43568 10.4656 5.22336 11.5167 4.17219V4.17227ZM19.692 24.6552C18.0459 27.0814 15.2818 28.5647 12.3278 28.5647C7.42463 28.5647 3.43512 24.5752 3.43512 19.672C3.43512 16.6164 4.98475 13.9164 7.3389 12.3149C7.33702 15.5784 8.63328 18.7317 10.9507 21.0491C13.3552 23.4536 16.5137 24.6558 19.6722 24.6558C19.6789 24.6558 19.6853 24.6552 19.692 24.6552ZM21.1031 21.1038C20.63 21.1811 20.1514 21.22 19.6721 21.2204C14.7686 21.2204 10.7795 17.2312 10.7795 12.3277C10.7795 11.8469 10.8234 11.3666 10.8994 10.8956C11.3716 10.8184 11.8493 10.7795 12.3278 10.7793C17.2313 10.7793 21.2205 14.7685 21.2205 19.672C21.2205 20.1525 21.1794 20.6333 21.1031 21.1038ZM24.6599 19.6861C24.6618 16.4225 23.3652 13.2665 21.0493 10.9505C18.6397 8.5409 15.4727 7.33929 12.3074 7.34452C13.9532 4.92082 16.7265 3.43497 19.6722 3.43497C24.5754 3.43497 28.5649 7.42447 28.5649 12.3277C28.5649 15.384 27.0146 18.0845 24.6599 19.6861ZM4.17235 11.5166C8.66985 7.01972 15.9867 7.02003 20.4836 11.5166C22.7646 13.7981 23.9891 16.9514 23.8493 20.1755C23.2415 20.5006 22.5978 20.7535 21.9312 20.9289C21.9853 20.5132 22.021 20.0931 22.021 19.6721C22.021 14.3274 17.6728 9.97893 12.3278 9.97893C6.98314 9.97893 2.63491 14.3274 2.63491 19.6721C2.63491 25.0168 6.98314 29.3649 12.3278 29.3649C15.7421 29.3649 18.922 27.5463 20.6646 24.6132C21.4306 24.5519 22.1893 24.4193 22.9307 24.2172C22.3553 25.5635 21.5346 26.7761 20.4836 27.8275C15.9864 32.3247 8.66954 32.3244 4.17235 27.8275C-0.32422 23.3306 -0.32422 16.0135 4.17235 11.5166Z" fill="currentColor"></path>
  </symbol>
  <symbol fill="none" xmlns="http://www.w3.org/2000/svg" viewBox="0 0 32 32" id="ic_category3">
    <path fill-rule="evenodd" clip-rule="evenodd" d="M4.23021 30H27.7698C28.9994 30 30 28.9994 30 27.7698V24.0679C30 22.8383 28.9994 21.8377 27.7698 21.8377H27.4793L28.4902 7.51227C28.5919 6.07112 28.106 4.69567 27.1211 3.63904C26.1361 2.58215 24.7986 2 23.3537 2H8.64634C7.20144 2 5.86365 2.58215 4.87853 3.63904C3.89375 4.69567 3.40779 6.07112 3.50978 7.51227L4.52074 21.8377H4.23021C3.00057 21.8378 2 22.8383 2 24.0679V27.7698C2 28.9994 3.00057 30 4.23021 30ZM2.69993 24.0679C2.69993 23.2241 3.38646 22.5379 4.23028 22.5379H27.7699C28.6136 22.5379 29.2999 23.2242 29.2999 24.0679V27.7698C29.2999 28.6135 28.6136 29.2998 27.7699 29.2998H4.23021C3.38639 29.2998 2.69986 28.6135 2.69986 27.7698L2.69993 24.0679ZM4.20779 7.46284C4.11995 6.21768 4.54002 5.02892 5.39095 4.11599C6.24175 3.20271 7.39797 2.69986 8.64634 2.69986H23.3537C24.602 2.69986 25.7583 3.20271 26.609 4.11592C27.4601 5.02892 27.88 6.21768 27.7922 7.46284L26.7778 21.8378H25.9314C24.5195 18.045 20.994 15.2727 16.7941 14.9565L20.5153 11.4646C20.5157 11.4642 20.516 11.4639 20.5163 11.4635C20.5164 11.4633 20.5165 11.4632 20.5166 11.463C20.5168 11.4627 20.517 11.4625 20.5171 11.4622C20.5176 11.4615 20.5181 11.4607 20.5188 11.46C20.5239 11.4549 20.5279 11.449 20.5319 11.4431C20.5351 11.4385 20.5382 11.4339 20.5419 11.4296C20.5612 11.4062 20.5793 11.3827 20.5916 11.3558C20.5954 11.3472 20.5978 11.3384 20.6002 11.3295C20.6008 11.3271 20.6015 11.3247 20.6022 11.3223C20.6029 11.3197 20.6037 11.3171 20.6045 11.3145C20.6132 11.2865 20.6199 11.2592 20.6217 11.2301C20.6218 11.2268 20.6228 11.2237 20.6237 11.2205L20.6237 11.2204C20.6248 11.217 20.6258 11.2135 20.6258 11.2098C20.6258 11.2046 20.6244 11.1997 20.623 11.1949C20.6218 11.191 20.6207 11.1871 20.6202 11.1829C20.6179 11.1557 20.6125 11.1288 20.6041 11.1028C20.5993 11.0865 20.5932 11.0706 20.5859 11.0552C20.584 11.0515 20.5828 11.0476 20.5816 11.0437C20.5802 11.0391 20.5788 11.0344 20.5761 11.03L20.2993 10.5676C19.3977 9.06086 17.7471 8.12497 15.9916 8.12497C14.236 8.12497 12.5855 9.06086 11.6839 10.5672L11.407 11.0295C11.4043 11.0339 11.4029 11.0386 11.4015 11.0433C11.4003 11.0472 11.3992 11.0511 11.3973 11.0547C11.3899 11.0701 11.3838 11.086 11.3791 11.1023C11.3705 11.1283 11.365 11.1552 11.3629 11.1824C11.3626 11.1868 11.3614 11.1909 11.3602 11.195C11.3587 11.1997 11.3573 11.2043 11.3573 11.2094C11.3573 11.2134 11.3584 11.2171 11.3595 11.2208C11.3603 11.2237 11.3612 11.2266 11.3615 11.2297C11.3633 11.2587 11.3696 11.2863 11.3787 11.3144C11.3803 11.3194 11.3817 11.3245 11.383 11.3295C11.3854 11.3383 11.3878 11.3471 11.3916 11.3553C11.4038 11.3822 11.422 11.4057 11.4413 11.4291C11.4446 11.4332 11.4475 11.4375 11.4505 11.4419C11.4546 11.448 11.4587 11.4542 11.464 11.4596C11.4644 11.4599 11.4647 11.4603 11.465 11.4607C11.4651 11.4609 11.4653 11.461 11.4654 11.4612C11.4655 11.4614 11.4657 11.4617 11.4659 11.4619C11.4661 11.4623 11.4664 11.4627 11.4666 11.463C11.4669 11.4634 11.4672 11.4638 11.4675 11.4641L15.1887 14.956C10.989 15.2725 7.46349 18.0447 6.05171 21.8378H5.22197L4.20779 7.46284ZM6.80205 21.8378C8.26703 18.1984 11.8341 15.6228 15.9916 15.6228C20.1491 15.6228 23.7162 18.1984 25.1812 21.8378H23.7294C23.3146 20.9688 22.75 20.1676 22.0489 19.4666C20.4309 17.8485 18.2795 16.9575 15.9915 16.9575C13.7037 16.9575 11.5522 17.8486 9.93419 19.4666C9.23311 20.1676 8.66851 20.9688 8.25375 21.8378H6.80205ZM9.03795 21.8378C9.40077 21.1554 9.86724 20.5234 10.4292 19.9615C11.9149 18.4758 13.8906 17.6575 15.9916 17.6575C18.0926 17.6575 20.068 18.4758 21.5541 19.9615C22.1162 20.5234 22.5826 21.1554 22.9455 21.8378H9.03795ZM17.8294 11.5595L16.8641 13.9307L19.3911 11.5595H17.8294ZM17.7828 10.8595H19.6514C18.9785 9.78218 17.857 9.05806 16.6138 8.87465L17.7828 10.8595ZM15.0127 10.8595H16.9708L15.9916 9.19669L15.0127 10.8595ZM14.2003 10.8595L15.3689 8.87431C14.1261 9.05806 13.0044 9.78218 12.3313 10.8595H14.2003ZM14.1538 11.5595H12.5917L15.1191 13.931L14.1538 11.5595ZM17.0741 11.5595H14.9094L15.9916 14.2181L17.0741 11.5595Z" fill="currentColor"></path>
  </symbol>
  <symbol fill="none" xmlns="http://www.w3.org/2000/svg" viewBox="0 0 32 32" id="ic_category4">
    <path fill-rule="evenodd" clip-rule="evenodd" d="M7.00415 16.908C7.66398 17.353 8.44186 17.5905 9.23775 17.5899C10.5299 17.5899 11.8 16.9684 12.5737 15.8184C12.8692 15.3817 13.0751 14.8908 13.1796 14.374C13.2841 13.8573 13.285 13.3249 13.1824 12.8078C13.0826 12.2901 12.881 11.7974 12.5895 11.3581C12.2979 10.9189 11.9221 10.5418 11.4838 10.2488C9.64767 9.01324 7.14975 9.5022 5.91455 11.3384C4.67935 13.1742 5.16831 15.6731 7.00415 16.908ZM6.44543 11.6952C6.75467 11.2359 7.17222 10.8598 7.66121 10.6002C8.1502 10.3405 8.6956 10.2052 9.24927 10.2062C9.89663 10.2062 10.5504 10.3918 11.1267 10.7796C11.495 11.026 11.8109 11.343 12.0559 11.7122C12.3009 12.0814 12.4703 12.4956 12.5542 12.9307C12.6405 13.3653 12.6397 13.8127 12.5519 14.247C12.4641 14.6813 12.2911 15.0939 12.0429 15.4609C11.7965 15.8292 11.4794 16.145 11.1101 16.39C10.7409 16.635 10.3267 16.8043 9.89151 16.8881C9.4569 16.9744 9.00948 16.9737 8.57516 16.8859C8.14084 16.7981 7.72825 16.6251 7.36127 16.3768C5.81823 15.3387 5.40735 13.2388 6.44543 11.6952Z" fill="currentColor"></path>
    <path fill-rule="evenodd" clip-rule="evenodd" d="M5.80382 18.5509C6.70157 19.1733 7.75204 19.5392 8.84222 19.6091C8.30142 20.6968 6.38974 24.6376 6.38974 25.9442C6.38974 27.5186 7.67038 28.7992 9.24478 28.7992C10.8192 28.7992 12.0995 27.5186 12.0995 25.9442C12.0995 24.6373 10.1869 20.6949 9.64702 19.6082C11.4221 19.4879 13.1286 18.5925 14.2173 17.0191C16.1149 14.2773 15.4275 10.5029 12.6854 8.60562C11.7646 7.96761 10.6836 7.59994 9.56478 7.54418V6.78482C10.4093 6.63314 11.0528 5.89458 11.0528 5.0069C11.0528 4.0101 10.2416 3.19922 9.24478 3.19922C8.24798 3.19922 7.43678 4.0101 7.43678 5.00722C7.43678 5.89458 8.07998 6.63282 8.92478 6.78482V7.5445C8.6707 7.55858 8.41598 7.58258 8.16158 7.62898C7.37956 7.76917 6.63311 8.0631 5.96546 8.49374C5.29781 8.92438 4.7222 9.48317 4.27198 10.1378C3.81822 10.7898 3.49826 11.5253 3.33062 12.3017C3.16298 13.0782 3.15099 13.8802 3.29534 14.6613C3.43551 15.4433 3.72939 16.1897 4.15998 16.8574C4.59056 17.525 5.14928 18.1006 5.80382 18.5509ZM9.24478 28.1592C8.65752 28.1585 8.09451 27.9249 7.67926 27.5097C7.264 27.0944 7.03042 26.5314 7.02974 25.9442C7.02974 24.9858 8.43646 21.8994 9.24478 20.2405C10.0531 21.8994 11.4595 24.9855 11.4595 25.9442C11.4588 26.5313 11.2253 27.0942 10.8102 27.5095C10.3951 27.9247 9.83193 28.1584 9.24478 28.1592ZM8.07678 5.00722C8.07712 4.69755 8.20028 4.40066 8.41925 4.18169C8.63822 3.96272 8.93511 3.83956 9.24478 3.83922C9.88862 3.83922 10.4128 4.36306 10.4128 5.00722C10.4128 5.65138 9.88862 6.1749 9.24478 6.1749C8.93511 6.17456 8.63822 6.05139 8.41925 5.83242C8.20028 5.61346 8.07712 5.31689 8.07678 5.00722ZM4.79838 10.5016C5.20095 9.91634 5.71561 9.41672 6.31257 9.03167C6.90953 8.64662 7.57693 8.3838 8.27614 8.25842C9.6979 7.99986 11.1337 8.31058 12.3216 9.13202C14.7728 10.8283 15.3875 14.2034 13.6912 16.6552C11.9945 19.1064 8.61982 19.7208 6.16798 18.0248C4.98014 17.2027 4.18398 15.9675 3.92478 14.5464C3.66558 13.1253 3.97662 11.6891 4.79838 10.5016Z" fill="currentColor"></path>
    <path fill-rule="evenodd" clip-rule="evenodd" d="M24.9894 10.2488C23.1536 9.01362 20.655 9.50226 19.4198 11.3384C19.1244 11.775 18.9185 12.2659 18.814 12.7826C18.7096 13.2993 18.7086 13.8316 18.8112 14.3487C18.911 14.8663 19.1125 15.3591 19.4041 15.7983C19.6957 16.2376 20.0715 16.6147 20.5097 16.9077C21.1695 17.3528 21.9474 17.5904 22.7433 17.5899C24.0355 17.5899 25.3053 16.9685 26.079 15.8184C27.3142 13.9823 26.8253 11.4837 24.9894 10.2488ZM25.5481 15.461C24.5097 17.0043 22.4102 17.4149 20.8665 16.3768C20.4983 16.1304 20.1825 15.8134 19.9375 15.4442C19.6925 15.075 19.5232 14.6609 19.4393 14.2258C19.3531 13.7912 19.3539 13.3438 19.4417 12.9095C19.5294 12.4751 19.7025 12.0625 19.9507 11.6955C20.1971 11.3272 20.5141 11.0114 20.8834 10.7664C21.2527 10.5215 21.6669 10.3522 22.1021 10.2683C22.5367 10.1821 22.9841 10.1828 23.4184 10.2707C23.8528 10.3585 24.2654 10.5316 24.6323 10.78C26.1753 11.8178 26.5862 13.9179 25.5481 15.461Z" fill="currentColor"></path>
    <path fill-rule="evenodd" clip-rule="evenodd" d="M23.07 7.54802C24.1886 7.60248 25.2697 7.96882 26.1909 8.60562C26.8455 9.05589 27.4042 9.6315 27.8348 10.2992C28.2654 10.9668 28.5593 11.7132 28.6994 12.4952C28.8438 13.2764 28.8319 14.0784 28.6642 14.855C28.4966 15.6315 28.1766 16.367 27.7228 17.0191C27.2725 17.6736 26.6969 18.2323 26.0293 18.6629C25.3616 19.0935 24.6152 19.3874 23.8332 19.5275C23.6079 19.5671 23.3805 19.594 23.1522 19.6082C23.6924 20.6949 25.605 24.6373 25.605 25.9442C25.605 27.5186 24.3241 28.7992 22.75 28.7992C21.1759 28.7992 19.8953 27.5186 19.8953 25.9442C19.8953 24.6392 21.8031 20.7048 22.3458 19.6123C21.256 19.5411 20.2062 19.1741 19.3094 18.5509C16.5676 16.6536 15.8802 12.8792 17.7772 10.1375C18.8828 8.54002 20.6258 7.64594 22.43 7.54834V6.78482C21.5855 6.63282 20.942 5.89458 20.942 5.00722C20.942 4.0101 21.7532 3.19922 22.75 3.19922C23.7468 3.19922 24.558 4.0101 24.558 5.0069C24.558 5.89458 23.9148 6.63314 23.07 6.78482V7.54802ZM21.9249 4.18158C21.7059 4.40048 21.5827 4.69728 21.5823 5.0069C21.5827 5.31657 21.7055 5.61346 21.9245 5.83242C22.1434 6.05139 22.4403 6.17456 22.75 6.1749C23.3941 6.1749 23.918 5.65138 23.918 5.00722C23.918 4.36306 23.3941 3.83922 22.7503 3.83922C22.4407 3.83956 22.1439 3.96268 21.9249 4.18158ZM21.1848 27.5097C21.6 27.9249 22.1629 28.1585 22.75 28.1592C23.3372 28.1585 23.9002 27.925 24.3154 27.5098C24.7307 27.0945 24.9644 26.5315 24.965 25.9442C24.965 24.9855 23.5583 21.8994 22.75 20.2405C21.9417 21.8994 20.5353 24.9858 20.5353 25.9442C20.5359 26.5314 20.7695 27.0944 21.1848 27.5097ZM25.6822 18.125C26.2791 17.74 26.7938 17.2404 27.1964 16.6552C28.0182 15.4677 28.3292 14.0306 28.07 12.6098C27.8108 11.189 27.0146 9.95378 25.8268 9.13202C24.8905 8.48402 23.8188 8.17298 22.758 8.17298C21.0412 8.17298 19.3522 8.9861 18.3036 10.5013C16.6073 12.9531 17.222 16.3282 19.6732 18.0245C20.861 18.8463 22.2975 19.157 23.7186 18.8981C24.4178 18.7727 25.0852 18.51 25.6822 18.125Z" fill="currentColor"></path>
  </symbol>
  <symbol fill="none" xmlns="http://www.w3.org/2000/svg" viewBox="0 0 32 32" id="ic_category5">
    <path fill-rule="evenodd" clip-rule="evenodd" d="M13.8711 27.1341V23.2554C13.8711 22.056 14.847 21.0801 16.0464 21.0801C17.2457 21.0801 18.2216 22.056 18.2216 23.2554V27.1341C18.2216 28.3338 17.2457 29.3094 16.0464 29.3094C14.847 29.3094 13.8711 28.3338 13.8711 27.1341ZM17.4215 27.1341V23.2554C17.4215 22.497 16.8047 21.8802 16.0464 21.8802C15.2883 21.8802 14.6712 22.497 14.6712 23.2554V27.1341C14.6712 27.8925 15.2883 28.5096 16.0464 28.5096C16.8047 28.5096 17.4215 27.8925 17.4215 27.1341Z" fill="currentColor"></path>
    <path fill-rule="evenodd" clip-rule="evenodd" d="M4.60633 8.35474C4.895 8.20029 5.21976 8.10474 5.56913 8.10474C6.70412 8.10474 7.62756 9.02802 7.62756 10.1629C7.62756 10.3189 7.60677 10.4693 7.57381 10.6152C7.59666 10.6129 7.61925 10.6098 7.64181 10.6068C7.68767 10.6006 7.73342 10.5944 7.78107 10.5944C8.91598 10.5944 9.83918 11.5179 9.83918 12.6528C9.83918 12.781 9.82387 12.9058 9.80137 13.0276C9.92309 13.005 10.0479 12.9898 10.1764 12.9898C11.3114 12.9898 12.2348 13.9132 12.2348 15.0481C12.2348 15.3692 12.1542 15.6695 12.0227 15.9405C13.3005 16.8425 14.6458 17.6449 16.0467 18.3404C17.4476 17.6449 18.7929 16.8425 20.0707 15.9405C19.9392 15.6695 19.8589 15.3692 19.8589 15.0481C19.8589 13.9132 20.7824 12.9898 21.9174 12.9898C22.0455 12.9898 22.1703 13.0049 22.2924 13.0276C22.2695 12.9058 22.2542 12.781 22.2542 12.6528C22.2542 11.5178 23.1777 10.5944 24.3126 10.5944C24.3602 10.5944 24.4061 10.6006 24.452 10.6068C24.4744 10.6099 24.4969 10.6129 24.5195 10.6152C24.4866 10.4693 24.4658 10.3189 24.4658 10.1629C24.4658 9.02802 25.3893 8.10482 26.5242 8.10482C26.8739 8.10482 27.1983 8.20037 27.487 8.35474C30.3843 4.05821 31.2479 0.350037 31.2565 0.312537C31.305 0.0970701 31.5202 -0.0387101 31.7345 0.0101177C31.7857 0.0216148 31.8342 0.0430892 31.8771 0.0733142C31.92 0.103539 31.9565 0.141923 31.9846 0.186272C32.0127 0.230621 32.0317 0.280067 32.0407 0.331786C32.0497 0.383504 32.0483 0.436482 32.0368 0.487692C32.0011 0.647925 31.1293 4.41133 28.1087 8.86521C28.4001 9.22044 28.5826 9.66848 28.5826 10.1629C28.5826 11.2978 27.6591 12.2213 26.5242 12.2213C26.4771 12.2213 26.4316 12.2151 26.386 12.2088C26.3631 12.2057 26.3401 12.2025 26.3169 12.2002C26.3502 12.3464 26.371 12.4968 26.371 12.6528C26.371 13.7878 25.4476 14.7112 24.3126 14.7112C24.1842 14.7112 24.0594 14.6956 23.9375 14.6731C23.9602 14.7951 23.9754 14.9196 23.9754 15.0481C23.9754 16.183 23.0522 17.1065 21.9174 17.1065C21.3924 17.1065 20.9182 16.9029 20.5541 16.5785C19.5231 17.3091 18.4484 17.9761 17.336 18.5756C19.2779 19.1365 20.703 20.9266 20.703 23.0467V27.3435C20.703 29.9112 18.6144 31.9999 16.0467 31.9999C13.4792 31.9999 11.3903 29.9112 11.3903 27.3435V23.0467C11.3903 20.9266 12.8158 19.1365 14.7573 18.5756C13.645 17.9761 12.5703 17.3091 11.5392 16.5785C11.1752 16.9029 10.701 17.1065 10.1764 17.1065C9.04137 17.1065 8.11794 16.183 8.11794 15.0481C8.11794 14.9196 8.13357 14.7951 8.15607 14.673C8.03404 14.6956 7.90951 14.7112 7.78107 14.7112C6.64608 14.7112 5.72265 13.7877 5.72265 12.6528C5.72265 12.4968 5.74343 12.3464 5.7764 12.2002C5.75345 12.2025 5.7307 12.2056 5.70794 12.2088C5.66228 12.215 5.61658 12.2213 5.56913 12.2213C4.43422 12.2213 3.51079 11.2978 3.51079 10.1629C3.51079 9.66841 3.69329 9.22044 3.985 8.86529C0.964324 4.41126 0.092455 0.647847 0.0565178 0.487614C0.0333791 0.384143 0.0522682 0.275718 0.109034 0.186167C0.1658 0.0966155 0.255798 0.0332659 0.35925 0.0100395C0.573467 -0.0391007 0.788309 0.096992 0.837137 0.312459C0.845418 0.349959 1.70932 4.05806 4.60633 8.35474ZM5.56913 8.90458C4.87515 8.90458 4.31094 9.46919 4.31094 10.1629C4.31094 10.8568 4.87515 11.421 5.56913 11.421C6.26311 11.421 6.82772 10.8568 6.82772 10.1629C6.82772 9.46919 6.26311 8.90458 5.56913 8.90458ZM19.9032 27.3435V23.0467C19.9032 20.9201 18.1732 19.1902 16.0467 19.1902C13.9202 19.1902 12.1902 20.9202 12.1902 23.0467V27.3435C12.1902 29.4701 13.9203 31.2 16.0467 31.2C18.1731 31.2 19.9032 29.47 19.9032 27.3435ZM27.7824 10.1629C27.7824 9.46919 27.2182 8.90458 26.5242 8.90458C25.8302 8.90458 25.2656 9.46919 25.2656 10.1629C25.2656 10.8568 25.8302 11.421 26.5242 11.421C27.2182 11.421 27.7824 10.8568 27.7824 10.1629ZM25.5709 12.6528C25.5709 11.9588 25.0066 11.3943 24.3126 11.3943C23.6186 11.3943 23.0544 11.9588 23.0544 12.6528C23.0544 13.3467 23.6186 13.911 24.3126 13.911C25.0066 13.911 25.5709 13.3467 25.5709 12.6528ZM23.1756 15.0481C23.1756 14.3541 22.611 13.7899 21.9173 13.7899C21.2233 13.7899 20.6587 14.3541 20.6587 15.0481C20.6587 15.7417 21.2233 16.3063 21.9173 16.3063C22.611 16.3063 23.1756 15.7418 23.1756 15.0481ZM10.1764 16.3063C10.8703 16.3063 11.4346 15.7418 11.4346 15.0481C11.4346 14.3541 10.8703 13.7899 10.1764 13.7899C9.48239 13.7899 8.91809 14.3541 8.91809 15.0481C8.91809 15.7417 9.48239 16.3063 10.1764 16.3063ZM7.78107 13.911C8.47474 13.911 9.03926 13.3467 9.03926 12.6528C9.03926 11.9588 8.47474 11.3942 7.78107 11.3942C7.08709 11.3942 6.52249 11.9588 6.52249 12.6528C6.52249 13.3467 7.08709 13.911 7.78107 13.911Z" fill="currentColor"></path>
  </symbol>
  <symbol fill="none" xmlns="http://www.w3.org/2000/svg" viewBox="0 0 32 32" id="ic_category6">
    <path d="M5.07922 18.1711C4.67363 18.4121 4.35669 18.7776 4.17554 19.2133C4.06358 19.4799 4.00576 19.7662 4.00543 20.0553C4.0051 20.3445 4.06227 20.6309 4.17362 20.8978C4.28359 21.1651 4.44564 21.408 4.65034 21.6121C4.85503 21.8162 5.09828 21.9776 5.36594 22.0869C5.6324 22.1971 5.9179 22.254 6.20626 22.2543C6.38578 22.2543 6.56498 22.2296 6.7413 22.1851C6.45897 22.5629 6.30621 23.0217 6.30578 23.4933C6.30424 23.7824 6.36027 24.069 6.47058 24.3363C6.5809 24.6036 6.74331 24.8462 6.94834 25.0501C7.15205 25.254 7.39406 25.4157 7.66046 25.5258C7.92686 25.6359 8.2124 25.6923 8.50066 25.6917C8.97379 25.6914 9.43425 25.5388 9.81394 25.2565C9.55282 26.2978 10.0827 27.4031 11.1007 27.8248C11.3714 27.9368 11.6555 27.9928 11.9397 27.9928C12.2299 27.9926 12.5171 27.9348 12.7848 27.8229C13.2205 27.6418 13.586 27.3248 13.8271 26.9192C13.9851 27.9813 14.8975 28.7992 15.9992 28.7992C17.101 28.7992 18.0133 27.9813 18.1714 26.9192C18.4124 27.3248 18.7779 27.6418 19.2136 27.8229C19.4812 27.9348 19.7684 27.9925 20.0584 27.9928C20.3426 27.9928 20.6271 27.9368 20.8978 27.8248C21.9157 27.4031 22.4456 26.2978 22.1845 25.2562C22.5642 25.5385 23.0246 25.6911 23.4978 25.6914C23.786 25.692 24.0715 25.6356 24.3379 25.5256C24.6043 25.4155 24.8463 25.2539 25.0501 25.0501C25.2551 24.8462 25.4175 24.6036 25.5278 24.3363C25.6382 24.069 25.6942 23.7824 25.6927 23.4933C25.6922 23.0217 25.5395 22.5629 25.2571 22.1851C25.4331 22.2296 25.6123 22.2543 25.7925 22.2543C26.0773 22.2543 26.3618 22.1986 26.6325 22.0869C27.1765 21.8629 27.6002 21.4405 27.8248 20.8978C27.9362 20.6309 27.9933 20.3445 27.993 20.0553C27.9927 19.7662 27.9348 19.4799 27.8229 19.2133C27.6417 18.7776 27.3248 18.4121 26.9192 18.1711C27.9813 18.0133 28.7992 17.101 28.7992 15.9992C28.7992 14.8975 27.9813 13.9851 26.9192 13.8274C27.3248 13.5863 27.6417 13.2208 27.8229 12.7851C27.9348 12.5185 27.9927 12.2323 27.993 11.9431C27.9933 11.6539 27.9362 11.3675 27.8248 11.1007C27.7148 10.8333 27.5528 10.5905 27.3481 10.3863C27.1434 10.1822 26.9001 10.0208 26.6325 9.91154C26.1966 9.73165 25.7142 9.6972 25.2571 9.8133C25.5395 9.43556 25.6922 8.97673 25.6927 8.50514C25.6942 8.21599 25.6382 7.92943 25.5278 7.66215C25.4175 7.39488 25.2551 7.15222 25.0501 6.94834C24.2706 6.16882 23.0469 6.10258 22.1845 6.74226C22.4456 5.70066 21.9157 4.59506 20.8978 4.17362C20.631 4.06221 20.3446 4.005 20.0555 4.00533C19.7664 4.00566 19.4802 4.06352 19.2136 4.17554C18.7779 4.35665 18.4124 4.6736 18.1714 5.07922C18.0133 4.01714 17.101 3.19922 15.9992 3.19922C14.8975 3.19922 13.9851 4.01714 13.8271 5.07922C13.586 4.6736 13.2205 4.35665 12.7848 4.17554C12.5182 4.06364 12.232 4.00585 11.9429 4.00552C11.6538 4.00519 11.3675 4.06233 11.1007 4.17362C10.0827 4.59538 9.55282 5.70066 9.81394 6.74226C8.95218 6.1029 7.72818 6.16914 6.94834 6.94834C6.74331 7.15222 6.5809 7.39488 6.47058 7.66215C6.36027 7.92943 6.30424 8.21599 6.30578 8.50514C6.30621 8.97673 6.45897 9.43556 6.7413 9.8133C6.28422 9.69717 5.80187 9.73163 5.36594 9.91154C4.82194 10.1355 4.39826 10.5579 4.17362 11.1007C4.06227 11.3675 4.0051 11.6539 4.00543 11.9431C4.00576 12.2323 4.06358 12.5185 4.17554 12.7851C4.35669 13.2208 4.67363 13.5863 5.07922 13.8274C4.01714 13.9851 3.19922 14.8975 3.19922 15.9992C3.19922 17.101 4.01714 18.0133 5.07922 18.1711ZM7.9797 10.6408C8.34753 10.7345 8.73339 10.7308 9.0994 10.6303C9.46541 10.5298 9.79898 10.3358 10.0674 10.0674C10.2724 9.86349 10.4348 9.62084 10.5451 9.35356C10.6554 9.08628 10.7115 8.79972 10.7099 8.51058C10.7089 8.33274 10.6865 8.15568 10.6431 7.98322C11.0208 8.26445 11.479 8.41659 11.9499 8.41714C12.2341 8.41714 12.5183 8.36082 12.789 8.24882C13.14 8.10457 13.4473 7.8712 13.6805 7.57179C13.9137 7.27237 14.0647 6.91728 14.1186 6.54162C14.5042 7.18098 15.2018 7.61042 15.9992 7.61042C16.7967 7.61042 17.4943 7.18098 17.8799 6.54162C17.9337 6.91728 18.0848 7.27237 18.3179 7.57179C18.5511 7.8712 18.8584 8.10457 19.2095 8.24882C19.4802 8.36082 19.7643 8.41714 20.0485 8.41714C20.5194 8.41659 20.9776 8.26445 21.3554 7.98322C21.312 8.15568 21.2895 8.33274 21.2885 8.51058C21.287 8.79972 21.343 9.08628 21.4533 9.35356C21.5636 9.62084 21.726 9.86349 21.9311 10.0674C22.1994 10.3358 22.533 10.5298 22.899 10.6304C23.265 10.7309 23.6509 10.7345 24.0187 10.6408C23.5746 11.2415 23.444 12.0514 23.7496 12.789C23.8952 13.1391 24.1288 13.4456 24.4278 13.6787C24.7269 13.9118 25.0811 14.0635 25.4562 14.1192C24.8175 14.5048 24.3883 15.2021 24.3883 15.9992C24.3883 16.7976 24.8187 17.4955 25.4587 17.8808C24.7199 17.9919 24.0549 18.4722 23.7496 19.2095C23.444 19.9471 23.5746 20.757 24.0187 21.3579C23.2939 21.1775 22.4959 21.3666 21.9311 21.9311C21.726 22.1349 21.5636 22.3776 21.4533 22.6449C21.343 22.9121 21.287 23.1987 21.2885 23.4879C21.2888 23.668 21.3131 23.8443 21.3554 24.0152C21.2126 23.9092 21.0575 23.8208 20.8936 23.7519C20.6271 23.6398 20.3409 23.5819 20.0518 23.5815C19.7626 23.5811 19.4763 23.6383 19.2095 23.7496C18.8584 23.8939 18.5511 24.1272 18.3179 24.4266C18.0848 24.7261 17.9337 25.0812 17.8799 25.4568C17.4943 24.8175 16.7967 24.388 15.9992 24.388C15.2018 24.388 14.5042 24.8175 14.1186 25.4568C14.0647 25.0811 13.9136 24.726 13.6804 24.4266C13.4471 24.1272 13.1397 23.8938 12.7887 23.7496C12.5219 23.6382 12.2356 23.5811 11.9465 23.5814C11.6574 23.5818 11.3713 23.6398 11.1048 23.7519C10.9384 23.821 10.7848 23.9109 10.6431 24.0152C10.6865 23.8428 10.7089 23.6657 10.7099 23.4879C10.7115 23.1987 10.6554 22.9121 10.5451 22.6449C10.4348 22.3776 10.2724 22.1349 10.0674 21.9311C9.5029 21.3666 8.70482 21.1775 7.9797 21.3576C8.42386 20.7567 8.5541 19.9471 8.24882 19.2095C7.94322 18.4719 7.27826 17.9919 6.53938 17.8811C7.17938 17.4959 7.6101 16.7976 7.6101 15.9992C7.6101 15.2021 7.18098 14.5048 6.54226 14.1192C6.91728 14.0635 7.2715 13.9117 7.57053 13.6786C7.86955 13.4455 8.10321 13.139 8.24882 12.789C8.5541 12.0514 8.42386 11.2415 7.98002 10.6408H7.9797ZM5.60946 21.4952C5.4198 21.4178 5.24744 21.3035 5.1024 21.1588C4.95737 21.0142 4.84256 20.8421 4.76466 20.6527C4.68576 20.4636 4.64527 20.2607 4.64555 20.0559C4.64582 19.851 4.68686 19.6482 4.76626 19.4594C4.84496 19.2694 4.96046 19.0969 5.10611 18.9517C5.25175 18.8066 5.42467 18.6917 5.6149 18.6136C5.80424 18.5346 6.0073 18.4937 6.21246 18.4932C6.41763 18.4927 6.62087 18.5327 6.81059 18.6108C7.00031 18.6889 7.17278 18.8036 7.31814 18.9484C7.46351 19.0932 7.57892 19.2652 7.65778 19.4546C7.98642 20.2485 7.6053 21.1634 6.80754 21.4933C6.6178 21.5725 6.41429 21.6134 6.20869 21.6138C6.00309 21.6141 5.79944 21.5738 5.60946 21.4952ZM7.40082 24.5976C7.25557 24.4531 7.14054 24.2812 7.06241 24.0918C6.98429 23.9025 6.94464 23.6994 6.94578 23.4946C6.9457 23.2889 6.98632 23.0853 7.0653 22.8955C7.14427 22.7056 7.26004 22.5332 7.40594 22.3883C7.55143 22.2426 7.72428 22.127 7.91456 22.0483C8.10484 21.9695 8.3088 21.9292 8.51474 21.9295C8.91346 21.9295 9.31154 22.0808 9.6149 22.3839C9.7601 22.5283 9.87512 22.7002 9.95324 22.8895C10.0314 23.0788 10.071 23.2818 10.0699 23.4866C10.07 23.6922 10.0294 23.8958 9.95042 24.0857C9.87144 24.2755 9.75567 24.4479 9.60978 24.5928C8.99986 25.2031 8.00882 25.2053 7.40082 24.5976ZM13.3848 26.3835C13.3068 26.5737 13.1919 26.7466 13.0467 26.8922C12.9015 27.0378 12.729 27.1532 12.5391 27.2319C12.3502 27.3113 12.1475 27.3524 11.9426 27.3527C11.7377 27.353 11.5348 27.3124 11.3458 27.2335C10.5519 26.9048 10.1746 25.9883 10.5048 25.1909C10.5829 25.0007 10.6979 24.8278 10.8431 24.6822C10.9883 24.5366 11.1609 24.4212 11.3509 24.3426C11.5397 24.2632 11.7424 24.2222 11.9472 24.2219C12.152 24.2215 12.3548 24.2619 12.5439 24.3407C12.7333 24.4186 12.9053 24.5334 13.05 24.6784C13.1946 24.8234 13.309 24.9958 13.3864 25.1855C13.4652 25.3754 13.5056 25.579 13.5053 25.7847C13.505 25.9903 13.4641 26.1938 13.3848 26.3835ZM15.9992 28.1592C15.1397 28.1592 14.4405 27.4568 14.4405 26.5935C14.4405 25.7301 15.1397 25.028 15.9992 25.028C16.8587 25.028 17.5579 25.7304 17.5579 26.5935C17.5579 27.4565 16.8587 28.1592 15.9992 28.1592ZM20.6527 27.2335C20.4636 27.3123 20.2607 27.3528 20.0559 27.3526C19.851 27.3523 19.6482 27.3113 19.4594 27.2319C19.0741 27.0715 18.7736 26.7701 18.6136 26.3839C18.4536 25.9976 18.453 25.5717 18.612 25.1858C18.6894 24.9961 18.8038 24.8238 18.9484 24.6787C19.0931 24.5337 19.2651 24.4189 19.4546 24.341C19.6437 24.2624 19.8465 24.2221 20.0512 24.2224C20.256 24.2226 20.4587 24.2635 20.6475 24.3426C20.8375 24.4211 21.0101 24.5365 21.1553 24.682C21.3005 24.8276 21.4155 25.0004 21.4936 25.1906C21.8239 25.9883 21.4466 26.9048 20.6527 27.2335ZM24.5976 24.5976C23.9893 25.2056 22.9983 25.2024 22.3887 24.5928C22.2428 24.4479 22.127 24.2755 22.048 24.0857C21.969 23.8958 21.9284 23.6922 21.9285 23.4866C21.9274 23.2817 21.967 23.0787 22.0451 22.8893C22.1233 22.6999 22.2383 22.528 22.3835 22.3835C22.5279 22.239 22.6995 22.1245 22.8883 22.0465C23.0771 21.9686 23.2794 21.9287 23.4837 21.9291C23.885 21.9291 24.2869 22.0827 24.5925 22.3883C24.7384 22.5332 24.8542 22.7056 24.9331 22.8955C25.0121 23.0853 25.0527 23.2889 25.0527 23.4946C25.0538 23.6994 25.0141 23.9025 24.936 24.0918C24.8579 24.2812 24.7429 24.4531 24.5976 24.5976ZM27.2335 20.6527C27.1556 20.8421 27.0407 21.0142 26.8957 21.1588C26.7507 21.3035 26.5783 21.4178 26.3887 21.4952C26.1987 21.5738 25.9951 21.6141 25.7896 21.6138C25.584 21.6135 25.3806 21.5725 25.1909 21.4933C24.3931 21.1631 24.012 20.2485 24.3407 19.4546C24.4195 19.2652 24.5349 19.0932 24.6803 18.9484C24.8257 18.8036 24.9981 18.6889 25.1878 18.6108C25.3776 18.5327 25.5808 18.4927 25.786 18.4932C25.9911 18.4937 26.1942 18.5346 26.3835 18.6136C26.5738 18.6917 26.7467 18.8066 26.8923 18.9517C27.038 19.0969 27.1535 19.2694 27.2322 19.4594C27.3115 19.6482 27.3525 19.851 27.3527 20.0559C27.3529 20.2607 27.3124 20.4636 27.2335 20.6527ZM28.1592 15.9992C28.1592 16.8587 27.4571 17.5576 26.5935 17.5576C25.7304 17.5576 25.0283 16.8587 25.0283 15.9992C25.0283 15.1397 25.7304 14.4408 26.5935 14.4408C27.4571 14.4408 28.1592 15.1394 28.1592 15.9992ZM25.7925 10.3845C25.9944 10.3845 26.1963 10.4242 26.389 10.5032C26.5786 10.5806 26.751 10.695 26.896 10.8396C27.0411 10.9843 27.1559 11.1563 27.2338 11.3458C27.3127 11.5348 27.3532 11.7377 27.3529 11.9426C27.3526 12.1474 27.3116 12.3502 27.2322 12.5391C27.1535 12.729 27.038 12.9015 26.8923 13.0467C26.7467 13.1918 26.5738 13.3068 26.3835 13.3848C25.5861 13.716 24.6696 13.3378 24.3407 12.5439C24.012 11.7499 24.3931 10.8351 25.1909 10.5051C25.3815 10.4258 25.586 10.3848 25.7925 10.3845ZM23.4978 6.94642C23.8965 6.94642 24.2946 7.0981 24.5976 7.40082C24.7429 7.54528 24.8579 7.71722 24.936 7.90659C25.0141 8.09597 25.0538 8.299 25.0527 8.50386C25.0527 8.70949 25.0121 8.9131 24.9331 9.10297C24.8542 9.29283 24.7384 9.46518 24.5925 9.6101C23.9826 10.2203 22.9919 10.2226 22.3835 9.6149C22.2383 9.47043 22.1233 9.2985 22.0451 9.10912C21.967 8.91974 21.9274 8.71671 21.9285 8.51186C21.9284 8.30622 21.969 8.10261 22.048 7.91275C22.127 7.72289 22.2428 7.55053 22.3887 7.40562C22.5342 7.25978 22.707 7.14414 22.8974 7.06533C23.0877 6.98653 23.2918 6.94612 23.4978 6.94642ZM18.6136 5.61522C18.6917 5.42502 18.8066 5.25214 18.9517 5.10655C19.0969 4.96096 19.2694 4.84552 19.4594 4.7669C19.6492 4.68744 19.8529 4.64644 20.0587 4.64626C20.2597 4.64626 20.461 4.68594 20.6527 4.7653C21.4466 5.09394 21.8239 6.01042 21.4936 6.80786C21.4155 6.99809 21.3006 7.17098 21.1554 7.31658C21.0101 7.46217 20.8376 7.57759 20.6475 7.65618C20.4588 7.73567 20.2561 7.77678 20.0512 7.77711C19.8464 7.77744 19.6436 7.73699 19.4546 7.6581C19.2651 7.58018 19.0931 7.46537 18.9484 7.32033C18.8038 7.1753 18.6894 7.00294 18.612 6.8133C18.5333 6.62336 18.4929 6.41972 18.4931 6.2141C18.4934 6.00848 18.5344 5.80495 18.6136 5.61522ZM15.9992 3.83922C16.8587 3.83922 17.5579 4.54162 17.5579 5.40498C17.5579 6.26834 16.8587 6.97042 15.9992 6.97042C15.1397 6.97042 14.4405 6.26802 14.4405 5.40498C14.4405 4.54194 15.1397 3.83922 15.9992 3.83922ZM11.3458 4.76498C11.534 4.68661 11.7358 4.64616 11.9397 4.64594C12.1426 4.64594 12.3458 4.68594 12.5391 4.76658C12.9243 4.9269 13.2248 5.22834 13.3848 5.61458C13.5448 6.00082 13.5455 6.42674 13.3864 6.81266C13.309 7.0023 13.1946 7.17466 13.05 7.31969C12.9053 7.46473 12.7333 7.57954 12.5439 7.65746C12.3548 7.73631 12.152 7.77677 11.9472 7.7765C11.7424 7.77623 11.5397 7.73522 11.3509 7.65586C11.1609 7.57731 10.9883 7.46194 10.8431 7.3164C10.6979 7.17086 10.5829 6.99803 10.5048 6.80786C10.1746 6.0101 10.5519 5.09362 11.3458 4.76498ZM7.40082 7.40082C7.54518 7.25637 7.71666 7.14187 7.90541 7.06389C8.09415 6.98591 8.29644 6.94599 8.50066 6.94642C8.90194 6.94642 9.30386 7.0997 9.60978 7.40562C9.75567 7.55053 9.87144 7.72289 9.95042 7.91275C10.0294 8.10261 10.07 8.30622 10.0699 8.51186C10.0711 8.71671 10.0314 8.91974 9.9533 9.10912C9.87518 9.2985 9.76014 9.47043 9.6149 9.6149C9.00626 10.2226 8.01554 10.2197 7.40594 9.6101C7.26004 9.46518 7.14427 9.29283 7.0653 9.10297C6.98632 8.9131 6.9457 8.70949 6.94578 8.50386C6.94464 8.299 6.98429 8.09597 7.06241 7.90659C7.14054 7.71722 7.25557 7.54528 7.40082 7.40082ZM4.76498 11.3458C4.84288 11.1563 4.95769 10.9843 5.10272 10.8396C5.24776 10.695 5.42012 10.5806 5.60978 10.5032C5.79977 10.4248 6.00333 10.3847 6.20885 10.385C6.41436 10.3853 6.6178 10.4262 6.80754 10.5051C7.6053 10.8354 7.98642 11.7499 7.65778 12.5439C7.32882 13.3375 6.41266 13.7157 5.6149 13.3848C5.42467 13.3068 5.25175 13.1918 5.10611 13.0467C4.96046 12.9015 4.84496 12.729 4.76626 12.5391C4.68691 12.3502 4.64593 12.1474 4.64571 11.9425C4.64549 11.7377 4.68603 11.5348 4.76498 11.3458ZM5.40498 14.4405C6.26802 14.4405 6.9701 15.1397 6.9701 15.9992C6.9701 16.8587 6.26802 17.5576 5.40498 17.5576C4.5413 17.5576 3.83922 16.8591 3.83922 15.9992C3.83922 15.1394 4.5413 14.4405 5.40498 14.4405Z" fill="currentColor"></path>
  </symbol>
  <symbol fill="none" xmlns="http://www.w3.org/2000/svg" viewBox="0 0 32 32" id="ic_category7">
    <path d="M3.32506 29H28.675C28.7177 29 28.76 28.9916 28.7994 28.9752C28.8388 28.9589 28.8747 28.9349 28.9048 28.9047C28.935 28.8746 28.959 28.8387 28.9753 28.7993C28.9916 28.7598 29 28.7176 29 28.6749V7.38754C29 7.34486 28.9916 7.30258 28.9753 7.26314C28.959 7.2237 28.935 7.18786 28.9049 7.15767C28.8747 7.12749 28.8388 7.10354 28.7994 7.08721C28.76 7.07087 28.7177 7.06247 28.675 7.06248H21.7542C20.981 4.71011 18.6943 3 16 3C13.3055 3 11.0191 4.71011 10.2455 7.06248H3.325C3.28231 7.06245 3.24002 7.07083 3.20057 7.08716C3.16112 7.10348 3.12528 7.12743 3.09509 7.15762C3.06491 7.18781 3.04097 7.22366 3.02465 7.26311C3.00834 7.30256 2.99996 7.34485 3 7.38754V28.6749C2.99999 28.7176 3.00839 28.7599 3.02473 28.7993C3.04106 28.8388 3.06501 28.8746 3.09519 28.9048C3.12538 28.935 3.16122 28.9589 3.20066 28.9752C3.2401 28.9916 3.28238 29 3.32506 29ZM16 3.64987C18.3276 3.64987 20.3093 5.07586 21.0597 7.06248H10.9403C11.6908 5.07586 13.6725 3.64987 16 3.64987ZM3.64987 7.71235H10.0763C10.0144 8.02129 9.98094 8.3395 9.97225 8.66322C9.21199 8.81176 8.63607 9.48124 8.63607 10.2842C8.63607 11.1957 9.37792 11.9375 10.2894 11.9375C11.2009 11.9375 11.9422 11.1956 11.9422 10.2842C11.9422 9.4867 11.3747 8.8195 10.6221 8.665C10.632 8.33918 10.6705 8.02059 10.7406 7.71235H21.2591C21.3293 8.02059 21.368 8.33918 21.3777 8.665C20.6254 8.8195 20.0578 9.4867 20.0578 10.2842C20.0578 11.1957 20.7992 11.9375 21.7107 11.9375C22.6221 11.9375 23.3638 11.1956 23.3638 10.2842C23.3638 9.48124 22.7878 8.81182 22.0276 8.66329C22.0189 8.33943 21.9854 8.02129 21.9236 7.71241H28.3499V28.3498H3.65L3.64987 7.71235ZM10.2894 9.28117C10.8423 9.28117 11.2923 9.73147 11.2923 10.2841C11.2923 10.8373 10.8423 11.2874 10.2894 11.2874C9.73618 11.2874 9.28613 10.8373 9.28613 10.2842C9.28613 9.73147 9.73618 9.28117 10.2894 9.28117ZM21.7107 9.28117C22.2638 9.28117 22.7139 9.73147 22.7139 10.2841C22.7139 10.8373 22.2638 11.2874 21.7107 11.2874C21.1577 11.2874 20.7077 10.8373 20.7077 10.2842C20.7077 9.73147 21.1577 9.28123 21.7106 9.28123L21.7107 9.28117Z" fill="currentColor"></path>
  </symbol>
  <symbol fill="none" xmlns="http://www.w3.org/2000/svg" viewBox="0 0 20 20" id="ic_category7_2">
    <path d="M2.07816 18.125H17.9219C17.9486 18.125 17.975 18.1197 17.9996 18.1095C18.0243 18.0993 18.0467 18.0843 18.0655 18.0655C18.0844 18.0466 18.0993 18.0242 18.1096 17.9995C18.1198 17.9749 18.125 17.9485 18.125 17.9218V4.61721C18.125 4.59053 18.1198 4.56411 18.1096 4.53946C18.0994 4.51481 18.0844 4.49241 18.0655 4.47355C18.0467 4.45468 18.0243 4.43971 17.9996 4.42951C17.975 4.4193 17.9486 4.41404 17.9219 4.41405H13.5964C13.1131 2.94382 11.6839 1.875 10 1.875C8.31591 1.875 6.88694 2.94382 6.40345 4.41405H2.07812C2.05144 4.41403 2.02501 4.41927 2.00036 4.42947C1.9757 4.43968 1.9533 4.45464 1.93443 4.47351C1.91557 4.49238 1.90061 4.51479 1.89041 4.53944C1.88021 4.5641 1.87497 4.59053 1.875 4.61721V17.9218C1.87499 17.9485 1.88025 17.9749 1.89046 17.9996C1.90066 18.0242 1.91563 18.0466 1.9345 18.0655C1.95336 18.0844 1.97576 18.0993 2.00041 18.1095C2.02506 18.1197 2.05148 18.125 2.07816 18.125ZM10 2.28117C11.4547 2.28117 12.6933 3.17241 13.1623 4.41405H6.83766C7.30676 3.17241 8.54534 2.28117 10 2.28117ZM2.28117 4.82022H6.29772C6.259 5.01331 6.23809 5.21218 6.23266 5.41452C5.75749 5.50735 5.39754 5.92578 5.39754 6.4276C5.39754 6.9973 5.8612 7.46095 6.43086 7.46095C7.00056 7.46095 7.4639 6.99726 7.4639 6.4276C7.4639 5.92919 7.10919 5.51219 6.63882 5.41563C6.64501 5.21199 6.66906 5.01287 6.71289 4.82022H13.2869C13.3308 5.01287 13.355 5.21199 13.3611 5.41563C12.8909 5.51219 12.5361 5.92919 12.5361 6.4276C12.5361 6.9973 12.9995 7.46095 13.5692 7.46095C14.1388 7.46095 14.6024 6.99726 14.6024 6.4276C14.6024 5.92578 14.2423 5.50739 13.7672 5.41455C13.7618 5.21214 13.7409 5.01331 13.7023 4.82026H17.7187V17.7186H2.28125L2.28117 4.82022ZM6.43086 5.80073C6.77641 5.80073 7.05769 6.08217 7.05769 6.42756C7.05769 6.77334 6.77641 7.05462 6.43086 7.05462C6.08511 7.05462 5.80383 6.77334 5.80383 6.4276C5.80383 6.08217 6.08511 5.80073 6.43086 5.80073ZM13.5692 5.80073C13.9149 5.80073 14.1962 6.08217 14.1962 6.42756C14.1962 6.77334 13.9149 7.05462 13.5692 7.05462C13.2236 7.05462 12.9423 6.77334 12.9423 6.4276C12.9423 6.08217 13.2236 5.80073 13.5692 5.80073Z" fill="currentColor"></path>
    <path d="M2.28117 4.82022H6.29772C6.259 5.01331 6.23809 5.21218 6.23266 5.41452C5.75749 5.50735 5.39754 5.92578 5.39754 6.4276C5.39754 6.9973 5.8612 7.46095 6.43086 7.46095C7.00056 7.46095 7.4639 6.99726 7.4639 6.4276C7.4639 5.92919 7.10919 5.51219 6.63882 5.41563C6.64501 5.21199 6.66906 5.01287 6.71289 4.82022H13.2869C13.3308 5.01287 13.355 5.21199 13.3611 5.41563C12.8909 5.51219 12.5361 5.92919 12.5361 6.4276C12.5361 6.9973 12.9995 7.46095 13.5692 7.46095C14.1388 7.46095 14.6024 6.99726 14.6024 6.4276C14.6024 5.92578 14.2423 5.50739 13.7672 5.41455C13.7618 5.21214 13.7409 5.01331 13.7023 4.82026H17.7187V17.7186H2.28125L2.28117 4.82022Z" fill="currentColor"></path>
  </symbol>
  <symbol fill="none" xmlns="http://www.w3.org/2000/svg" viewBox="0 0 20 20" id="ic_category8">
    <path d="M3.76299 12.5835C3.77485 12.612 3.79238 12.636 3.8124 12.6572C3.81436 12.6595 3.81509 12.6625 3.81719 12.6646L7.33379 16.1812L7.33472 16.1822L7.33545 16.1829C7.35625 16.2037 7.38125 16.2186 7.40723 16.2308C7.41079 16.2325 7.41289 16.2355 7.4165 16.2371C7.44681 16.2497 7.4793 16.2562 7.51211 16.2562H12.488C12.5198 16.2562 12.5521 16.25 12.5835 16.2371C12.5872 16.2355 12.5893 16.2325 12.5927 16.2308C12.6188 16.2186 12.6438 16.2037 12.6646 16.1829L12.6652 16.1821L12.6663 16.1812L16.1827 12.6646C16.1848 12.6625 16.1855 12.6595 16.1876 12.6572C16.2075 12.636 16.225 12.612 16.2369 12.5835C16.2495 12.5534 16.2559 12.521 16.2559 12.4878V7.5123C16.2559 7.47946 16.2495 7.44692 16.2369 7.41657C16.2244 7.38622 16.2059 7.35866 16.1827 7.33545L16.1815 7.33433C16.1815 7.33413 16.1814 7.33413 16.1814 7.33413L12.6663 3.8189C12.666 3.81852 12.6656 3.81819 12.6652 3.81792L12.6646 3.81719C12.6438 3.79639 12.6188 3.7813 12.5927 3.76909C12.5893 3.76763 12.5872 3.76436 12.5835 3.76299C12.5828 3.76265 12.582 3.76279 12.5813 3.76245C12.5516 3.75034 12.5198 3.74404 12.4878 3.7439H7.5123C7.47983 3.7439 7.44819 3.75059 7.4188 3.76245C7.41807 3.76279 7.41733 3.76265 7.41655 3.76299C7.41289 3.76436 7.41079 3.76758 7.40718 3.76909C7.38125 3.7813 7.35625 3.79639 7.33545 3.81719L7.33472 3.81792C7.33433 3.81812 7.33413 3.81851 7.33374 3.8189L3.8189 7.33374C3.8187 7.33413 3.81831 7.33433 3.81812 7.33472L3.81714 7.33545C3.77026 7.38237 3.74392 7.44598 3.7439 7.5123V12.4878C3.7439 12.521 3.75059 12.5534 3.76299 12.5835ZM7.42437 4.43516L8.40566 6.80444L6.80444 8.40586L4.4353 7.42437L7.42437 4.43516ZM15.5647 7.42437L13.1956 8.40586L11.5944 6.80444L12.5755 4.43516L15.5647 7.42437ZM15.7561 12.1136L13.3869 11.1322V8.86768L15.7561 7.88638V12.1136ZM12.5755 15.5647L11.5944 13.1956L13.1956 11.5942L15.5647 12.5755L12.5755 15.5647ZM4.43535 12.5755L6.80449 11.5942L8.40566 13.1956L7.42437 15.5647L4.43535 12.5755ZM8.80415 7.11309H11.1959L12.887 8.80415V11.1958L11.1959 12.887H8.80415L7.11309 11.1958V8.80415L8.80415 7.11309ZM8.86763 13.3869H11.1324L12.1136 15.7561H7.88633L8.86763 13.3869ZM11.1324 6.61299H8.86768L7.88638 4.24385H12.1136L11.1324 6.61299ZM6.61299 8.86763V11.1323L4.24404 12.1136V7.88633L6.61299 8.86763ZM10.2501 1.79175V0.250049C10.2501 0.111816 10.1381 0 10 0C9.86187 0 9.74995 0.111816 9.74995 0.250049V1.79175C9.74995 1.85807 9.7763 1.92167 9.82319 1.96856C9.87008 2.01545 9.93368 2.0418 10 2.0418C10.0663 2.0418 10.1299 2.01545 10.1768 1.96856C10.2237 1.92167 10.2501 1.85807 10.2501 1.79175ZM5.89619 3.14141C5.94005 3.14136 5.98313 3.12977 6.0211 3.10781C6.05907 3.08585 6.09059 3.05429 6.11251 3.0163C6.13442 2.9783 6.14596 2.93521 6.14596 2.89135C6.14596 2.84749 6.13442 2.8044 6.1125 2.76641L5.3415 1.4311C5.32509 1.40266 5.30324 1.37772 5.27718 1.35772C5.25113 1.33772 5.2214 1.32305 5.18967 1.31455C5.15795 1.30605 5.12486 1.30388 5.0923 1.30817C5.05974 1.31246 5.02834 1.32312 4.9999 1.33955C4.94251 1.37275 4.90063 1.42737 4.88347 1.49141C4.8663 1.55546 4.87525 1.6237 4.90835 1.68115L5.67935 3.01626C5.70126 3.05436 5.73285 3.086 5.77092 3.10797C5.80899 3.12995 5.85224 3.14148 5.89619 3.14141ZM3.01626 5.67915L1.6813 4.90835C1.65286 4.89193 1.62146 4.88128 1.5889 4.87699C1.55634 4.87271 1.52326 4.87488 1.49154 4.88338C1.45982 4.89188 1.43008 4.90655 1.40403 4.92654C1.37798 4.94653 1.35612 4.97146 1.3397 4.9999C1.32328 5.02834 1.31262 5.05974 1.30834 5.0923C1.30405 5.12486 1.30622 5.15794 1.31473 5.18966C1.32323 5.22139 1.33789 5.25112 1.35789 5.27717C1.37788 5.30323 1.40281 5.32509 1.43125 5.3415L2.76641 6.1123C2.82385 6.14544 2.8921 6.1544 2.95614 6.13721C3.02018 6.12002 3.07478 6.07809 3.10791 6.02065C3.14104 5.96321 3.15 5.89497 3.13281 5.83092C3.11562 5.76688 3.0737 5.71228 3.01626 5.67915ZM0.250049 10.2501H1.79155C1.85787 10.2501 1.92147 10.2238 1.96836 10.1769C2.01526 10.13 2.0416 10.0664 2.0416 10C2.0416 9.93373 2.01526 9.87013 1.96836 9.82324C1.92147 9.77634 1.85787 9.75 1.79155 9.75H0.250049C0.183732 9.75 0.120131 9.77634 0.0732376 9.82324C0.0263444 9.87013 0 9.93373 0 10C0 10.0664 0.0263444 10.13 0.0732376 10.1769C0.120131 10.2238 0.183732 10.2501 0.250049 10.2501ZM2.76641 13.8878L1.4313 14.6583C1.38361 14.6859 1.34635 14.7284 1.32529 14.7793C1.30423 14.8302 1.30055 14.8866 1.31483 14.9398C1.32911 14.993 1.36055 15.04 1.40426 15.0735C1.44797 15.107 1.50152 15.1251 1.55659 15.1251C1.59893 15.1251 1.64185 15.1142 1.68135 15.0915L3.01631 14.3208C3.04476 14.3044 3.06969 14.2825 3.08969 14.2565C3.10969 14.2305 3.12436 14.2007 3.13286 14.169C3.14136 14.1373 3.14352 14.1042 3.13922 14.0717C3.13492 14.0391 3.12425 14.0078 3.10781 13.9793C3.09146 13.9509 3.06964 13.9259 3.04361 13.9059C3.01758 13.8858 2.98785 13.8712 2.95613 13.8626C2.92441 13.8541 2.89132 13.852 2.85876 13.8563C2.8262 13.8606 2.79482 13.8713 2.76641 13.8878ZM4.9999 18.6604C5.03782 18.6823 5.08085 18.6939 5.12466 18.6939C5.16862 18.694 5.21181 18.6824 5.24989 18.6605C5.28797 18.6385 5.31958 18.6069 5.34155 18.5688L6.1125 17.2336C6.1456 17.1762 6.15455 17.1079 6.13738 17.0439C6.12022 16.9799 6.07834 16.9252 6.02095 16.892C5.99251 16.8756 5.96112 16.8649 5.92855 16.8606C5.89598 16.8563 5.86289 16.8585 5.83116 16.867C5.79943 16.8755 5.76969 16.8902 5.74364 16.9102C5.71759 16.9302 5.69574 16.9551 5.67935 16.9836L4.90835 18.3189C4.87525 18.3764 4.86629 18.4446 4.88346 18.5086C4.90063 18.5726 4.94251 18.6272 4.9999 18.6604ZM9.75 18.2083V19.75C9.75 19.8163 9.77634 19.8799 9.82324 19.9268C9.87013 19.9737 9.93373 20 10 20C10.0664 20 10.13 19.9737 10.1769 19.9268C10.2238 19.8799 10.2501 19.8163 10.2501 19.75V18.2083C10.2501 18.07 10.1381 17.9583 10 17.9583C9.86196 17.9583 9.75 18.07 9.75 18.2083ZM14.8752 18.6939C14.9176 18.6939 14.9607 18.6831 15 18.6604C15.0284 18.6439 15.0533 18.6221 15.0733 18.5961C15.0933 18.57 15.1079 18.5403 15.1165 18.5086C15.125 18.4769 15.1271 18.4438 15.1228 18.4113C15.1186 18.3788 15.1079 18.3474 15.0915 18.3189L14.3208 16.9836C14.2513 16.8638 14.0986 16.8228 13.9792 16.892C13.9217 16.9252 13.8798 16.9798 13.8626 17.0439C13.8455 17.1079 13.8544 17.1762 13.8876 17.2336L14.6583 18.5688C14.6803 18.6069 14.7119 18.6385 14.75 18.6605C14.7881 18.6824 14.8313 18.694 14.8752 18.6939ZM16.9836 14.3208L18.3188 15.0915C18.3567 15.1135 18.3997 15.125 18.4435 15.1251C18.5299 15.1251 18.6138 15.0801 18.6604 15C18.6934 14.9425 18.7023 14.8743 18.6852 14.8102C18.668 14.7462 18.6262 14.6916 18.5688 14.6583L17.2336 13.8878C17.2052 13.8708 17.1737 13.8597 17.1409 13.8551C17.1081 13.8504 17.0747 13.8523 17.0426 13.8606C17.0106 13.869 16.9805 13.8836 16.9542 13.9037C16.9278 13.9238 16.9058 13.9489 16.8892 13.9776C16.8726 14.0062 16.8619 14.0379 16.8577 14.0708C16.8535 14.1036 16.8559 14.137 16.8647 14.1689C16.8734 14.2008 16.8885 14.2307 16.9089 14.2568C16.9293 14.2828 16.9547 14.3046 16.9836 14.3208L16.9836 14.3208ZM19.75 9.75H18.2083C18.1755 9.74999 18.143 9.75645 18.1126 9.76901C18.0823 9.78157 18.0548 9.79998 18.0315 9.8232C18.0083 9.84642 17.9899 9.87399 17.9774 9.90433C17.9649 9.93466 17.9584 9.96717 17.9584 10C17.9584 10.0328 17.9649 10.0653 17.9774 10.0957C17.99 10.126 18.0084 10.1536 18.0316 10.1768C18.0548 10.2 18.0823 10.2185 18.1126 10.231C18.143 10.2436 18.1755 10.2501 18.2083 10.2501H19.75C19.8163 10.2501 19.8799 10.2238 19.9268 10.1769C19.9737 10.13 20 10.0664 20 10C20 9.93373 19.9737 9.87013 19.9268 9.82324C19.8799 9.77634 19.8163 9.75 19.75 9.75ZM17.1089 6.14565C17.1513 6.14565 17.1942 6.13501 17.2336 6.1123L18.5688 5.34155C18.6262 5.30833 18.6681 5.25371 18.6852 5.18966C18.7024 5.12561 18.6934 5.05737 18.6604 4.9999C18.6439 4.97145 18.6221 4.94652 18.596 4.92652C18.57 4.90652 18.5402 4.89185 18.5085 4.88335C18.4768 4.87485 18.4437 4.87268 18.4111 4.87697C18.3786 4.88126 18.3472 4.89192 18.3188 4.90835L16.9836 5.67915C16.9262 5.71235 16.8843 5.76697 16.8672 5.83101C16.85 5.89506 16.8589 5.9633 16.892 6.02075C16.914 6.05881 16.9456 6.09039 16.9837 6.11232C17.0218 6.13425 17.0649 6.14575 17.1089 6.14565ZM14.1039 3.14141C14.1903 3.14141 14.2742 3.09639 14.3208 3.01626L15.0915 1.68115C15.1246 1.62371 15.1336 1.55546 15.1164 1.4914C15.0993 1.42734 15.0574 1.37272 15 1.33955C14.9715 1.32312 14.9401 1.31246 14.9076 1.30817C14.875 1.30388 14.8419 1.30605 14.8102 1.31455C14.7785 1.32305 14.7487 1.33772 14.7227 1.35772C14.6966 1.37772 14.6748 1.40266 14.6583 1.4311L13.8876 2.76641C13.8712 2.79483 13.8605 2.82622 13.8563 2.85876C13.852 2.8913 13.8541 2.92437 13.8627 2.95607C13.8712 2.98778 13.8858 3.0175 13.9058 3.04353C13.9258 3.06957 13.9507 3.09141 13.9792 3.10781C14.0171 3.12977 14.0601 3.14135 14.1039 3.14141Z" fill="currentColor"></path>
  </symbol>
</svg>