<svg width="33" height="32" viewBox="0 0 33 32" fill="none" xmlns="http://www.w3.org/2000/svg">
<path d="M0.257812 16C0.257812 7.1632 7.41941 0 16.2578 0C25.093 0 32.2578 7.1632 32.2578 16C32.2578 24.8368 25.093 32 16.2578 32C7.41941 32 0.257812 24.8368 0.257812 16Z" fill="white"/>
<path d="M25.8611 16.234C25.8611 15.5727 25.7971 14.89 25.6905 14.25H16.4531V18.026H21.7438C21.5305 19.242 20.8265 20.3087 19.7811 20.9913L22.9385 23.4447C24.7945 21.7167 25.8611 19.1993 25.8611 16.234Z" fill="#4280EF"/>
<path d="M16.4498 25.7918C19.0951 25.7918 21.3138 24.9171 22.9351 23.4238L19.7778 20.9918C18.9031 21.5891 17.7725 21.9304 16.4498 21.9304C13.8898 21.9304 11.7351 20.2024 10.9458 17.8984L7.70312 20.3944C9.36712 23.7011 12.7378 25.7918 16.4498 25.7918Z" fill="#34A353"/>
<path d="M10.9467 17.8775C10.5414 16.6615 10.5414 15.3388 10.9467 14.1228L7.70406 11.6055C6.3174 14.3788 6.3174 17.6428 7.70406 20.3948L10.9467 17.8775Z" fill="#F6B704"/>
<path d="M16.4498 10.0901C17.8365 10.0687 19.2018 10.6021 20.2045 11.5621L22.9991 8.74607C21.2285 7.08207 18.8818 6.18607 16.4498 6.2074C12.7378 6.2074 9.36712 8.29807 7.70312 11.6047L10.9458 14.1221C11.7351 11.7967 13.8898 10.0901 16.4498 10.0901Z" fill="#E54335"/>
</svg>
