<svg width="16" height="16" viewBox="0 0 16 16" fill="none" xmlns="http://www.w3.org/2000/svg">
<g id="social/telegram">
<rect width="16" height="16" rx="8" fill="#27A7E8"/>
<path id="Vector" d="M10.6209 4.23563C10.6209 4.23563 11.33 3.90386 11.2709 4.70962C11.2512 5.04141 11.0739 6.20266 10.936 7.4587L10.4633 11.1794C10.4633 11.1794 10.4239 11.7245 10.0694 11.8193C9.71485 11.9141 9.18307 11.4875 9.08458 11.3927C9.0058 11.3217 7.60736 10.2552 7.11495 9.7338C6.97707 9.59162 6.81949 9.30722 7.13463 8.97543L9.20277 6.60555C9.43913 6.32116 9.67547 5.65759 8.69066 6.46335L5.93318 8.71476C5.93318 8.71476 5.61802 8.95173 5.02714 8.73845L3.74688 8.26448C3.74688 8.26448 3.27416 7.90899 4.08171 7.55349C6.05136 6.43963 8.47401 5.30208 10.6209 4.23563Z" fill="white"/>
</g>
</svg>
