<svg width="16" height="16" viewBox="0 0 16 16" fill="none" xmlns="http://www.w3.org/2000/svg">
<g id="social/whatsapp" clip-path="url(#clip0_2002_1604)">
<path id="Vector" d="M8 0C3.5888 0 0 3.58854 0 8C0 9.55208 0.445052 11.0484 1.28984 12.3479L0.0432292 15.2568C-0.0427083 15.4568 0.00208335 15.6896 0.15625 15.8438C0.258333 15.9458 0.394792 16 0.533333 16C0.604167 16 0.675781 15.9859 0.74349 15.9568L3.65234 14.7099C4.95156 15.5552 6.44792 16 8 16C12.4115 16 16 12.4115 16 8C16 3.58854 12.4115 0 8 0Z" fill="#25D366"/>
<path id="Vector_2" d="M12.1002 10.8621C12.1002 10.8621 11.4351 11.7152 10.9544 11.9147C9.73251 12.4205 8.00751 11.9147 6.0424 9.95014C4.07782 7.98504 3.57183 6.26004 4.07782 5.03816C4.2773 4.55691 5.13042 3.89233 5.13042 3.89233C5.36167 3.71212 5.72105 3.73452 5.92834 3.94181L6.89345 4.90691C7.10074 5.1142 7.10074 5.45379 6.89345 5.66108L6.28772 6.26629C6.28772 6.26629 6.0424 7.00275 7.51584 8.4767C8.98928 9.95014 9.72626 9.70483 9.72626 9.70483L10.3315 9.0991C10.5388 8.89181 10.8783 8.89181 11.0856 9.0991L12.0507 10.0642C12.258 10.2715 12.2804 10.6304 12.1002 10.8621Z" fill="white"/>
</g>
<defs>
<clipPath id="clip0_2002_1604">
<rect width="16" height="16" fill="white"/>
</clipPath>
</defs>
</svg>
