<svg width="184" height="61" viewBox="0 0 184 61" fill="none" xmlns="http://www.w3.org/2000/svg">
<g id="logo-big-subtitle" clip-path="url(#clip0_302_38889)">
<path id="Vector" d="M62.2344 3.90677L62.6064 0.930183V0.372073L62.2344 0L61.8623 0.930183V3.53469C61.8227 3.56961 61.791 3.61255 61.7693 3.66067C61.7476 3.70878 61.7363 3.76096 61.7363 3.81375C61.7363 3.86654 61.7476 3.91872 61.7693 3.96684C61.791 4.01495 61.8227 4.05789 61.8623 4.0928L62.2344 3.90677Z" fill="#313033"/>
<path id="Vector_2" d="M68.0004 4.46575H68.3725L70.0468 2.79142C70.0554 2.69063 70.0433 2.58916 70.0113 2.4932C69.9793 2.39724 69.9281 2.30881 69.8608 2.23331C69.6747 2.04727 69.4887 2.23331 69.3027 2.41935C69.1793 2.68854 68.999 2.92776 68.7741 3.12047C68.5493 3.31319 68.2853 3.45481 68.0004 3.53556L67.4423 4.09367C67.2563 4.09367 67.4423 4.46575 67.6283 4.46575H68.0004Z" fill="#313033"/>
<path id="Vector_3" d="M81.9541 21.3945H78.6055C79.7198 21.4869 80.8398 21.4869 81.9541 21.3945Z" fill="#313033"/>
<path id="Vector_4" d="M106.697 42.7887C106.697 42.2306 106.883 41.8586 106.883 41.4865H105.953C105.97 42.4187 105.797 43.3446 105.446 44.208C105.094 45.0715 104.57 45.8545 103.907 46.5095C103.005 47.3165 101.919 47.8913 100.744 48.1838C101.86 48.5559 103.349 48.1838 104.651 48.7419C103.793 48.9282 102.905 48.9282 102.046 48.7419C100.186 48.3698 98.5118 49.114 96.6514 48.7419V48.3698C97.8899 48.4632 99.1337 48.4632 100.372 48.3698C99.628 48.1838 98.8839 48.3698 98.3258 47.8117C97.5657 47.2149 96.9525 46.4518 96.5333 45.5811C96.1141 44.7103 95.8999 43.7551 95.9073 42.7887C95.7213 40.1842 95.9073 37.3937 95.9073 34.7892H99.628C100.216 34.8569 100.767 35.1096 101.201 35.5109C101.636 35.9121 101.932 36.4412 102.046 37.0216H102.977V38.882H103.907C103.814 37.271 103.814 35.656 103.907 34.045C103.814 32.6203 103.814 31.191 103.907 29.7662H102.977V30.3243H102.605C102.493 31.3679 102.177 32.3793 101.674 33.3009L95.9073 32.9288C96.2794 29.3941 96.4654 25.6734 96.6514 22.1387C98.0596 21.7307 99.5628 21.796 100.93 22.3247C103.065 23.4728 104.666 25.4085 105.395 27.7198H106.325C106.325 25.4873 106.325 23.4409 106.139 21.2085L103.721 21.5806L103.163 21.0225H97.7677L96.2794 20.6504L94.9771 21.0225C92.7447 21.0225 90.3262 20.8364 88.0938 21.0225C88.9484 21.5248 89.8992 21.8417 90.8843 21.9526H91.0703C92.4607 21.5618 93.9122 21.4356 95.3492 21.5806C93.8226 21.4648 92.2908 21.7201 90.8843 22.3247H91.8145C91.7528 25.6157 91.877 28.9076 92.1866 32.1847C92.1866 32.7428 92.5586 33.4869 92.1866 34.045C92.5026 34.6779 92.6317 35.3878 92.5586 36.0914C92.3726 39.6261 92.3726 43.1608 92.0005 46.5095C92.0083 46.7541 91.9624 46.9976 91.866 47.2226C91.7696 47.4475 91.625 47.6487 91.4424 47.8117H92.7447C92.7679 46.4402 92.8923 45.0722 93.1167 43.7189C93.21 45.1437 93.21 46.573 93.1167 47.9978H94.7911L94.233 49.114L96.4654 48.7419L99.628 49.114C100 48.928 100.558 49.114 100.93 48.7419H105.209C104.981 48.9973 104.686 49.1845 104.358 49.283C104.029 49.3815 103.68 49.3874 103.349 49.3C102.977 49.3 102.419 48.928 102.046 49.3C103.155 49.4874 104.287 49.4874 105.395 49.3C105.767 49.114 106.511 48.1838 106.511 49.114H107.442C107.256 46.8816 107.256 44.6491 107.069 42.4167L106.697 42.7887ZM96.4654 47.4397C96.8375 47.2536 97.0235 47.8117 96.8375 47.9978C96.6514 48.1838 96.2794 47.6257 96.4654 47.4397ZM102.605 34.4171C102.853 35.0043 102.918 35.6528 102.791 36.2775C102.22 35.5197 101.446 34.9392 100.558 34.6031L102.605 34.4171ZM105.395 21.9526V25.6734C104.914 24.4603 104.354 23.2797 103.721 22.1387L105.395 21.9526ZM103.349 22.6968C103.907 23.0689 103.907 23.4409 104.093 23.999C103.046 23.2093 101.925 22.5239 100.744 21.9526C101.674 21.9526 102.791 21.9526 103.349 22.6968ZM97.5816 21.9526C97.2095 22.1387 96.6514 22.1387 96.6514 21.7666C96.6514 21.3945 97.5816 21.5806 97.5816 21.9526ZM93.4888 29.7662C93.5194 30.8856 93.4572 32.0057 93.3028 33.1148C92.7412 29.6099 92.5541 26.0552 92.7447 22.5108H93.8609C92.9307 24.7432 93.4888 27.3477 93.4888 29.7662ZM94.9771 33.3009C94.6648 32.8718 94.5314 32.3382 94.605 31.8126C94.8251 30.1843 95.1356 28.5694 95.5352 26.9756C95.1631 29.2081 95.3492 31.2545 94.9771 33.3009ZM98.1397 34.4171C97.3447 34.6068 96.5162 34.6068 95.7212 34.4171C96.2794 33.859 97.3956 34.4171 98.1397 34.4171ZM105.395 47.9978C104.281 48.091 103.161 48.091 102.046 47.9978C102.844 47.8619 103.604 47.5598 104.277 47.1111C104.95 46.6624 105.521 46.0771 105.953 45.3933C105.845 46.2764 105.659 47.148 105.395 47.9978Z" fill="#313033"/>
<path id="Vector_5" d="M54.4199 8.93019C54.606 8.93019 54.9781 8.93019 54.9781 8.74416C54.9781 8.55812 54.9781 8.37208 54.792 8.18605L53.6758 7.4419L52.0015 6.51172H51.4434L53.3037 8.18605L54.4199 8.93019Z" fill="#313033"/>
<path id="Vector_6" d="M55.538 48.928H55.9101L53.1196 48.1838C53.1196 43.7189 52.7475 39.2541 52.5614 34.7892C52.4372 32.6794 52.4994 30.5628 52.7475 28.4639C53.1227 26.8106 53.1227 25.0943 52.7475 23.4409C52.7475 22.8828 52.9335 22.5108 52.9335 22.1387C53.7544 22.0606 54.5325 21.7364 55.166 21.2085H45.6781C46.761 21.6278 47.8827 21.9394 49.0267 22.1387L47.5385 21.2085H49.0267C49.1808 21.8791 49.2434 22.5675 49.2128 23.2549H48.6547L49.2128 25.8594H48.6547C48.4094 28.1453 48.3472 30.447 48.4686 32.7428C46.0502 32.5567 43.4456 32.9288 41.0272 32.7428C40.2883 32.6937 39.5786 32.4356 38.9808 31.9986C39.3235 28.4122 39.3857 24.8046 39.1668 21.2085C40.3785 21.1608 41.5735 20.9093 42.7015 20.4644H38.9808C39.0884 20.5598 39.1551 20.6931 39.1668 20.8364C39.721 20.7428 40.287 20.7428 40.8411 20.8364C40.4452 21.065 39.9961 21.1854 39.5389 21.1854C39.0817 21.1854 38.6326 21.065 38.2366 20.8364C38.4841 22.7483 38.5464 24.6797 38.4227 26.6036C38.2065 25.062 38.0823 23.509 38.0506 21.9527C38.0506 21.5806 38.2366 21.0225 37.6785 20.8364H36.9344L36.3763 20.4644H38.4227L38.9808 20.0923C38.0475 20.2167 37.0987 20.1535 36.1902 19.9062V21.2085H37.1204V22.8828C36.9444 22.4113 36.6931 21.9715 36.3763 21.5806C35.8181 21.3945 34.888 21.5806 34.5159 21.2085H35.8181C36.1902 21.2085 36.0042 20.8364 36.0042 20.6504C36.0042 20.4644 33.3997 20.4644 32.0974 20.8364H25.9582C25.4001 21.0225 24.656 20.6504 24.842 21.3945H26.1442L25.7722 21.7666C26.7024 21.7666 28.0046 21.5806 28.5627 22.5108C28.6246 23.6399 28.4989 24.7714 28.1907 25.8594C26.9195 28.9455 25.8627 32.1157 25.028 35.3473C24.656 37.2077 24.2839 39.2541 24.0978 41.1144C22.6096 37.9518 21.3073 34.6031 20.005 31.4405H19.0749C17.9513 33.037 17.0733 34.7928 16.4703 36.6495C15.7771 38.4964 14.9694 40.2983 14.0519 42.0446C13.3823 40.8576 12.8219 39.6122 12.3775 38.3239C11.2613 34.4171 10.3311 30.3243 9.02888 26.6036C8.58867 24.9818 7.82975 23.4639 6.79644 22.1387C7.79137 22.2684 8.80198 22.2052 9.77302 21.9527H8.6568L9.40095 21.5806C7.35877 21.3947 5.30392 21.3947 3.26174 21.5806C2.679 21.6824 2.11469 21.8705 1.58741 22.1387H0.285156C1.18963 22.3357 2.06499 22.6484 2.88967 23.0689C3.63381 23.627 3.44778 24.5572 3.81985 25.3013C5.12211 31.4405 8.28473 36.8356 10.1451 42.7888C10.8514 45.0205 11.722 47.1968 12.7496 49.3C12.7496 49.6721 13.3077 49.4861 13.6798 49.6721C14.0519 49.8581 14.2379 46.6955 14.61 45.3933C14.982 44.091 16.0983 40.3703 17.0285 37.9518C17.9586 40.1842 19.0749 42.0446 20.005 44.277C20.262 46.1744 20.698 48.0431 21.3073 49.8581H22.2375C22.6096 48.928 23.3537 48.3699 23.7258 47.4397C25.3974 42.5198 26.7032 37.4831 27.6325 32.3707L28.5627 32.7428C28.9115 29.0686 30.054 25.514 31.9114 22.3247C33.038 22.0744 34.2159 22.2052 35.26 22.6968C35.26 28.0919 35.26 33.673 35.4461 39.2541C35.6321 44.8352 36.0042 45.0212 35.26 47.8117L32.0974 48.7419C33.4601 48.6486 34.8276 48.6486 36.1902 48.7419H33.5857C34.8907 48.7112 36.1963 48.7734 37.4925 48.928H42.5155C41.4166 48.3031 40.2224 47.8632 38.9808 47.6257C38.9808 47.8117 38.7947 47.8117 38.7947 47.9978C38.7947 48.1838 40.097 48.5559 40.8411 48.928H38.2366C39.3195 44.2962 39.5715 39.509 38.9808 34.7892C42.1434 34.4171 45.306 34.7892 48.4686 34.6031V35.3473H49.2128C49.3061 36.772 49.3061 38.2014 49.2128 39.6261C48.8517 41.5275 48.6649 43.4579 48.6547 45.3933C48.6984 46.3939 48.8228 47.3893 49.0267 48.3699C47.8671 48.3467 46.7188 48.6019 45.6781 49.114C48.9304 49.7058 52.2504 49.8311 55.538 49.4861V48.928ZM4.00589 22.1387C3.63382 23.0689 4.93607 22.1387 4.00589 22.1387V22.1387ZM9.77302 31.8126C8.84284 29.3941 8.0987 26.9756 7.35455 24.5572C8.60146 26.8057 9.42142 29.2656 9.77302 31.8126ZM9.21492 34.2311C8.36906 32.3708 7.68441 30.4413 7.16851 28.4639C8.15226 30.2656 8.84304 32.2123 9.21492 34.2311ZM6.98247 26.4175H6.79644C6.42436 24.9292 6.05229 23.4409 5.86625 22.1387C6.3322 23.5388 6.70508 24.9682 6.98247 26.4175ZM6.98247 21.5806C6.5278 21.8287 5.99595 21.8952 5.49418 21.7666C5.68022 21.2085 6.79644 21.2085 6.98247 21.5806ZM4.93607 23.0689C5.30814 23.0689 5.30815 23.2549 5.12211 23.627C4.93607 23.9991 4.75003 23.4409 4.93607 23.0689ZM9.40095 37.9518C7.72662 33.859 5.68022 29.7662 5.30815 25.4873C5.60476 25.9346 5.79562 26.4436 5.86625 26.9756C6.59191 30.0252 7.7179 32.9653 9.21492 35.7194C10.6322 38.2288 11.4593 41.0282 11.6334 43.905C10.8892 42.0446 10.3311 39.8122 9.40095 37.9518ZM12.0055 39.6261C12.9057 40.7536 13.4842 42.1035 13.6798 43.5329C13.0107 42.2811 12.4505 40.974 12.0055 39.6261ZM13.4938 46.1374V44.8352L14.4239 43.5329C14.1975 44.4287 13.886 45.3008 13.4938 46.1374ZM17.5866 37.0216V36.2775C18.3345 37.622 18.8976 39.0613 19.2609 40.5563L17.5866 37.0216ZM18.8888 34.4171C18.8888 34.2311 19.0749 33.859 19.0749 33.673H18.5167L19.0749 32.7428C19.4506 33.9657 19.7611 35.2077 20.005 36.4635L18.8888 34.4171ZM21.8654 48.5559C21.6339 48.093 21.5069 47.5849 21.4933 47.0676C21.8056 47.4967 21.9391 48.0303 21.8654 48.5559ZM22.4235 46.5095C22.1476 45.4731 21.9608 44.4151 21.8654 43.3469C22.4211 44.3014 22.6189 45.4225 22.4235 46.5095ZM22.9816 43.5329C22.2375 41.3005 21.6794 39.2541 21.1213 37.2077C22.0655 38.5613 22.7587 40.0736 23.1677 41.6725C23.1677 42.2306 22.9816 42.7888 22.9816 43.5329ZM29.6789 23.2549C29.3069 23.2549 29.1208 22.6968 29.3069 22.3247C29.4929 21.9527 30.051 22.8828 29.6789 23.2549ZM32.8416 21.5806C33.2136 21.5806 33.9578 21.3945 34.1438 21.7666C34.3299 22.1387 33.0276 21.9527 32.8416 21.5806ZM36.1902 24.1851C36.5309 27.7094 36.5931 31.2551 36.3763 34.7892C36.3848 34.89 36.3727 34.9914 36.3407 35.0874C36.3088 35.1834 36.2575 35.2718 36.1902 35.3473V24.1851ZM35.6321 48.1838H36.7483V47.8117H36.1902C36.9344 43.905 35.8181 39.8122 36.3763 35.7194H36.9344C36.7483 38.3239 36.7483 40.9284 36.7483 43.5329C36.7799 45.2746 36.9041 47.0134 37.1204 48.7419L35.6321 48.1838ZM37.8645 46.5095C36.9344 42.4167 37.6785 38.3239 37.8645 34.4171L38.2366 34.9752C38.5769 38.8209 38.452 42.6937 37.8645 46.5095ZM52.1894 21.5806C52.0033 21.9527 51.0732 21.9527 50.7011 21.7666C50.329 21.5806 51.8173 21.5806 52.1894 21.5806ZM51.8173 41.8586C51.6574 40.6252 51.5952 39.381 51.6313 38.1378H51.0732L51.6313 26.6036C51.6664 25.9689 51.7917 25.3425 52.0033 24.7432C52.0648 26.7966 51.9403 28.8514 51.6313 30.8824C51.6313 36.6495 52.1894 42.4167 52.1894 48.1838L51.2592 47.8117C51.846 45.8855 52.0359 43.8603 51.8173 41.8586ZM50.7011 22.5108C50.7011 25.1153 50.515 27.9058 50.515 30.6964L49.9569 22.6968L50.7011 22.5108ZM50.143 46.6955C50.2954 46.1512 50.3582 45.5857 50.329 45.0212C50.3634 45.7166 50.4885 46.4046 50.7011 47.0676C50.5088 47.2752 50.3798 47.5334 50.329 47.8117L51.4452 48.1838H49.9569C49.7709 47.6257 49.7709 47.0676 49.5849 46.5095L50.143 46.6955ZM49.3988 49.114V48.7419H53.6777C52.2889 49.1418 50.8357 49.2681 49.3988 49.114Z" fill="#313033"/>
<path id="Vector_7" d="M56.4678 4.83694H57.0259C57.0259 4.6509 57.0259 4.27883 56.8399 4.27883C56.6538 4.27883 55.9097 3.53468 55.5376 2.97657L53.8633 2.23242L54.9795 3.53468L56.4678 4.83694Z" fill="#313033"/>
<path id="Vector_8" d="M182.786 48.9281V49.3001H183.716C183.53 47.0677 183.716 45.0213 183.53 42.7889H183.158C182.972 42.4168 183.344 41.8587 182.972 41.6726H182.228C182.286 42.4782 182.184 43.2872 181.929 44.0534C181.673 44.8195 181.269 45.5278 180.74 46.1375C179.824 47.3232 178.496 48.1204 177.019 48.37C178.341 48.3724 179.656 48.5603 180.926 48.9281C180.067 49.1143 179.179 49.1143 178.321 48.9281C176.958 48.7135 175.566 48.7768 174.228 49.1141C173.67 48.9281 172.926 49.3001 172.74 48.556C173.978 48.6487 175.222 48.6487 176.461 48.556C175.717 48.37 175.158 48.556 174.6 47.9979C173.867 47.4305 173.281 46.6947 172.892 45.8526C172.504 45.0106 172.324 44.0873 172.368 43.1609C172.12 40.502 172.058 37.829 172.182 35.1614H175.903C176.505 35.2435 177.072 35.4978 177.534 35.8938C177.996 36.2898 178.334 36.8106 178.507 37.3938H179.251V39.2542H180.181V29.7663H179.437C179.437 30.3244 178.879 30.5104 178.879 31.0686C178.734 31.9289 178.418 32.7513 177.949 33.487L172.368 33.115L172.926 22.3248C174.334 21.9168 175.837 21.9822 177.205 22.5109C178.287 23.0444 179.245 23.801 180.014 24.7308C180.784 25.6606 181.348 26.7427 181.67 27.9059H182.6V21.5807L179.995 21.9528C179.995 21.7667 179.623 21.5807 179.623 21.3946H174.228C173.298 21.5807 172.368 20.6505 171.624 21.3946C167.531 21.3946 163.438 21.2086 159.345 21.5807C158.744 21.5932 158.16 21.7878 157.671 22.1388H159.903C159.717 22.3248 159.345 22.5109 159.345 22.6969H160.275C160.028 24.1686 159.456 25.5667 158.601 26.7897C156.741 29.3942 154.88 31.8127 152.834 34.2312C152.648 30.1384 152.462 26.2316 152.462 22.3248H155.439C154.319 21.8679 153.109 21.6768 151.904 21.7667L147.439 21.3946C147.625 21.9528 148.183 21.9528 148.741 22.1388C149.416 24.37 149.544 26.7311 149.113 29.0221C148.989 31.6898 149.052 34.3628 149.299 37.0217L148.927 37.5798C148.741 40.9285 149.671 44.4632 148.369 47.8118H149.113C149.556 46.6185 149.807 45.3628 149.857 44.0911C149.95 45.5159 149.95 46.9452 149.857 48.37L148.369 47.9979L146.137 48.9281C148.458 49.4557 150.86 49.519 153.206 49.1141C154.136 48.742 155.066 49.3001 155.997 49.1141C154.932 48.6723 153.799 48.4204 152.648 48.37C152.408 48.6541 152.081 48.8504 151.718 48.9281H147.439C147.818 48.6706 148.259 48.5177 148.716 48.4851C149.174 48.4524 149.631 48.5411 150.043 48.742H152.09V48.37H150.602V47.8118H151.346C151.718 46.8817 151.532 45.7654 152.276 44.8353C152.127 45.8825 152.064 46.9403 152.09 47.9979H153.02C152.648 43.719 152.834 39.4402 152.648 35.1614L154.88 33.8591V34.4172L154.136 34.7893C155.439 37.7659 157.113 40.3704 158.415 43.347C159.046 45.2196 159.482 47.1522 159.717 49.1141L157.671 49.4862C158.415 50.0443 159.159 49.4862 160.089 49.4862C161.752 49.2086 163.45 49.2086 165.112 49.4862H170.135V48.37H169.391V48.742H168.833V48.37H167.345C167.345 48.1839 167.531 47.9979 167.531 47.8118L165.671 48.1839C164.846 47.6673 164.095 47.0415 163.438 46.3236C161.578 42.6028 160.089 38.8821 158.415 35.1614C157.782 34.0204 157.222 32.8397 156.741 31.6267C159.225 28.7991 161.35 25.6747 163.066 22.3248C164.368 21.5807 165.857 22.3248 166.973 22.5109V22.1388C168.437 21.7999 169.951 21.7368 171.438 21.9528C169.949 22.1388 168.275 21.7667 166.973 22.6969H167.717C167.531 26.4176 168.089 30.3244 168.275 34.0451V34.4172C168.599 34.9111 168.732 35.5067 168.647 36.0915C168.652 39.6956 168.465 43.2973 168.089 46.8817C168.082 47.341 167.954 47.7902 167.717 48.1839H169.019C169.019 46.6956 169.205 45.3934 169.205 44.0911C169.391 45.449 169.391 46.826 169.205 48.1839C169.759 48.2776 170.325 48.2776 170.88 48.1839C170.672 48.5227 170.545 48.9046 170.508 49.3001L172.554 48.9281L176.275 49.3001C176.419 49.3001 176.561 49.2665 176.691 49.2019C176.82 49.1374 176.932 49.0436 177.019 48.9281C178.431 49.1751 179.869 49.2376 181.298 49.1141C180.553 50.0443 179.251 49.4862 178.135 49.4862C179.16 49.7911 180.23 49.9169 181.298 49.8582L182.228 49.1141L182.786 48.9281ZM178.693 34.4172C178.879 34.9753 178.879 35.7195 179.065 36.2776C178.455 35.5602 177.692 34.9882 176.833 34.6032L178.693 34.4172ZM181.484 21.9528V25.6735C181.148 24.4339 180.648 23.245 179.995 22.1388L181.484 21.9528ZM179.623 22.5109C179.995 22.8829 179.995 23.441 180.181 23.9992C179.135 23.2094 178.013 22.524 176.833 21.9528C177.798 21.8427 178.774 22.0378 179.623 22.5109ZM173.67 21.9528C173.484 22.1388 172.74 22.1388 172.74 21.7667C172.74 21.3946 173.67 21.5807 173.67 21.9528ZM150.043 36.2776C150.23 33.115 150.23 29.9523 150.416 26.7897C150.416 28.6501 150.788 30.3244 150.788 32.1848L150.416 32.5568C150.602 33.6731 151.16 35.3474 150.043 36.2776ZM150.416 37.7659C150.043 37.5798 150.043 37.0217 150.23 36.6497C150.416 36.2776 150.974 37.7659 150.416 37.7659ZM150.788 46.5096C150.633 45.2757 150.571 44.032 150.602 42.7889L151.16 43.719C150.944 44.6348 150.82 45.5694 150.788 46.5096ZM150.788 39.2542C150.974 39.0681 151.16 39.0681 151.346 39.4402V41.4866L150.788 39.2542ZM150.416 22.1388C150.416 22.6969 150.043 22.5109 149.671 22.5109V21.7667H149.113L151.532 22.1388H150.416ZM164.926 48.37C164.182 47.9979 163.252 47.8118 162.88 46.6956C163.641 47.1491 164.331 47.7134 164.926 48.37ZM164.74 48.9281H162.694V48.1839C162.136 47.9979 161.95 47.4398 161.764 47.0677C162.639 47.8577 163.647 48.4874 164.74 48.9281ZM161.392 48.37H162.508C162.508 48.556 162.322 48.742 162.136 48.9281H160.648C160.31 47.6445 160.061 46.3391 159.903 45.0213C158.89 42.1953 157.645 39.4575 156.183 36.8357C157.481 38.8428 158.601 40.9592 159.531 43.1609C160.275 44.6492 160.648 46.6956 161.392 48.37ZM158.787 37.7659C157.404 36.1922 156.5 34.2556 156.183 32.1848C157.113 34.0451 158.043 35.9055 158.787 37.7659ZM155.253 32.1848L158.973 27.1618C159.297 26.7446 159.672 26.3696 160.089 26.0456C158.747 28.2909 157.121 30.3542 155.253 32.1848ZM160.648 22.1388V21.7667C160.922 21.6638 161.216 21.627 161.507 21.6594C161.798 21.6917 162.077 21.7922 162.322 21.9528L160.648 22.1388ZM169.577 29.5803C169.67 30.7567 169.67 31.9385 169.577 33.115C168.861 29.6288 168.611 26.0629 168.833 22.5109H169.949C169.474 24.8356 169.348 27.2184 169.577 29.5803ZM171.252 33.301C170.88 33.115 170.88 32.9289 170.88 32.5568C170.851 30.67 171.102 28.7893 171.624 26.9757C171.438 29.2082 171.438 31.2546 171.252 33.301ZM174.228 34.4172H171.996C172.368 33.8591 173.484 34.4172 174.228 34.4172ZM172.74 47.4398C172.926 47.2537 173.298 47.8118 173.112 47.9979C172.926 48.1839 172.554 47.6258 172.74 47.4398ZM181.67 47.9979C180.508 48.2747 179.297 48.2747 178.135 47.9979C179.745 47.5993 181.143 46.6012 182.042 45.2073C182.01 46.1475 181.885 47.0822 181.67 47.9979Z" fill="#313033"/>
<path id="Vector_9" d="M69.3027 7.81349C69.4888 8.18556 69.6748 8.18556 69.8608 8.18556L71.3491 7.44142L72.4654 6.51124C72.5049 6.47632 72.5367 6.43338 72.5584 6.38526C72.5801 6.33715 72.5913 6.28497 72.5913 6.23218C72.5913 6.17939 72.5801 6.12721 72.5584 6.0791C72.5367 6.03098 72.5049 5.98804 72.4654 5.95312H71.9072L70.9771 6.69727L69.6748 7.44142C69.3027 7.44142 69.3027 7.62745 69.3027 7.81349Z" fill="#313033"/>
<path id="Vector_10" d="M68.1881 48.5559L65.7696 48.1838C65.2115 47.9978 64.2813 47.6257 64.2813 46.8815V37.2076C64.4673 34.2311 63.9092 31.2545 63.9092 28.2779H64.4673C64.4673 26.2315 64.8394 24.3711 64.8394 22.5108C65.9835 22.3115 67.1051 21.9999 68.1881 21.5806H64.4673L62.4209 22.1387L62.793 23.0689L61.6768 22.6968H62.2349L61.3047 22.3247L60.5606 22.8828L61.3047 21.9526L56.8398 21.3945L57.398 21.7666L57.0259 22.1387H59.2583L60.7466 22.8828C60.4081 25.411 60.3457 27.9686 60.5606 30.5103C61.1185 35.6422 61.1185 40.8195 60.5606 45.9514C60.4258 46.6695 60.1745 47.3608 59.8164 47.9978C59.4444 48.3698 58.7002 48.3698 58.3281 48.7419H58.8863V49.114L58.1421 48.7419L57.0259 49.3C57.9561 49.4861 59.0723 49.114 60.0025 49.3H62.9791C64.1089 49.1447 65.2596 49.2726 66.3277 49.6721H63.1651C64.5278 49.7648 65.8952 49.7648 67.2579 49.6721L66.8858 48.9279C67.4439 48.5559 67.816 48.7419 68.1881 48.5559ZM62.2349 23.0689C62.2349 23.4409 62.4209 23.627 62.4209 23.999C62.1243 24.6461 61.9358 25.3374 61.8628 26.0454V33.3009C61.9036 32.7775 61.773 32.2552 61.4908 31.8126C61.2823 28.877 61.5334 25.927 62.2349 23.0689ZM60.9327 48.1838C61.4785 46.3117 61.7295 44.366 61.6768 42.4167C61.8315 44.0863 61.8936 45.7632 61.8628 47.4397H62.4209C62.2388 47.661 62.0122 47.8416 61.7558 47.9698C61.4995 48.098 61.219 48.1709 60.9327 48.1838ZM63.7232 25.1153C63.5372 24.5572 63.3511 23.813 63.9092 23.4409C63.9385 24.0054 63.8756 24.5709 63.7232 25.1153Z" fill="#313033"/>
<path id="Vector_11" d="M57.9566 12.836V13.2081L59.0728 14.5103C59.664 15.4453 60.4205 16.2648 61.3052 16.9288H61.6773L62.0494 17.3009C62.0494 17.6729 62.4214 17.6729 62.6075 17.6729H62.9795C63.5685 17.2794 64.0743 16.7736 64.4678 16.1846C65.1542 15.2703 65.7171 14.2695 66.1422 13.2081L67.4444 11.5337L68.5606 10.0454V9.67336H68.7467C68.814 9.59786 68.8652 9.50943 68.8972 9.41347C68.9292 9.31751 68.9413 9.21604 68.9327 9.11525H68.7467L67.2584 7.25489L66.7003 6.69678H66.5142L65.7701 5.7666H58.5147C58.4798 5.727 58.4368 5.6953 58.3887 5.67358C58.3406 5.65186 58.2884 5.64063 58.2356 5.64062C58.1828 5.64063 58.1306 5.65186 58.0825 5.67358C58.0344 5.6953 57.9915 5.727 57.9566 5.7666H57.7705L57.3984 6.13867V6.51074C56.9378 7.11385 56.6197 7.8135 56.4683 8.55714L55.9102 9.48733V9.8594C55.9102 10.0454 56.0962 10.2315 56.0962 10.4175L56.4683 10.9756L57.3984 12.2779L57.9566 12.836ZM62.2354 11.1617L61.8633 10.2315C61.8633 10.0454 61.8633 9.8594 61.6773 9.8594H64.0958L63.7237 10.6035L63.3516 11.9058C63.3806 12.2273 63.316 12.5503 63.1656 12.836C63.1656 13.2081 62.9795 13.3941 62.9795 13.9522H62.7935C62.7132 13.6461 62.651 13.3355 62.6075 13.022C62.4408 12.4112 62.3165 11.7896 62.2354 11.1617ZM63.5377 17.1148L62.7935 17.4869L63.1656 16.9288L64.0958 15.9986L63.5377 17.1148ZM67.0724 11.1617H66.7003C66.5142 11.5337 66.1422 11.7198 66.1422 12.0918L64.2818 14.6964L63.3516 15.8126C63.5641 15.2779 63.6897 14.7126 63.7237 14.1382C64.0433 13.4998 64.233 12.8042 64.2818 12.0918C64.2818 11.9058 64.4678 11.7198 64.4678 11.5337C64.6799 11.314 64.8401 11.0495 64.9367 10.7598C65.0332 10.4701 65.0638 10.1624 65.026 9.8594H68.0025L67.0724 11.1617ZM65.5841 6.13867L66.3282 7.06885L67.8165 8.92922H67.6305C66.7106 8.73328 65.7598 8.73328 64.8399 8.92922C64.8399 8.55714 64.6539 8.37111 64.6539 8.18507C64.5866 8.10957 64.5353 8.02114 64.5034 7.92518C64.4714 7.82922 64.4593 7.72775 64.4678 7.62696H64.2818C64.3259 7.2448 64.2615 6.85793 64.0958 6.51074H65.5841V6.13867ZM61.6773 7.99903C61.6773 7.44092 61.8633 6.88282 61.8633 6.13867H63.1656C63.157 6.23946 63.1691 6.34093 63.2011 6.43689C63.2331 6.53285 63.2843 6.62128 63.3516 6.69678C63.432 7.00289 63.4941 7.31349 63.5377 7.62696V8.18507L63.9097 8.92922H61.4913C61.4341 8.60679 61.5005 8.27468 61.6773 7.99903ZM57.3984 8.55714L58.1426 6.88281L58.5147 6.13867H60.9331V6.88281C60.7638 7.36648 60.6393 7.86467 60.5611 8.37111V8.92922H57.2124C57.2124 8.74318 57.2124 8.74318 57.3984 8.55714ZM60.7471 9.8594C60.8883 10.6141 61.0746 11.3595 61.3052 12.0918L61.8633 13.5801V14.1382C62.0099 14.8729 62.0724 15.6219 62.0494 16.3707V15.9986L61.1192 15.0684L60.003 13.9522L57.7705 10.6035L57.3984 9.8594H60.7471Z" fill="#313033"/>
<path id="Vector_12" d="M147.626 22.3242C147.575 22.0458 147.446 21.7877 147.253 21.5801H145.951C146.137 21.9522 146.323 22.1382 146.323 22.5103L147.626 22.3242Z" fill="#313033"/>
<path id="Vector_13" d="M143.532 49.8569H144.462C144.312 49.5047 144.249 49.1222 144.276 48.7406C144.648 48.5546 145.206 48.7406 145.578 48.1825H146.322L144.09 47.8105C142.973 43.7177 141.299 39.9969 140.183 35.9041C140.183 35.7181 139.997 35.532 139.625 35.532C139.749 34.5988 139.686 33.65 139.439 32.7415C138.582 28.9676 137.526 25.2417 136.276 21.5793H135.718C135.718 21.0212 135.346 20.8352 134.788 20.6491C134.23 20.4631 135.16 22.1374 134.788 22.6955C134.416 23.2536 133.113 29.2068 131.625 31.9973C130.896 33.866 130.336 35.7961 129.951 37.7645V38.3226L129.207 38.6947H129.765C129.251 40.7934 128.567 42.8467 127.718 44.8339H126.788C126.73 45.4769 126.86 46.1229 127.16 46.6942C126.974 47.0663 126.788 47.2523 126.788 47.6244L124.742 47.9965C124.897 45.8191 124.772 43.6307 124.37 41.4852H123.626C123.018 42.8703 122.52 44.3009 122.137 45.7641C121.958 46.2755 121.634 46.7237 121.205 47.0541C120.775 47.3844 120.259 47.5826 119.719 47.6244L120.277 48.1825C121.371 47.8525 122.342 47.205 123.068 46.3222C123.072 45.4248 123.262 44.5381 123.626 43.7177C123.624 45.346 123.437 46.9688 123.068 48.5546H120.091C119.161 47.9965 118.231 48.3686 117.3 48.1825C116.37 47.9965 115.626 47.2523 115.44 46.5082C116.117 39.7085 116.427 32.8773 116.37 26.0442C116.323 24.8325 116.071 23.6375 115.626 22.5095C116.973 22.6404 118.329 22.3821 119.533 21.7653C118.873 21.3564 118.132 21.0949 117.361 20.9986C116.591 20.9023 115.808 20.9734 115.068 21.2072C114.696 20.8351 114.324 21.2072 113.766 21.3933L114.51 21.7653H109.487C109.115 21.5793 108.743 21.9514 108.557 22.1374C109.174 22.6173 109.865 22.9943 110.603 23.2536C111.719 23.6257 110.603 25.4861 111.905 25.4861C111.905 29.7649 112.463 34.0438 112.277 38.3226C112.091 42.6014 112.091 42.2294 112.277 44.2758C112.463 46.3222 112.277 46.5082 111.533 47.4384C111.017 48.1294 110.303 48.6482 109.487 48.9267C110.172 49.0256 110.87 48.8972 111.475 48.5612C112.08 48.2251 112.558 47.7 112.835 47.0663C113.035 47.3408 113.163 47.6604 113.208 47.9965V48.5546H114.138C114.324 47.8105 114.138 46.8803 114.324 46.1361C115.44 38.3226 114.51 30.5091 114.51 22.8816C115.337 24.4211 115.724 26.1594 115.626 27.9045C115.44 34.0437 115.068 40.369 114.696 46.5082L114.324 46.8803C114.472 47.0986 114.538 47.3622 114.51 47.6244C115.254 47.8105 115.626 48.5546 116.184 48.9267H115.626L123.254 49.2987L123.998 48.9267H127.904L132.741 49.2987C132.741 49.201 132.722 49.1043 132.685 49.014C132.647 48.9237 132.593 48.8417 132.523 48.7726C132.454 48.7035 132.372 48.6486 132.282 48.6112C132.192 48.5739 132.095 48.5546 131.997 48.5546H127.16C128.837 48.5854 130.514 48.5233 132.183 48.3686C131.041 48.0027 129.848 47.8145 128.649 47.8105C129.021 45.9501 129.579 43.9037 129.951 42.0433C129.999 40.9519 130.252 39.8792 130.695 38.8807C132.182 38.9738 133.673 38.9738 135.16 38.8807H131.625C131.253 38.6947 130.695 38.6947 130.695 38.3226C132.714 38.7293 134.78 38.8545 136.834 38.6947L137.764 39.0667H136.834C138.313 41.7103 139.261 44.6173 139.625 47.6244L137.578 47.9965C138.192 48.3771 138.903 48.5711 139.625 48.5546C139.625 48.5546 139.625 48.9267 139.811 48.9267H137.95L137.206 48.5546C136.834 48.7406 136.09 48.7406 135.904 49.2987C138.361 49.7328 140.87 49.7955 143.345 49.4848C143.384 49.6194 143.447 49.7456 143.532 49.8569ZM112.649 25.114C112.649 24.5559 112.463 23.8117 112.463 23.0676C112.463 22.3234 111.533 22.3234 111.161 21.9514C110.696 21.9954 110.231 21.8625 109.859 21.5793H111.347C111.533 22.1374 112.277 21.9514 112.649 22.1374V25.114ZM115.254 21.7653C116.173 21.4621 117.174 21.5288 118.045 21.9514L115.254 21.7653ZM137.95 29.5789V30.323C137.392 28.4626 136.09 26.7883 136.276 24.7419C136.722 26.3909 137.281 28.0071 137.95 29.5789ZM135.16 23.9978C135.532 26.0442 135.904 28.0906 136.09 30.137C135.869 28.6928 135.559 27.2637 135.16 25.8581L134.602 25.3L135.16 23.9978ZM134.416 26.7883V27.9045H133.858C133.95 27.4927 134.142 27.1097 134.416 26.7883ZM130.881 37.9505C131.217 35.8285 131.843 33.7628 132.741 31.8113C133.196 30.7245 133.57 29.6051 133.858 28.4626C134.715 31.7483 135.771 34.9789 137.02 38.1366C134.986 38.5377 132.887 38.4741 130.881 37.9505ZM135.346 30.8811C135.248 30.7114 135.196 30.519 135.196 30.323C135.196 30.1271 135.248 29.9346 135.346 29.7649C136.09 32.9275 137.95 35.7181 138.322 39.0667C137.206 36.2762 136.276 33.6717 135.346 30.8811ZM137.392 31.4392C138.193 32.9296 138.639 34.585 138.695 36.2762C138.136 34.6019 137.95 33.1136 137.392 31.4392ZM138.881 48.1825C138.881 47.8105 139.253 47.8105 139.439 47.9965C139.625 48.1825 139.253 48.3686 138.881 48.1825ZM142.601 45.7641C141.132 43.4528 140.18 40.8507 139.811 38.1366C140.741 40.7411 141.857 43.1595 142.601 45.7641ZM140.555 47.8105C140.369 47.2523 140.369 46.6942 140.183 46.1361C139.997 45.578 140.555 47.0663 141.113 47.0663C141.671 47.0663 141.671 47.8105 141.857 48.3686H140.555V47.8105ZM140.555 48.5546C140.797 48.4511 141.063 48.4137 141.324 48.4464C141.586 48.4791 141.834 48.5806 142.043 48.7406C141.485 48.7406 140.741 49.1127 140.555 48.5546ZM142.229 47.0663H142.787C142.937 47.4184 143.001 47.801 142.973 48.1825C142.595 47.916 142.33 47.518 142.229 47.0663Z" fill="#313033"/>
<path id="Vector_14" d="M109.301 48.5553C110.716 49.1351 112.274 49.265 113.766 48.9274L110.789 48.5553C110.417 48.5553 109.673 48.3693 109.301 48.5553Z" fill="#313033"/>
<path id="Vector_15" d="M94.0464 48.9268C93.8187 48.669 93.6872 48.3403 93.6744 47.9966V48.7407H92.7442V48.3687H91.2559V47.8105L88.2793 48.3687C88.8374 48.5547 89.5816 48.3687 90.1397 48.7407C89.4909 48.8127 88.8605 49.0018 88.2793 49.2988L94.0464 48.9268Z" fill="#313033"/>
<path id="Vector_16" d="M84.5577 48.7408V48.3688C83.0694 46.8805 81.2091 45.7642 79.9068 44.2759C80.6863 41.9882 81.1861 39.6144 81.3951 37.2066C81.5502 32.3665 81.4259 27.5215 81.023 22.6957H82.1393C82.3253 22.1376 81.2091 22.6957 80.837 22.5097V22.1376L82.6974 22.5097C83.2555 22.8817 83.8136 22.5097 84.1857 22.8817C84.5577 23.2538 84.7438 23.4398 84.9298 23.8119C85.6498 25.2344 86.2112 26.7317 86.6042 28.2768H87.5343C87.3483 25.6723 88.2785 23.0678 87.5343 20.6493C86.7902 18.2308 86.046 21.3934 85.3019 21.7655C84.0773 21.4864 82.8057 21.4864 81.5812 21.7655C81.023 21.9516 79.7208 21.2074 79.7208 22.3236C79.7293 22.2228 79.7173 22.1214 79.6853 22.0254C79.6533 21.9295 79.6021 21.841 79.5348 21.7655C78.7906 21.7655 78.0465 21.3934 77.3023 21.7655V21.3934C75.0699 21.5795 73.0235 21.3934 70.9771 21.3934L69.6748 21.7655H70.419C70.1968 23.9711 69.5659 26.1161 68.5586 28.0908H69.4888C69.7475 27.4093 70.1254 26.7793 70.605 26.2304C71.6881 24.9608 72.87 23.7788 74.1397 22.6957H76.1861C76.1861 25.6723 77.3023 28.4628 77.4884 31.4394C77.1751 34.8406 77.0508 38.2565 77.1163 41.6714C77.3035 43.0916 77.3035 44.5301 77.1163 45.9503C76.6316 47.0241 75.7716 47.884 74.6978 48.3688C74.1397 48.5548 73.5816 48.7408 73.3955 49.2989L79.1627 48.9269V48.3688C79.7792 48.2743 80.4065 48.2743 81.023 48.3688C82.4535 48.8872 83.9667 49.1394 85.4879 49.1129L84.5577 48.7408ZM86.046 21.9516C86.2321 22.3236 86.046 22.8817 85.86 22.8817L85.3019 22.3236C85.3225 22.2479 85.3589 22.1773 85.4087 22.1166C85.4585 22.0559 85.5205 22.0063 85.5908 21.9712C85.661 21.9361 85.7379 21.9162 85.8163 21.9128C85.8948 21.9094 85.973 21.9226 86.046 21.9516ZM71.1631 24.7421C71.3309 24.265 71.3943 23.7575 71.3491 23.2538L73.0235 22.5097L71.1631 24.7421ZM80.2789 25.3002C80.9628 30.5537 80.9001 35.8774 80.0929 41.1133C79.9068 39.253 80.0929 37.2066 79.9068 35.3462C79.7208 33.4858 80.2789 28.6489 80.2789 25.3002ZM77.4884 22.5097H78.0465V26.4164C77.6787 25.1467 77.4908 23.8316 77.4884 22.5097ZM75.0699 48.7408L77.4884 47.4386V47.9967C78.0465 47.9967 78.6046 48.1827 78.6046 48.7408H75.0699ZM78.9766 26.9745L79.5348 23.6259V26.9745H78.9766ZM79.9068 48.1827L79.3487 45.7642C79.6147 46.6384 80.1324 47.4149 80.837 47.9967L79.9068 48.1827ZM81.3951 47.6246C80.9152 47.0071 80.5383 46.316 80.2789 45.5782C81.3951 46.6944 82.8834 47.4386 83.9996 48.5548C83.0735 48.4406 82.184 48.123 81.3951 47.6246Z" fill="#313033"/>
<path id="Vector_17" d="M109.115 49.1146C109.301 49.4867 110.045 49.3006 110.417 49.3006C110.79 49.3006 109.487 48.9286 109.115 49.1146Z" fill="#313033"/>
<path id="Vector_18" d="M16.8418 58.6039H18.8882C18.7022 57.6737 17.2139 57.6737 16.8418 58.6039Z" fill="#313033"/>
<path id="Vector_19" d="M26.6944 56.1836H10.8887V56.7417H15.5396C17.9581 56.7417 23.3458 56.9277 25.7643 56.5557C25.9378 56.6206 26.1293 56.6184 26.3013 56.5496C26.4734 56.4808 26.6135 56.3503 26.6944 56.1836Z" fill="#313033"/>
<path id="Vector_20" d="M30.9654 57.8581H23.5239C22.9658 57.672 22.7798 58.0441 22.5938 58.4162C25.5674 58.6024 28.5498 58.6024 31.5235 58.4162C31.5235 58.2922 31.3375 58.1061 30.9654 57.8581Z" fill="#313033"/>
<path id="Vector_21" d="M32.082 58.6037H33.1982C33.0122 58.4176 33.0122 58.2316 32.6401 58.0456C32.2681 57.8595 32.082 58.2316 32.082 58.6037Z" fill="#313033"/>
<path id="Vector_22" d="M27.8105 56.1844C27.9966 56.3705 27.9966 56.7426 28.3687 56.7426C31.7173 56.5565 34.3145 57.1146 37.6631 56.7426C38.0352 56.7426 38.0352 56.3705 38.2213 56.1844C34.3145 55.9984 31.5313 55.9984 27.8105 56.1844Z" fill="#313033"/>
<path id="Vector_23" d="M34.5005 57.8584C33.7563 58.0444 34.8726 57.6724 34.1284 57.8584C33.3843 58.0444 33.7563 58.2305 33.5703 58.4165C34.9282 58.6026 36.3052 58.6026 37.6631 58.4165C37.4771 57.8584 35.0586 57.8584 34.5005 57.8584Z" fill="#313033"/>
<path id="Vector_24" d="M182.042 58.603H182.972V58.0449H181.856C181.848 58.1457 181.86 58.2472 181.892 58.3431C181.924 58.4391 181.975 58.5275 182.042 58.603Z" fill="#313033"/>
<path id="Vector_25" d="M158.422 56.1836C158.608 56.1836 158.794 56.7417 158.98 56.5557C162.509 56.8054 163.251 56.8675 166.786 56.7417H172.367V56.1836H158.422Z" fill="#313033"/>
<path id="Vector_26" d="M12.5625 57.8594C12.1904 57.8594 12.0044 58.2314 11.8184 58.4175H12.9346C12.9346 58.2314 12.7485 58.0454 12.5625 57.8594Z" fill="#313033"/>
<path id="Vector_27" d="M153.214 57.8592C153.028 58.0453 153.028 58.2313 152.842 58.6034H153.958C153.772 58.2313 153.586 57.6732 153.214 57.8592Z" fill="#313033"/>
<path id="Vector_28" d="M0.283203 58.603H1.21339V58.0449H0.283203V58.603Z" fill="#313033"/>
<path id="Vector_29" d="M9.95807 57.8586H6.98148C5.61879 57.7659 4.25136 57.7659 2.88867 57.8586V58.4167H10.7022C10.5162 58.2307 10.3301 57.8586 9.95807 57.8586Z" fill="#313033"/>
<path id="Vector_30" d="M1.58594 58.603H2.51612V58.0449H1.58594V58.603Z" fill="#313033"/>
<path id="Vector_31" d="M156.747 56.7426C157.119 56.7426 157.119 56.3705 157.305 56.1844C152.282 55.9984 151.918 55.9984 146.895 56.1844C147.081 56.3705 147.267 56.9286 147.639 56.9286H156.747V56.7426Z" fill="#313033"/>
<path id="Vector_32" d="M164.369 58.6039H166.416C166.043 57.6737 164.555 57.6737 164.369 58.6039Z" fill="#313033"/>
<path id="Vector_33" d="M170.693 57.8594L170.135 58.4175H171.437C171.251 58.2314 171.065 57.8594 170.693 57.8594Z" fill="#313033"/>
<path id="Vector_34" d="M180.74 58.603H181.67V58.0449H180.74V58.603Z" fill="#313033"/>
<path id="Vector_35" d="M158.794 57.8581H154.888C154.702 58.0441 154.516 58.2301 154.516 58.4162C156.247 58.6023 157.993 58.6023 159.725 58.4162C159.539 58.0441 159.353 57.672 158.794 57.8581Z" fill="#313033"/>
<path id="Vector_36" d="M149.686 57.8594C148.945 57.9528 148.195 57.9528 147.454 57.8594C147.268 58.0454 147.268 58.2315 147.268 58.6035H150.244C150.058 58.2315 150.058 57.8594 149.686 57.8594Z" fill="#313033"/>
<path id="Vector_37" d="M179.996 58.0441C178.758 57.9514 177.514 57.9514 176.275 58.0441H173.113L172.555 58.6022C175.156 58.7885 177.767 58.7885 180.368 58.6022C180.182 58.4162 180.182 58.0441 179.996 58.0441Z" fill="#313033"/>
<g id="Union">
<path d="M108.764 59.1861C108.5 59.1956 108.238 59.1386 108.001 59.0203C107.764 58.9021 107.561 58.7263 107.41 58.5091C107.229 58.082 107.152 57.618 107.185 57.1551C107.13 56.8749 107.142 56.5856 107.22 56.311C107.299 56.0364 107.441 55.7843 107.636 55.5755C107.73 55.3588 107.889 55.177 108.091 55.0555C108.294 54.9341 108.529 54.8792 108.764 54.8985H109.893L110.344 54.2215C110.135 54.0267 109.883 53.8842 109.609 53.8058C109.334 53.7273 109.045 53.7151 108.764 53.7702C108.377 53.7326 107.986 53.796 107.63 53.9542C107.274 54.1123 106.965 54.3599 106.733 54.6729C106.278 55.2504 106.039 55.9687 106.056 56.7038C106.007 57.1063 106.042 57.5147 106.158 57.9031C106.275 58.2915 106.471 58.6515 106.733 58.9604C106.93 59.2552 107.199 59.4936 107.516 59.6519C107.833 59.8102 108.185 59.883 108.539 59.8631C108.906 59.8942 109.275 59.8502 109.624 59.7338C109.973 59.6174 110.295 59.431 110.57 59.1861L110.118 58.2834C109.967 58.5191 109.769 58.721 109.536 58.8763C109.303 59.0316 109.04 59.1371 108.764 59.1861Z" fill="#313033"/>
<path fill-rule="evenodd" clip-rule="evenodd" d="M53.9288 56.7038C54.3801 56.2525 54.6058 56.0269 54.6058 55.5755C54.5902 55.1586 54.4308 54.7599 54.1544 54.4472C53.9456 54.2524 53.6935 54.1099 53.4189 54.0315C53.1443 53.953 52.855 53.9408 52.5748 53.9959H50.9952V59.8631H52.8005C53.0807 59.9182 53.37 59.906 53.6446 59.8275C53.9192 59.7491 54.1713 59.6066 54.3801 59.4118C54.5968 59.3181 54.7787 59.1589 54.9001 58.9565C55.0215 58.7541 55.0764 58.5187 55.0571 58.2835C55.0717 57.9321 54.9686 57.586 54.7642 57.2999C54.5598 57.0138 54.2658 56.804 53.9288 56.7038ZM52.1235 54.8985H52.5748C53.2518 54.8985 53.7031 55.1242 53.7031 55.5755C53.7031 56.0269 53.2518 56.2525 52.5748 56.2525H52.1235V54.8985ZM53.4775 58.9604H52.1235V56.9295H53.7031C53.7848 57.0211 53.8469 57.1283 53.8857 57.2447C53.9245 57.3611 53.9392 57.4842 53.9288 57.6065C54.0211 57.8496 54.0266 58.1172 53.9444 58.3639C53.8622 58.6106 53.6972 58.8213 53.4775 58.9604Z" fill="#313033"/>
<path fill-rule="evenodd" clip-rule="evenodd" d="M46.482 53.9959C46.1852 53.9864 45.8899 54.0421 45.617 54.1591C45.3441 54.276 45.1001 54.4514 44.9023 54.6729C44.4249 55.1689 44.11 55.7986 43.9997 56.4782H43.0971V53.9959H41.9688V59.8631H43.0971V57.3808H43.9997C44.0149 58.1107 44.2509 58.8188 44.6767 59.4118C44.8745 59.6332 45.1184 59.8086 45.3914 59.9256C45.6643 60.0425 45.9595 60.0982 46.2563 60.0888C46.644 60.1263 47.0347 60.063 47.3906 59.9048C47.7465 59.7466 48.0554 59.499 48.2873 59.1861C48.7759 58.5392 49.0161 57.7385 48.9642 56.9295C48.9809 56.1249 48.744 55.3355 48.2873 54.6729C48.0467 54.4453 47.7631 54.2682 47.453 54.152C47.143 54.0357 46.8128 53.9826 46.482 53.9959ZM47.3846 58.5091C47.159 58.9604 46.9333 59.1861 46.482 59.1861C46.2467 59.2055 46.0113 59.1506 45.8089 59.0291C45.6065 58.9077 45.4473 58.7258 45.3537 58.5091C45.128 58.2835 45.128 57.6065 45.128 56.9295C45.128 56.2526 45.128 55.8012 45.3537 55.5755C45.4473 55.3588 45.6065 55.177 45.8089 55.0555C46.0113 54.9341 46.2467 54.8792 46.482 54.8986C47.3846 54.8986 47.8359 55.5755 47.8359 56.9295C47.8274 57.4866 47.6717 58.0316 47.3846 58.5091Z" fill="#313033"/>
<path d="M60.9243 60.0887H57.088V54.2216H60.9243V55.1242H58.2163V56.4782H60.2473V57.3808H58.2163V59.1861H60.9243V60.0887Z" fill="#313033"/>
<path d="M64.3092 56.0268C64.3092 56.3995 64.2408 56.7038 64.1793 56.9774C64.1291 57.2007 64.0835 57.4036 64.0835 57.6065C63.8741 57.9562 63.7217 58.3371 63.6322 58.7348H62.7296V59.8631H63.6322L64.5348 58.9604C64.8355 58.3895 65.063 57.783 65.2118 57.1551C65.2118 56.8409 65.2604 56.5268 65.3125 56.19C65.3727 55.8012 65.4375 55.3823 65.4375 54.8985H66.5658V59.8631H67.6941V53.9959H64.7605C64.6477 54.3344 64.5913 54.6729 64.5348 55.0114C64.4784 55.3498 64.422 55.6883 64.3092 56.0268Z" fill="#313033"/>
<path d="M71.3047 54.2215V58.0578L74.2383 53.9959H74.6896V60.0887H73.7869V56.0268L70.6277 60.0887H70.1764V54.2215H71.3047Z" fill="#313033"/>
<path fill-rule="evenodd" clip-rule="evenodd" d="M78.3002 53.9959H76.9462V59.8631H78.0745V57.8321H78.5258C80.1055 57.8321 81.0081 57.1551 81.0081 55.8012C81.0429 55.5337 80.9971 55.262 80.8765 55.0207C80.7559 54.7795 80.566 54.5798 80.3311 54.4472L78.3002 53.9959ZM79.6541 56.7038H78.0745V54.6729H78.3002C79.4285 54.6729 79.8798 55.1242 79.8798 55.5755C79.8798 56.0268 79.8798 56.4782 79.6541 56.7038Z" fill="#313033"/>
<path d="M84.1673 56.4782H86.424V54.2216H87.5523V60.0887H86.424V57.3808H84.1673V60.0887H83.039V54.2216H84.1673V56.4782Z" fill="#313033"/>
<path fill-rule="evenodd" clip-rule="evenodd" d="M91.6142 53.9959L89.3575 59.8631H90.4859L90.9372 58.7348H92.9681L93.4195 59.8631H94.5478L92.0655 53.9959H91.6142ZM91.1628 58.0578L91.8398 55.8012L92.5168 58.0578H91.1628Z" fill="#313033"/>
<path fill-rule="evenodd" clip-rule="evenodd" d="M96.5787 55.8012C96.5934 55.3154 96.7503 54.8446 97.03 54.4472L98.8353 53.9959H100.641V60.3144H99.5123V58.0578H98.1583C97.882 58.3704 97.7225 58.7691 97.707 59.1861C97.707 59.3612 97.6662 59.534 97.5879 59.6907C97.5096 59.8473 97.3958 59.9836 97.2557 60.0887H96.1274V58.9604H96.5787C96.7093 58.8447 96.7901 58.683 96.8044 58.5091C96.7999 58.1859 96.9111 57.8717 97.1181 57.6234C97.325 57.3751 97.6139 57.209 97.9327 57.1551L96.8044 56.7038C96.6516 56.4278 96.5738 56.1166 96.5787 55.8012ZM99.061 56.7038H99.5123V55.1242H97.9327C97.707 55.1242 97.707 55.3498 97.707 55.8012C97.707 56.2525 98.1583 56.7038 99.061 56.7038Z" fill="#313033"/>
<path d="M114.18 55.1242H112.375V54.2216H117.114V55.1242H115.309V60.0887H114.18V55.1242Z" fill="#313033"/>
<path d="M121.401 57.3808L120.047 53.9959H118.693L120.95 58.2834L120.273 58.9604H119.37V60.0887C119.701 60.102 120.031 60.0489 120.342 59.9327C120.652 59.8164 120.935 59.6393 121.176 59.4117C121.782 58.852 122.246 58.1558 122.53 57.3808L123.884 53.9959H122.755C122.483 55.1878 122.026 56.3299 121.401 57.3808Z" fill="#313033"/>
<path fill-rule="evenodd" clip-rule="evenodd" d="M126.817 53.9959H129.525V59.1861H130.202V61.6684H129.3V59.8631H125.463V61.6684H124.561V59.1861H124.786C125.213 58.6171 125.59 58.0132 125.915 57.3808C126.332 56.2867 126.634 55.1524 126.817 53.9959ZM125.915 59.1861H128.623V54.8985H127.494C127.481 55.7697 127.248 56.6233 126.817 57.3808C126.657 58.043 126.348 58.6602 125.915 59.1861Z" fill="#313033"/>
<path d="M133.361 58.0578V54.2215H132.233V60.0887H132.684L135.844 56.0268V60.0887H136.972V53.9959H136.521L133.361 58.0578Z" fill="#313033"/>
<path fill-rule="evenodd" clip-rule="evenodd" d="M139.229 55.8012C139.243 55.3154 139.4 54.8446 139.68 54.4472L141.485 53.9959H143.291V60.3144H142.162V58.0578H140.808C140.532 58.3704 140.372 58.7691 140.357 59.1861L139.906 60.0887H138.777V58.9604H139.229C139.243 58.7865 139.324 58.6248 139.454 58.5091C139.45 58.1859 139.561 57.8717 139.768 57.6234C139.975 57.3751 140.264 57.209 140.583 57.1551L139.454 56.7038C139.301 56.4278 139.224 56.1166 139.229 55.8012ZM141.485 56.7038H142.162V55.1242H140.583C140.357 55.1242 140.131 55.3498 140.131 55.8012C140.131 56.2525 140.583 56.7038 141.485 56.7038Z" fill="#313033"/>
</g>
</g>
<defs>
<clipPath id="clip0_302_38889">
<rect width="184" height="60.2759" fill="white"/>
</clipPath>
</defs>
</svg>
