<svg width="0" height="0" class="hidden">
  <symbol fill="none" xmlns="http://www.w3.org/2000/svg" viewBox="0 0 24 24" id="ic_arr_hor">
    <path d="M8.36719 11.9991L13.1149 3.03125L14.8825 3.96703L10.6302 11.9991L14.8825 20.0312L13.1149 20.967L8.36719 11.9991Z" fill="currentColor"></path>
  </symbol>
  <symbol fill="none" xmlns="http://www.w3.org/2000/svg" viewBox="0 0 12 12" id="ic_arr_ver">
    <path d="M4 4.5L6 7.5L8 4.5" stroke="currentColor" stroke-linecap="square" stroke-linejoin="round"></path>
  </symbol>
  <symbol fill="none" xmlns="http://www.w3.org/2000/svg" viewBox="0 0 16 16" id="ic_arrow_hor">
    <path d="M9.2526 2.02148L12.4177 8.00007L9.2526 13.9787L8.07422 13.3548L10.5558 8.66732H3.33203V7.33398H10.5564L8.07422 2.64534L9.2526 2.02148Z" fill="currentColor"></path>
  </symbol>
  <symbol fill="none" xmlns="http://www.w3.org/2000/svg" viewBox="0 0 24 24" id="ic_arrow_ver">
    <path d="M20.967 8.11681L11.9992 3.36914L3.03125 8.11681L3.96703 9.88441L11 6.16107V21H13V6.16197L20.0312 9.88441L20.967 8.11681Z" fill="currentColor"></path>
  </symbol>
  <symbol fill="none" xmlns="http://www.w3.org/2000/svg" viewBox="0 0 24 24" id="ic_callback">
    <rect width="24" height="24" rx="12" fill="currentColor"></rect>
    <path d="M9.58188 14.6026L7.86041 12.0005L14.4998 12.0005C15.3282 12.0005 15.9998 12.6721 15.9998 13.5005C15.9998 14.3289 15.3282 15.0005 14.4998 15.0005H11.9998V17.0005H14.4998C16.4328 17.0005 17.9998 15.4335 17.9998 13.5005C17.9998 11.5675 16.4328 10.0005 14.4998 10.0005L7.86042 10.0005L9.58188 7.39843L7.91387 6.29492L4.80078 11.0005L7.91387 15.7061L9.58188 14.6026Z" fill="var(--color2)"></path>
  </symbol>
  <symbol fill="none" xmlns="http://www.w3.org/2000/svg" viewBox="0 0 16 16" id="ic_catalog">
    <path d="M14 4.66602H2V5.99935H14V4.66602Z" fill="currentColor"></path>
    <path d="M10 9.99935H2V11.3327H10V9.99935Z" fill="currentColor"></path>
  </symbol>
  <symbol fill="none" xmlns="http://www.w3.org/2000/svg" viewBox="0 0 24 24" id="ic_close">
    <path d="M12.0007 10.5865L16.9505 5.63672L18.3647 7.05093L13.4149 12.0007L18.3647 16.9504L16.9505 18.3646L12.0007 13.4149L7.05094 18.3646L5.63672 16.9504L10.5865 12.0007L5.63672 7.05093L7.05094 5.63672L12.0007 10.5865Z" fill="currentColor"></path>
  </symbol>
  <symbol fill="none" xmlns="http://www.w3.org/2000/svg" viewBox="0 0 32 32" id="ic_email">
    <path d="M15.9996 3.77539C9.26035 3.77539 3.77734 9.25839 3.77734 15.9976C3.77734 22.7368 9.26035 28.2198 15.9996 28.2198C19.2645 28.2198 22.3335 26.9487 24.6421 24.6401C24.841 24.4412 24.841 24.1189 24.6421 23.92C24.4431 23.7211 24.1208 23.7211 23.922 23.92C21.8058 26.0361 18.9925 27.2013 15.9996 27.2013C9.82181 27.2013 4.79585 22.1754 4.79585 15.9976C4.79585 9.81985 9.82181 4.79389 15.9996 4.79389C22.1773 4.79389 27.2033 9.81985 27.2033 15.9976V17.0161C27.2033 18.7011 25.8327 20.0717 24.1477 20.0717C22.4628 20.0717 21.0922 18.7011 21.0922 17.0161V12.4328C21.0922 12.3659 21.0791 12.2996 21.0535 12.2378C21.0279 12.176 20.9904 12.1199 20.9431 12.0726C20.8958 12.0253 20.8396 11.9878 20.7778 11.9622C20.716 11.9366 20.6498 11.9235 20.5829 11.9235C20.516 11.9235 20.4498 11.9366 20.388 11.9622C20.3261 11.9878 20.27 12.0253 20.2227 12.0726C20.1754 12.1199 20.1379 12.176 20.1123 12.2378C20.0867 12.2996 20.0736 12.3659 20.0736 12.4328V12.9736C19.1445 11.7257 17.6712 10.905 15.9996 10.905C13.1917 10.905 10.907 13.1897 10.907 15.9976C10.907 18.8055 13.1917 21.0902 15.9996 21.0902C17.8725 21.0902 19.4946 20.0623 20.3792 18.5521C20.9873 20.0384 22.4451 21.0902 24.1477 21.0902C26.3941 21.0902 28.2217 19.2626 28.2217 17.0162V15.9976C28.2218 9.25839 22.7388 3.77539 15.9996 3.77539ZM15.9996 20.0717C13.7532 20.0717 11.9255 18.244 11.9255 15.9976C11.9255 13.7512 13.7532 11.9236 15.9996 11.9236C18.246 11.9236 20.0736 13.7512 20.0736 15.9976C20.0736 18.244 18.246 20.0717 15.9996 20.0717Z" fill="currentColor"></path>
  </symbol>
  <symbol fill="none" xmlns="http://www.w3.org/2000/svg" viewBox="0 0 24 24" id="ic_favorite">
    <path d="M12.001 4.52853C14.35 2.42 17.98 2.49 20.2426 4.75736C22.5053 7.02472 22.583 10.637 20.4786 12.993L11.9999 21.485L3.52138 12.993C1.41705 10.637 1.49571 7.01901 3.75736 4.75736C6.02157 2.49315 9.64519 2.41687 12.001 4.52853ZM18.827 6.1701C17.3279 4.66794 14.9076 4.60701 13.337 6.01687L12.0019 7.21524L10.6661 6.01781C9.09098 4.60597 6.67506 4.66808 5.17157 6.17157C3.68183 7.66131 3.60704 10.0473 4.97993 11.6232L11.9999 18.6543L19.0201 11.6232C20.3935 10.0467 20.319 7.66525 18.827 6.1701Z" fill="currentColor"></path>
  </symbol>
  <symbol fill="none" xmlns="http://www.w3.org/2000/svg" viewBox="0 0 16 16" id="ic_favorite_a">
    <path d="M7.99936 3.01902C9.56536 1.61333 11.9854 1.66 13.4938 3.17157C15.0022 4.68315 15.054 7.09133 13.6511 8.662L7.99863 14.3233L2.34628 8.662C0.943397 7.09133 0.995837 4.67934 2.5036 3.17157C4.01308 1.6621 6.42882 1.61125 7.99936 3.01902Z" fill="currentColor"></path>
  </symbol>
  <symbol fill="none" xmlns="http://www.w3.org/2000/svg" viewBox="0 0 16 16" id="ic_email2">
    <path d="M1.33203 4.66699L6.77531 8.47729C7.21609 8.78583 7.43648 8.94011 7.67621 8.99986C7.88796 9.05265 8.10943 9.05265 8.32119 8.99986C8.56091 8.94011 8.7813 8.78583 9.22208 8.47729L14.6654 4.66699M4.53203 13.3337H11.4654C12.5855 13.3337 13.1455 13.3337 13.5733 13.1157C13.9497 12.9239 14.2556 12.618 14.4474 12.2416C14.6654 11.8138 14.6654 11.2538 14.6654 10.1337V5.86699C14.6654 4.74689 14.6654 4.18683 14.4474 3.75901C14.2556 3.38269 13.9497 3.07673 13.5733 2.88498C13.1455 2.66699 12.5855 2.66699 11.4654 2.66699H4.53203C3.41193 2.66699 2.85187 2.66699 2.42405 2.88498C2.04773 3.07673 1.74176 3.38269 1.55002 3.75901C1.33203 4.18683 1.33203 4.74689 1.33203 5.86699V10.1337C1.33203 11.2538 1.33203 11.8138 1.55002 12.2416C1.74176 12.618 2.04773 12.9239 2.42405 13.1157C2.85187 13.3337 3.41193 13.3337 4.53203 13.3337Z" stroke="currentColor" stroke-width="0.75" stroke-linecap="round" stroke-linejoin="round"></path>
  </symbol>
  <symbol fill="none" xmlns="http://www.w3.org/2000/svg" viewBox="0 0 32 32" id="ic_gift">
    <path fill-rule="evenodd" clip-rule="evenodd" d="M8.00521 7.97975C8.00521 8.78389 8.30951 9.55666 8.85436 10.1441H8.70648C8.12611 10.1441 7.65955 10.1441 7.28207 10.1749C6.89391 10.2066 6.55531 10.2735 6.24279 10.4327C5.74451 10.6866 5.33939 11.0917 5.08551 11.59C4.92627 11.9025 4.85942 12.2411 4.82771 12.6293C4.79687 13.0068 4.79687 13.4733 4.79688 14.0537L4.79688 23.2947C4.79687 23.8751 4.79687 24.3416 4.82771 24.7191C4.85942 25.1072 4.92627 25.4458 5.08551 25.7584C5.33939 26.2566 5.74451 26.6618 6.24279 26.9156C6.55531 27.0749 6.89391 27.1417 7.28207 27.1734C7.65954 27.2043 8.12608 27.2043 8.70643 27.2043H15.9988L16.0006 27.2043L16.0023 27.2043H23.2945C23.8749 27.2043 24.3416 27.2043 24.7191 27.1735C25.1072 27.1417 25.4458 27.0749 25.7584 26.9157C26.2567 26.6618 26.6618 26.2566 26.9157 25.7584C27.0749 25.4458 27.1417 25.1072 27.1735 24.7191C27.2043 24.3416 27.2043 23.8751 27.2043 23.2947V14.0537C27.2043 13.4733 27.2043 13.0068 27.1735 12.6293C27.1417 12.2411 27.0749 11.9025 26.9157 11.59C26.6618 11.0917 26.2566 10.6866 25.7584 10.4327C25.4458 10.2735 25.1072 10.2066 24.7191 10.1749C24.3416 10.1441 23.8751 10.1441 23.2947 10.1441H23.1468C23.6916 9.55666 23.9959 8.78389 23.9959 7.97975C23.9959 7.1356 23.6606 6.32602 23.0637 5.72912C22.4668 5.13221 21.6572 4.79688 20.8131 4.79688C18.6584 4.79688 17.322 6.34332 16.557 7.73432C16.3307 8.14578 16.1471 8.55562 16.0006 8.92932C15.8541 8.55562 15.6705 8.14578 15.4442 7.73432C14.6791 6.34332 13.3428 4.79688 11.1881 4.79688C10.3439 4.79688 9.53435 5.13221 8.93745 5.72912C8.34055 6.32602 8.00521 7.1356 8.00521 7.97975ZM9.65765 6.44932C10.0635 6.04342 10.6141 5.81539 11.1881 5.81539C12.7764 5.81539 13.8463 6.94256 14.5518 8.22517C14.8986 8.85575 15.1373 9.49107 15.2895 9.97159C15.3086 10.0318 15.3262 10.0894 15.3425 10.1441H11.1881C10.6141 10.1441 10.0635 9.91607 9.65765 9.51017C9.25176 9.10428 9.02373 8.55377 9.02373 7.97975C9.02373 7.40572 9.25176 6.85521 9.65765 6.44932ZM15.4913 17.6302V11.1626L8.72836 11.1626C8.12101 11.1626 7.69613 11.163 7.36501 11.1901C7.03984 11.2166 6.8502 11.2663 6.70519 11.3402C6.39855 11.4965 6.14925 11.7458 5.99301 12.0524C5.91913 12.1974 5.86941 12.3871 5.84284 12.7122C5.81579 13.0433 5.81539 13.4682 5.81539 14.0756V17.6302H15.4913ZM5.81539 23.2728L5.81539 18.6487H15.4913L15.4913 26.1858L8.72836 26.1858C8.12101 26.1858 7.69612 26.1854 7.36501 26.1583C7.03984 26.1317 6.8502 26.082 6.70519 26.0081C6.39855 25.8519 6.14925 25.6026 5.99301 25.296C5.91913 25.151 5.86941 24.9613 5.84284 24.6361C5.81579 24.305 5.81539 23.8801 5.81539 23.2728ZM16.5098 26.1858L16.5098 18.6487H26.1858V23.2728C26.1858 23.8801 26.1854 24.305 26.1583 24.6362C26.1317 24.9613 26.082 25.151 26.0081 25.296C25.8519 25.6026 25.6026 25.8519 25.296 26.0081C25.151 26.082 24.9613 26.1317 24.6362 26.1583C24.305 26.1854 23.8801 26.1858 23.2728 26.1858L16.5098 26.1858ZM26.1858 14.0756V17.6302H16.5098L16.5098 11.1626L23.2728 11.1626C23.8801 11.1626 24.305 11.163 24.6362 11.1901C24.9613 11.2166 25.151 11.2664 25.296 11.3402C25.6026 11.4965 25.8519 11.7458 26.0081 12.0524C26.082 12.1974 26.1317 12.3871 26.1583 12.7122C26.1854 13.0433 26.1858 13.4682 26.1858 14.0756ZM16.7117 9.97159C16.6926 10.0318 16.675 10.0894 16.6587 10.1441H20.8131C21.3871 10.1441 21.9376 9.91607 22.3435 9.51017C22.7494 9.10428 22.9774 8.55377 22.9774 7.97975C22.9774 7.40572 22.7494 6.85521 22.3435 6.44932C21.9376 6.04342 21.3871 5.81539 20.8131 5.81539C19.2247 5.81539 18.1548 6.94256 17.4494 8.22517C17.1026 8.85575 16.8638 9.49107 16.7117 9.97159Z" fill="currentColor"></path>
  </symbol>
  <symbol fill="none" xmlns="http://www.w3.org/2000/svg" viewBox="0 0 16 16" id="ic_instagram">
    <path id="Vector" fill-rule="evenodd" clip-rule="evenodd" d="M7.99871 6.00065C6.89378 6.00065 5.9987 6.89605 5.9987 8.00065C5.9987 9.10552 6.89411 10.0006 7.99871 10.0006C9.10358 10.0006 9.99871 9.10525 9.99871 8.00065C9.99871 6.89578 9.10331 6.00065 7.99871 6.00065ZM7.99871 4.66732C9.83898 4.66732 11.332 6.15872 11.332 8.00065C11.332 9.84098 9.84065 11.334 7.99871 11.334C6.15839 11.334 4.66536 9.84258 4.66536 8.00065C4.66536 6.16034 6.15677 4.66732 7.99871 4.66732ZM7.99871 1.33398C9.80978 1.33398 10.0359 1.34065 10.747 1.37398C11.4564 1.40676 11.9404 1.51898 12.3654 1.68398C12.8048 1.85343 13.1759 2.08232 13.5464 2.45287C13.9164 2.82343 14.1454 3.19565 14.3154 3.63398C14.4798 4.05843 14.592 4.54287 14.6254 5.25232C14.657 5.96343 14.6654 6.18954 14.6654 8.00065C14.6654 9.81178 14.6587 10.0378 14.6254 10.749C14.5926 11.4584 14.4798 11.9423 14.3154 12.3673C14.1459 12.8068 13.9164 13.1778 13.5464 13.5484C13.1759 13.9184 12.8031 14.1473 12.3654 14.3173C11.9404 14.4818 11.4564 14.594 10.747 14.6273C10.0359 14.659 9.80978 14.6673 7.99871 14.6673C6.18759 14.6673 5.96147 14.6606 5.25036 14.6273C4.54092 14.5945 4.05758 14.4818 3.63203 14.3173C3.19314 14.1478 2.82147 13.9184 2.45092 13.5484C2.08036 13.1778 1.85203 12.8051 1.68203 12.3673C1.51703 11.9423 1.40536 11.4584 1.37203 10.749C1.34036 10.0378 1.33203 9.81178 1.33203 8.00065C1.33203 6.18954 1.3387 5.96343 1.37203 5.25232C1.4048 4.54232 1.51703 4.05898 1.68203 3.63398C1.85147 3.1951 2.08036 2.82343 2.45092 2.45287C2.82147 2.08232 3.1937 1.85398 3.63203 1.68398C4.05703 1.51898 4.54036 1.40732 5.25036 1.37398C5.96147 1.34232 6.18759 1.33398 7.99871 1.33398ZM11.4987 5.33343C11.9582 5.33343 12.332 4.96016 12.332 4.50008C12.332 4.04058 11.9576 3.66674 11.4987 3.66732C11.0392 3.66732 10.6654 4.04058 10.6654 4.50008C10.6654 4.95958 11.0386 5.33343 11.4987 5.33343Z" fill="currentColor"></path>
  </symbol>
  <symbol fill="none" xmlns="http://www.w3.org/2000/svg" viewBox="0 0 24 24" id="ic_phone">
    <path d="M9.36556 10.6821C10.302 12.3288 11.6712 13.698 13.3179 14.6344L14.2024 13.3961C14.4965 12.9845 15.0516 12.8573 15.4956 13.0998C16.9024 13.8683 18.4571 14.3353 20.0789 14.4637C20.599 14.5049 21 14.9389 21 15.4606V19.9234C21 20.4361 20.6122 20.8657 20.1022 20.9181C19.5723 20.9726 19.0377 21 18.5 21C9.93959 21 3 14.0604 3 5.5C3 4.96227 3.02742 4.42771 3.08189 3.89776C3.1343 3.38775 3.56394 3 4.07665 3H8.53942C9.0611 3 9.49513 3.40104 9.5363 3.92109C9.66467 5.54288 10.1317 7.09764 10.9002 8.50444C11.1427 8.9484 11.0155 9.50354 10.6039 9.79757L9.36556 10.6821ZM6.84425 10.0252L8.7442 8.66809C8.20547 7.50514 7.83628 6.27183 7.64727 5H5.00907C5.00303 5.16632 5 5.333 5 5.5C5 12.9558 11.0442 19 18.5 19C18.667 19 18.8337 18.997 19 18.9909V16.3527C17.7282 16.1637 16.4949 15.7945 15.3319 15.2558L13.9748 17.1558C13.4258 16.9425 12.8956 16.6915 12.3874 16.4061L12.3293 16.373C10.3697 15.2587 8.74134 13.6303 7.627 11.6707L7.59394 11.6126C7.30849 11.1044 7.05754 10.5742 6.84425 10.0252Z" fill="currentColor"></path>
  </symbol>
  <symbol fill="none" xmlns="http://www.w3.org/2000/svg" viewBox="0 0 17 16" id="ic_plus">
    <path d="M7.83594 7.33398V3.33398H9.16927V7.33398H13.1693V8.66732H9.16927V12.6673H7.83594V8.66732H3.83594V7.33398H7.83594Z" fill="currentColor"></path>
  </symbol>
  <symbol fill="none" xmlns="http://www.w3.org/2000/svg" viewBox="0 0 24 24" id="ic_search">
    <path fill-rule="evenodd" clip-rule="evenodd" d="M19.1111 11.0556C19.1111 13.1001 18.3494 14.9668 17.0943 16.3872L21.2071 20.5L20.5 21.2071L16.3872 17.0943C14.9668 18.3494 13.1001 19.1111 11.0556 19.1111C6.6066 19.1111 3 15.5045 3 11.0556C3 6.6066 6.6066 3 11.0556 3C15.5045 3 19.1111 6.6066 19.1111 11.0556ZM4 11.0556C4 7.15888 7.15888 4 11.0556 4C14.9522 4 18.1111 7.15888 18.1111 11.0556C18.1111 12.8742 17.423 14.5322 16.293 15.7833L15.7833 16.293C14.5322 17.423 12.8742 18.1111 11.0556 18.1111C7.15888 18.1111 4 14.9522 4 11.0556Z" fill="currentColor"></path>
  </symbol>
  <symbol fill="none" xmlns="http://www.w3.org/2000/svg" viewBox="0 0 24 24" id="ic_search2">
    <path d="M18.031 16.6168L22.3137 20.8995L20.8995 22.3137L16.6168 18.031C15.0769 19.263 13.124 20 11 20C6.032 20 2 15.968 2 11C2 6.032 6.032 2 11 2C15.968 2 20 6.032 20 11C20 13.124 19.263 15.0769 18.031 16.6168ZM16.0247 15.8748C17.2475 14.6146 18 12.8956 18 11C18 7.1325 14.8675 4 11 4C7.1325 4 4 7.1325 4 11C4 14.8675 7.1325 18 11 18C12.8956 18 14.6146 17.2475 15.8748 16.0247L16.0247 15.8748Z" fill="currentColor"></path>
  </symbol>
  <symbol fill="none" xmlns="http://www.w3.org/2000/svg" viewBox="0 0 24 24" id="ic_star">
    <path d="M11.2827 3.45258C11.5131 2.98564 11.6284 2.75218 11.7848 2.67758C11.9209 2.61268 12.0791 2.61268 12.2152 2.67758C12.3717 2.75218 12.4869 2.98564 12.7174 3.45258L14.9041 7.88255C14.9721 8.0204 15.0061 8.08933 15.0558 8.14284C15.0999 8.19023 15.1527 8.22862 15.2113 8.25589C15.2776 8.28669 15.3536 8.29781 15.5057 8.32004L20.397 9.03497C20.9121 9.11026 21.1696 9.1479 21.2888 9.2737C21.3925 9.38316 21.4412 9.53356 21.4215 9.68304C21.3988 9.85485 21.2124 10.0364 20.8395 10.3996L17.3014 13.8457C17.1912 13.9531 17.136 14.0068 17.1004 14.0707C17.0689 14.1273 17.0487 14.1895 17.0409 14.2538C17.0321 14.3264 17.0451 14.4023 17.0711 14.554L17.906 19.4214C17.994 19.9348 18.038 20.1914 17.9553 20.3438C17.8833 20.4763 17.7554 20.5693 17.6071 20.5967C17.4366 20.6283 17.2061 20.5071 16.7451 20.2647L12.3724 17.9651C12.2361 17.8935 12.168 17.8576 12.0962 17.8436C12.0327 17.8311 11.9673 17.8311 11.9038 17.8436C11.832 17.8576 11.7639 17.8935 11.6277 17.9651L7.25492 20.2647C6.79392 20.5071 6.56341 20.6283 6.39297 20.5967C6.24468 20.5693 6.11672 20.4763 6.04474 20.3438C5.962 20.1914 6.00603 19.9348 6.09407 19.4214L6.92889 14.554C6.95491 14.4023 6.96793 14.3264 6.95912 14.2538C6.95132 14.1895 6.93111 14.1273 6.89961 14.0707C6.86402 14.0068 6.80888 13.9531 6.69859 13.8457L3.16056 10.3996C2.78766 10.0364 2.60121 9.85485 2.57853 9.68304C2.55879 9.53356 2.60755 9.38316 2.71125 9.2737C2.83044 9.1479 3.08797 9.11026 3.60304 9.03497L8.49431 8.32004C8.64642 8.29781 8.72248 8.28669 8.78872 8.25589C8.84736 8.22862 8.90016 8.19023 8.94419 8.14284C8.99391 8.08933 9.02793 8.0204 9.09597 7.88255L11.2827 3.45258Z" fill="currentColor" stroke="currentColor" stroke-width="0.75" stroke-linecap="round" stroke-linejoin="round"></path>
  </symbol>
  <symbol fill="none" xmlns="http://www.w3.org/2000/svg" viewBox="0 0 24 24" id="ic_tg">
    <rect width="24" height="24" rx="12" fill="currentColor"></rect>
    <path d="M15.9314 6.35345C15.9314 6.35345 16.9949 5.85579 16.9063 7.06443C16.8768 7.56212 16.6109 9.30399 16.4041 11.188L15.695 16.7692C15.695 16.7692 15.6359 17.5868 15.1041 17.729C14.5723 17.8712 13.7746 17.2313 13.6269 17.0891C13.5087 16.9825 11.411 15.3828 10.6724 14.6007C10.4656 14.3874 10.2292 13.9608 10.7019 13.4631L13.8042 9.90832C14.1587 9.48175 14.5132 8.48638 13.036 9.69502L8.89976 13.0721C8.89976 13.0721 8.42703 13.4276 7.54071 13.1077L5.62031 12.3967C5.62031 12.3967 4.91124 11.8635 6.12257 11.3302C9.07703 9.65945 12.711 7.95313 15.9314 6.35345Z" fill="var(--color2)"></path>
  </symbol>
  <symbol fill="none" xmlns="http://www.w3.org/2000/svg" viewBox="0 0 16 16" id="ic_tg2">
    <path d="M14.2418 0.471264C14.2418 0.471264 15.6599 -0.192279 15.5418 1.41925C15.5024 2.08283 15.1478 4.40532 14.8721 6.9174L13.9266 14.3589C13.9266 14.3589 13.8479 15.449 13.1388 15.6386C12.4297 15.8282 11.3661 14.9751 11.1692 14.7855C11.0116 14.6433 8.21473 12.5104 7.2299 11.4676C6.95414 11.1832 6.63899 10.6144 7.26927 9.95086L11.4055 5.2111C11.8783 4.64233 12.3509 3.31517 10.3813 4.9267L4.86635 9.42952C4.86635 9.42952 4.23604 9.90347 3.05429 9.4769L0.49375 8.52896C0.49375 8.52896 -0.45168 7.81799 1.16343 7.10699C5.10271 4.87927 9.94803 2.60417 14.2418 0.471264Z" fill="currentColor"></path>
  </symbol>
  <symbol fill="none" xmlns="http://www.w3.org/2000/svg" viewBox="0 0 16 16" id="ic_time">
    <path d="M8.00065 1.33398C11.6825 1.33398 14.6673 4.31875 14.6673 8.00065C14.6673 11.6825 11.6825 14.6673 8.00065 14.6673C4.31875 14.6673 1.33398 11.6825 1.33398 8.00065H2.66732C2.66732 10.9462 5.05513 13.334 8.00065 13.334C10.9462 13.334 13.334 10.9462 13.334 8.00065C13.334 5.05513 10.9462 2.66732 8.00065 2.66732C6.16746 2.66732 4.5503 3.59221 3.59032 5.00081L5.33398 5.00065V6.33398H1.33398V2.33398H2.66732L2.66724 4.0001C3.88354 2.38115 5.8198 1.33398 8.00065 1.33398ZM8.66732 4.66732L8.66718 7.72398L10.8291 9.88625L9.88625 10.8291L7.33385 8.27598L7.33398 4.66732H8.66732Z" fill="currentColor"></path>
  </symbol>
  <symbol fill="none" xmlns="http://www.w3.org/2000/svg" viewBox="0 0 20 21" id="ic_user">
    <path d="M4.43155 16.699C4.93849 15.5047 6.12207 14.667 7.5013 14.667H12.5013C13.8805 14.667 15.0641 15.5047 15.5711 16.699M13.3346 8.41699C13.3346 10.2579 11.8423 11.7503 10.0013 11.7503C8.16035 11.7503 6.66797 10.2579 6.66797 8.41699C6.66797 6.57604 8.16035 5.08366 10.0013 5.08366C11.8423 5.08366 13.3346 6.57604 13.3346 8.41699ZM18.3346 10.5003C18.3346 15.1027 14.6037 18.8337 10.0013 18.8337C5.39893 18.8337 1.66797 15.1027 1.66797 10.5003C1.66797 5.89795 5.39893 2.16699 10.0013 2.16699C14.6037 2.16699 18.3346 5.89795 18.3346 10.5003Z" stroke="currentColor" stroke-width="1.25" stroke-linejoin="round"></path>
  </symbol>
  <symbol fill="none" xmlns="http://www.w3.org/2000/svg" viewBox="0 0 24 24" id="ic_video_pause">
    <path d="M15 7C15 6.44772 15.4477 6 16 6C16.5523 6 17 6.44772 17 7V17C17 17.5523 16.5523 18 16 18C15.4477 18 15 17.5523 15 17V7ZM7 7C7 6.44772 7.44772 6 8 6C8.55228 6 9 6.44772 9 7V17C9 17.5523 8.55228 18 8 18C7.44772 18 7 17.5523 7 17V7Z" fill="currentColor"></path>
  </symbol>
  <symbol fill="none" xmlns="http://www.w3.org/2000/svg" viewBox="0 0 24 24" id="ic_video_play">
    <path d="M7.75194 5.4392L18.2596 11.5687C18.4981 11.7078 18.5787 12.014 18.4396 12.2525C18.3961 12.327 18.3341 12.389 18.2596 12.4325L7.75194 18.562C7.51341 18.7011 7.20725 18.6205 7.06811 18.382C7.0235 18.3055 7 18.2186 7 18.1301V5.87109C7 5.59494 7.22386 5.37109 7.5 5.37109C7.58853 5.37109 7.67547 5.39459 7.75194 5.4392Z" fill="currentColor"></path>
  </symbol>
  <symbol fill="none" xmlns="http://www.w3.org/2000/svg" viewBox="0 0 16 16" id="ic_vk">
    <path d="M8.63685 12.4455C3.77767 12.4455 1.00611 9.10886 0.890625 3.55664H3.32466C3.40461 7.63183 5.199 9.358 6.62033 9.71391V3.55664H8.91232V7.07127C10.3159 6.92 11.7903 5.3184 12.2878 3.55664H14.5798C14.1978 5.7277 12.5988 7.3293 11.4617 7.98774C12.5988 8.52161 14.4199 9.91856 15.1128 12.4455H12.5899C12.048 10.7549 10.6979 9.44697 8.91232 9.26902V12.4455H8.63685Z" fill="currentColor"></path>
  </symbol>
  <symbol fill="none" xmlns="http://www.w3.org/2000/svg" viewBox="0 0 24 24" id="ic_whatsapp">
    <path d="M12 0C5.3832 0 0 5.38281 0 12C0 14.3281 0.667578 16.5727 1.93477 18.5219L0.0648438 22.8852C-0.0640625 23.1852 0.00312502 23.5344 0.234375 23.7656C0.3875 23.9188 0.592188 24 0.8 24C0.90625 24 1.01367 23.9789 1.11523 23.9352L5.47852 22.0648C7.42734 23.3328 9.67188 24 12 24C18.6172 24 24 18.6172 24 12C24 5.38281 18.6172 0 12 0Z" fill="currentColor"></path>
    <path d="M18.1523 16.2937C18.1523 16.2937 17.1546 17.5734 16.4335 17.8726C14.6007 18.6312 12.0132 17.8726 9.06556 14.9257C6.11868 11.978 5.3597 9.39054 6.11868 7.55773C6.4179 6.83586 7.69759 5.83898 7.69759 5.83898C8.04446 5.56867 8.58353 5.60226 8.89446 5.9132L10.3421 7.36086C10.6531 7.67179 10.6531 8.18117 10.3421 8.49211L9.43353 9.39992C9.43353 9.39992 9.06556 10.5046 11.2757 12.7155C13.4859 14.9257 14.5913 14.5577 14.5913 14.5577L15.4992 13.6491C15.8101 13.3382 16.3195 13.3382 16.6304 13.6491L18.0781 15.0968C18.389 15.4077 18.4226 15.946 18.1523 16.2937Z" fill="var(--color2)"></path>
  </symbol>
  <symbol fill="none" xmlns="http://www.w3.org/2000/svg" viewBox="0 0 20 16" id="ic_youtube">
    <path fill-rule="evenodd" clip-rule="evenodd" d="M18.9355 1.64873C19.2458 1.98101 19.4692 2.39467 19.5835 2.84838C19.9951 4.51798 20 8.00353 20 8.00353C20 8.00353 20 11.4891 19.5835 13.1587C19.4692 13.6124 19.2458 14.026 18.9355 14.3583C18.6252 14.6906 18.239 14.9299 17.8153 15.0522C16.2562 15.5 10 15.5 10 15.5C10 15.5 3.74547 15.5 2.18637 15.0522C1.76254 14.9302 1.3761 14.691 1.06576 14.3587C0.75543 14.0264 0.532108 13.6125 0.418175 13.1587C0 11.4891 0 8.00353 0 8.00353C0 8.00353 0 4.51798 0.418175 2.84838C0.531098 2.39321 0.753972 1.97792 1.06437 1.64428C1.37477 1.31064 1.76175 1.07043 2.18637 0.947814C3.74383 0.5 10 0.5 10 0.5C10 0.5 16.2545 0.5 17.8153 0.954866C18.239 1.0772 18.6252 1.31646 18.9355 1.64873ZM12.5 8L7.5 10.5V5.5L12.5 8Z" fill="currentColor"></path>
  </symbol>
</svg>