<svg width="32" height="32" viewBox="0 0 32 32" fill="none" xmlns="http://www.w3.org/2000/svg">
<g id="yandex-logo">
<path id="Vector" d="M0 16C0 7.1632 7.1616 0 16 0C24.8352 0 32 7.1632 32 16C32 24.8368 24.8352 32 16 32C7.1616 32 0 24.8368 0 16Z" fill="#FC3F1D"/>
<path id="Vector_2" d="M18.0468 9.06569H16.5684C13.858 9.06569 12.4324 10.4385 12.4324 12.4625C12.4324 14.7505 13.418 15.8225 15.442 17.1969L17.114 18.3233L12.3092 25.5025H8.71875L13.0308 19.0801C10.5508 17.3025 9.15875 15.5761 9.15875 12.6561C9.15875 8.99529 11.7108 6.49609 16.5508 6.49609H21.3556V25.4849H18.0468V9.06569Z" fill="white"/>
</g>
</svg>
