<svg width="20" height="20" viewBox="0 0 20 20" fill="none" xmlns="http://www.w3.org/2000/svg">
<path d="M9.99935 10.6673C10.3675 10.6673 10.666 10.3688 10.666 10.0007C10.666 9.63246 10.3675 9.33398 9.99935 9.33398C9.63116 9.33398 9.33268 9.63246 9.33268 10.0007C9.33268 10.3688 9.63116 10.6673 9.99935 10.6673Z" stroke="currentColor" stroke-width="0.75" stroke-linecap="round" stroke-linejoin="round"/>
<path d="M13.666 10.6673C14.0342 10.6673 14.3327 10.3688 14.3327 10.0007C14.3327 9.63246 14.0342 9.33398 13.666 9.33398C13.2978 9.33398 12.9993 9.63246 12.9993 10.0007C12.9993 10.3688 13.2978 10.6673 13.666 10.6673Z" stroke="currentColor" stroke-width="0.75" stroke-linecap="round" stroke-linejoin="round"/>
<path d="M6.33268 10.6673C6.70087 10.6673 6.99935 10.3688 6.99935 10.0007C6.99935 9.63246 6.70087 9.33398 6.33268 9.33398C5.96449 9.33398 5.66602 9.63246 5.66602 10.0007C5.66602 10.3688 5.96449 10.6673 6.33268 10.6673Z" stroke="currentColor" stroke-width="0.75" stroke-linecap="round" stroke-linejoin="round"/>
<path d="M10 17C13.866 17 17 13.866 17 10C17 6.13401 13.866 3 10 3C6.13401 3 3 6.13401 3 10C3 13.866 6.13401 17 10 17Z" stroke="currentColor" stroke-width="0.75" stroke-linecap="round" stroke-linejoin="round"/>
</svg>
