<svg width="20" height="20" viewBox="0 0 20 20" fill="none" xmlns="http://www.w3.org/2000/svg">
<path d="M3.76299 12.5835C3.77485 12.612 3.79238 12.636 3.8124 12.6572C3.81436 12.6595 3.81509 12.6625 3.81719 12.6646L7.33379 16.1812L7.33472 16.1822L7.33545 16.1829C7.35625 16.2037 7.38125 16.2186 7.40723 16.2308C7.41079 16.2325 7.41289 16.2355 7.4165 16.2371C7.44681 16.2497 7.4793 16.2562 7.51211 16.2562H12.488C12.5198 16.2562 12.5521 16.25 12.5835 16.2371C12.5872 16.2355 12.5893 16.2325 12.5927 16.2308C12.6188 16.2186 12.6438 16.2037 12.6646 16.1829L12.6652 16.1821L12.6663 16.1812L16.1827 12.6646C16.1848 12.6625 16.1855 12.6595 16.1876 12.6572C16.2075 12.636 16.225 12.612 16.2369 12.5835C16.2495 12.5534 16.2559 12.521 16.2559 12.4878V7.5123C16.2559 7.47946 16.2495 7.44692 16.2369 7.41657C16.2244 7.38622 16.2059 7.35866 16.1827 7.33545L16.1815 7.33433C16.1815 7.33413 16.1814 7.33413 16.1814 7.33413L12.6663 3.8189C12.666 3.81852 12.6656 3.81819 12.6652 3.81792L12.6646 3.81719C12.6438 3.79639 12.6188 3.7813 12.5927 3.76909C12.5893 3.76763 12.5872 3.76436 12.5835 3.76299C12.5828 3.76265 12.582 3.76279 12.5813 3.76245C12.5516 3.75034 12.5198 3.74404 12.4878 3.7439H7.5123C7.47983 3.7439 7.44819 3.75059 7.4188 3.76245C7.41807 3.76279 7.41733 3.76265 7.41655 3.76299C7.41289 3.76436 7.41079 3.76758 7.40718 3.76909C7.38125 3.7813 7.35625 3.79639 7.33545 3.81719L7.33472 3.81792C7.33433 3.81812 7.33413 3.81851 7.33374 3.8189L3.8189 7.33374C3.8187 7.33413 3.81831 7.33433 3.81812 7.33472L3.81714 7.33545C3.77026 7.38237 3.74392 7.44598 3.7439 7.5123V12.4878C3.7439 12.521 3.75059 12.5534 3.76299 12.5835ZM7.42437 4.43516L8.40566 6.80444L6.80444 8.40586L4.4353 7.42437L7.42437 4.43516ZM15.5647 7.42437L13.1956 8.40586L11.5944 6.80444L12.5755 4.43516L15.5647 7.42437ZM15.7561 12.1136L13.3869 11.1322V8.86768L15.7561 7.88638V12.1136ZM12.5755 15.5647L11.5944 13.1956L13.1956 11.5942L15.5647 12.5755L12.5755 15.5647ZM4.43535 12.5755L6.80449 11.5942L8.40566 13.1956L7.42437 15.5647L4.43535 12.5755ZM8.80415 7.11309H11.1959L12.887 8.80415V11.1958L11.1959 12.887H8.80415L7.11309 11.1958V8.80415L8.80415 7.11309ZM8.86763 13.3869H11.1324L12.1136 15.7561H7.88633L8.86763 13.3869ZM11.1324 6.61299H8.86768L7.88638 4.24385H12.1136L11.1324 6.61299ZM6.61299 8.86763V11.1323L4.24404 12.1136V7.88633L6.61299 8.86763ZM10.2501 1.79175V0.250049C10.2501 0.111816 10.1381 0 10 0C9.86187 0 9.74995 0.111816 9.74995 0.250049V1.79175C9.74995 1.85807 9.7763 1.92167 9.82319 1.96856C9.87008 2.01545 9.93368 2.0418 10 2.0418C10.0663 2.0418 10.1299 2.01545 10.1768 1.96856C10.2237 1.92167 10.2501 1.85807 10.2501 1.79175ZM5.89619 3.14141C5.94005 3.14136 5.98313 3.12977 6.0211 3.10781C6.05907 3.08585 6.09059 3.05429 6.11251 3.0163C6.13442 2.9783 6.14596 2.93521 6.14596 2.89135C6.14596 2.84749 6.13442 2.8044 6.1125 2.76641L5.3415 1.4311C5.32509 1.40266 5.30324 1.37772 5.27718 1.35772C5.25113 1.33772 5.2214 1.32305 5.18967 1.31455C5.15795 1.30605 5.12486 1.30388 5.0923 1.30817C5.05974 1.31246 5.02834 1.32312 4.9999 1.33955C4.94251 1.37275 4.90063 1.42737 4.88347 1.49141C4.8663 1.55546 4.87525 1.6237 4.90835 1.68115L5.67935 3.01626C5.70126 3.05436 5.73285 3.086 5.77092 3.10797C5.80899 3.12995 5.85224 3.14148 5.89619 3.14141ZM3.01626 5.67915L1.6813 4.90835C1.65286 4.89193 1.62146 4.88128 1.5889 4.87699C1.55634 4.87271 1.52326 4.87488 1.49154 4.88338C1.45982 4.89188 1.43008 4.90655 1.40403 4.92654C1.37798 4.94653 1.35612 4.97146 1.3397 4.9999C1.32328 5.02834 1.31262 5.05974 1.30834 5.0923C1.30405 5.12486 1.30622 5.15794 1.31473 5.18966C1.32323 5.22139 1.33789 5.25112 1.35789 5.27717C1.37788 5.30323 1.40281 5.32509 1.43125 5.3415L2.76641 6.1123C2.82385 6.14544 2.8921 6.1544 2.95614 6.13721C3.02018 6.12002 3.07478 6.07809 3.10791 6.02065C3.14104 5.96321 3.15 5.89497 3.13281 5.83092C3.11562 5.76688 3.0737 5.71228 3.01626 5.67915ZM0.250049 10.2501H1.79155C1.85787 10.2501 1.92147 10.2238 1.96836 10.1769C2.01526 10.13 2.0416 10.0664 2.0416 10C2.0416 9.93373 2.01526 9.87013 1.96836 9.82324C1.92147 9.77634 1.85787 9.75 1.79155 9.75H0.250049C0.183732 9.75 0.120131 9.77634 0.0732376 9.82324C0.0263444 9.87013 0 9.93373 0 10C0 10.0664 0.0263444 10.13 0.0732376 10.1769C0.120131 10.2238 0.183732 10.2501 0.250049 10.2501ZM2.76641 13.8878L1.4313 14.6583C1.38361 14.6859 1.34635 14.7284 1.32529 14.7793C1.30423 14.8302 1.30055 14.8866 1.31483 14.9398C1.32911 14.993 1.36055 15.04 1.40426 15.0735C1.44797 15.107 1.50152 15.1251 1.55659 15.1251C1.59893 15.1251 1.64185 15.1142 1.68135 15.0915L3.01631 14.3208C3.04476 14.3044 3.06969 14.2825 3.08969 14.2565C3.10969 14.2305 3.12436 14.2007 3.13286 14.169C3.14136 14.1373 3.14352 14.1042 3.13922 14.0717C3.13492 14.0391 3.12425 14.0078 3.10781 13.9793C3.09146 13.9509 3.06964 13.9259 3.04361 13.9059C3.01758 13.8858 2.98785 13.8712 2.95613 13.8626C2.92441 13.8541 2.89132 13.852 2.85876 13.8563C2.8262 13.8606 2.79482 13.8713 2.76641 13.8878ZM4.9999 18.6604C5.03782 18.6823 5.08085 18.6939 5.12466 18.6939C5.16862 18.694 5.21181 18.6824 5.24989 18.6605C5.28797 18.6385 5.31958 18.6069 5.34155 18.5688L6.1125 17.2336C6.1456 17.1762 6.15455 17.1079 6.13738 17.0439C6.12022 16.9799 6.07834 16.9252 6.02095 16.892C5.99251 16.8756 5.96112 16.8649 5.92855 16.8606C5.89598 16.8563 5.86289 16.8585 5.83116 16.867C5.79943 16.8755 5.76969 16.8902 5.74364 16.9102C5.71759 16.9302 5.69574 16.9551 5.67935 16.9836L4.90835 18.3189C4.87525 18.3764 4.86629 18.4446 4.88346 18.5086C4.90063 18.5726 4.94251 18.6272 4.9999 18.6604ZM9.75 18.2083V19.75C9.75 19.8163 9.77634 19.8799 9.82324 19.9268C9.87013 19.9737 9.93373 20 10 20C10.0664 20 10.13 19.9737 10.1769 19.9268C10.2238 19.8799 10.2501 19.8163 10.2501 19.75V18.2083C10.2501 18.07 10.1381 17.9583 10 17.9583C9.86196 17.9583 9.75 18.07 9.75 18.2083ZM14.8752 18.6939C14.9176 18.6939 14.9607 18.6831 15 18.6604C15.0284 18.6439 15.0533 18.6221 15.0733 18.5961C15.0933 18.57 15.1079 18.5403 15.1165 18.5086C15.125 18.4769 15.1271 18.4438 15.1228 18.4113C15.1186 18.3788 15.1079 18.3474 15.0915 18.3189L14.3208 16.9836C14.2513 16.8638 14.0986 16.8228 13.9792 16.892C13.9217 16.9252 13.8798 16.9798 13.8626 17.0439C13.8455 17.1079 13.8544 17.1762 13.8876 17.2336L14.6583 18.5688C14.6803 18.6069 14.7119 18.6385 14.75 18.6605C14.7881 18.6824 14.8313 18.694 14.8752 18.6939ZM16.9836 14.3208L18.3188 15.0915C18.3567 15.1135 18.3997 15.125 18.4435 15.1251C18.5299 15.1251 18.6138 15.0801 18.6604 15C18.6934 14.9425 18.7023 14.8743 18.6852 14.8102C18.668 14.7462 18.6262 14.6916 18.5688 14.6583L17.2336 13.8878C17.2052 13.8708 17.1737 13.8597 17.1409 13.8551C17.1081 13.8504 17.0747 13.8523 17.0426 13.8606C17.0106 13.869 16.9805 13.8836 16.9542 13.9037C16.9278 13.9238 16.9058 13.9489 16.8892 13.9776C16.8726 14.0062 16.8619 14.0379 16.8577 14.0708C16.8535 14.1036 16.8559 14.137 16.8647 14.1689C16.8734 14.2008 16.8885 14.2307 16.9089 14.2568C16.9293 14.2828 16.9547 14.3046 16.9836 14.3208L16.9836 14.3208ZM19.75 9.75H18.2083C18.1755 9.74999 18.143 9.75645 18.1126 9.76901C18.0823 9.78157 18.0548 9.79998 18.0315 9.8232C18.0083 9.84642 17.9899 9.87399 17.9774 9.90433C17.9649 9.93466 17.9584 9.96717 17.9584 10C17.9584 10.0328 17.9649 10.0653 17.9774 10.0957C17.99 10.126 18.0084 10.1536 18.0316 10.1768C18.0548 10.2 18.0823 10.2185 18.1126 10.231C18.143 10.2436 18.1755 10.2501 18.2083 10.2501H19.75C19.8163 10.2501 19.8799 10.2238 19.9268 10.1769C19.9737 10.13 20 10.0664 20 10C20 9.93373 19.9737 9.87013 19.9268 9.82324C19.8799 9.77634 19.8163 9.75 19.75 9.75ZM17.1089 6.14565C17.1513 6.14565 17.1942 6.13501 17.2336 6.1123L18.5688 5.34155C18.6262 5.30833 18.6681 5.25371 18.6852 5.18966C18.7024 5.12561 18.6934 5.05737 18.6604 4.9999C18.6439 4.97145 18.6221 4.94652 18.596 4.92652C18.57 4.90652 18.5402 4.89185 18.5085 4.88335C18.4768 4.87485 18.4437 4.87268 18.4111 4.87697C18.3786 4.88126 18.3472 4.89192 18.3188 4.90835L16.9836 5.67915C16.9262 5.71235 16.8843 5.76697 16.8672 5.83101C16.85 5.89506 16.8589 5.9633 16.892 6.02075C16.914 6.05881 16.9456 6.09039 16.9837 6.11232C17.0218 6.13425 17.0649 6.14575 17.1089 6.14565ZM14.1039 3.14141C14.1903 3.14141 14.2742 3.09639 14.3208 3.01626L15.0915 1.68115C15.1246 1.62371 15.1336 1.55546 15.1164 1.4914C15.0993 1.42734 15.0574 1.37272 15 1.33955C14.9715 1.32312 14.9401 1.31246 14.9076 1.30817C14.875 1.30388 14.8419 1.30605 14.8102 1.31455C14.7785 1.32305 14.7487 1.33772 14.7227 1.35772C14.6966 1.37772 14.6748 1.40266 14.6583 1.4311L13.8876 2.76641C13.8712 2.79483 13.8605 2.82622 13.8563 2.85876C13.852 2.8913 13.8541 2.92437 13.8627 2.95607C13.8712 2.98778 13.8858 3.0175 13.9058 3.04353C13.9258 3.06957 13.9507 3.09141 13.9792 3.10781C14.0171 3.12977 14.0601 3.14135 14.1039 3.14141Z" fill="currentColor"/>
</svg>
