<svg width="32" height="32" viewBox="0 0 32 32" fill="none" xmlns="http://www.w3.org/2000/svg">
<path fill-rule="evenodd" clip-rule="evenodd" d="M7.00415 16.908C7.66398 17.353 8.44186 17.5905 9.23775 17.5899C10.5299 17.5899 11.8 16.9684 12.5737 15.8184C12.8692 15.3817 13.0751 14.8908 13.1796 14.374C13.2841 13.8573 13.285 13.3249 13.1824 12.8078C13.0826 12.2901 12.881 11.7974 12.5895 11.3581C12.2979 10.9189 11.9221 10.5418 11.4838 10.2488C9.64767 9.01324 7.14975 9.5022 5.91455 11.3384C4.67935 13.1742 5.16831 15.6731 7.00415 16.908ZM6.44543 11.6952C6.75467 11.2359 7.17222 10.8598 7.66121 10.6002C8.1502 10.3405 8.6956 10.2052 9.24927 10.2062C9.89663 10.2062 10.5504 10.3918 11.1267 10.7796C11.495 11.026 11.8109 11.343 12.0559 11.7122C12.3009 12.0814 12.4703 12.4956 12.5542 12.9307C12.6405 13.3653 12.6397 13.8127 12.5519 14.247C12.4641 14.6813 12.2911 15.0939 12.0429 15.4609C11.7965 15.8292 11.4794 16.145 11.1101 16.39C10.7409 16.635 10.3267 16.8043 9.89151 16.8881C9.4569 16.9744 9.00948 16.9737 8.57516 16.8859C8.14084 16.7981 7.72825 16.6251 7.36127 16.3768C5.81823 15.3387 5.40735 13.2388 6.44543 11.6952Z" fill="currentColor"/>
<path fill-rule="evenodd" clip-rule="evenodd" d="M5.80382 18.5509C6.70157 19.1733 7.75204 19.5392 8.84222 19.6091C8.30142 20.6968 6.38974 24.6376 6.38974 25.9442C6.38974 27.5186 7.67038 28.7992 9.24478 28.7992C10.8192 28.7992 12.0995 27.5186 12.0995 25.9442C12.0995 24.6373 10.1869 20.6949 9.64702 19.6082C11.4221 19.4879 13.1286 18.5925 14.2173 17.0191C16.1149 14.2773 15.4275 10.5029 12.6854 8.60562C11.7646 7.96761 10.6836 7.59994 9.56478 7.54418V6.78482C10.4093 6.63314 11.0528 5.89458 11.0528 5.0069C11.0528 4.0101 10.2416 3.19922 9.24478 3.19922C8.24798 3.19922 7.43678 4.0101 7.43678 5.00722C7.43678 5.89458 8.07998 6.63282 8.92478 6.78482V7.5445C8.6707 7.55858 8.41598 7.58258 8.16158 7.62898C7.37956 7.76917 6.63311 8.0631 5.96546 8.49374C5.29781 8.92438 4.7222 9.48317 4.27198 10.1378C3.81822 10.7898 3.49826 11.5253 3.33062 12.3017C3.16298 13.0782 3.15099 13.8802 3.29534 14.6613C3.43551 15.4433 3.72939 16.1897 4.15998 16.8574C4.59056 17.525 5.14928 18.1006 5.80382 18.5509ZM9.24478 28.1592C8.65752 28.1585 8.09451 27.9249 7.67926 27.5097C7.264 27.0944 7.03042 26.5314 7.02974 25.9442C7.02974 24.9858 8.43646 21.8994 9.24478 20.2405C10.0531 21.8994 11.4595 24.9855 11.4595 25.9442C11.4588 26.5313 11.2253 27.0942 10.8102 27.5095C10.3951 27.9247 9.83193 28.1584 9.24478 28.1592ZM8.07678 5.00722C8.07712 4.69755 8.20028 4.40066 8.41925 4.18169C8.63822 3.96272 8.93511 3.83956 9.24478 3.83922C9.88862 3.83922 10.4128 4.36306 10.4128 5.00722C10.4128 5.65138 9.88862 6.1749 9.24478 6.1749C8.93511 6.17456 8.63822 6.05139 8.41925 5.83242C8.20028 5.61346 8.07712 5.31689 8.07678 5.00722ZM4.79838 10.5016C5.20095 9.91634 5.71561 9.41672 6.31257 9.03167C6.90953 8.64662 7.57693 8.3838 8.27614 8.25842C9.6979 7.99986 11.1337 8.31058 12.3216 9.13202C14.7728 10.8283 15.3875 14.2034 13.6912 16.6552C11.9945 19.1064 8.61982 19.7208 6.16798 18.0248C4.98014 17.2027 4.18398 15.9675 3.92478 14.5464C3.66558 13.1253 3.97662 11.6891 4.79838 10.5016Z" fill="currentColor"/>
<path fill-rule="evenodd" clip-rule="evenodd" d="M24.9894 10.2488C23.1536 9.01362 20.655 9.50226 19.4198 11.3384C19.1244 11.775 18.9185 12.2659 18.814 12.7826C18.7096 13.2993 18.7086 13.8316 18.8112 14.3487C18.911 14.8663 19.1125 15.3591 19.4041 15.7983C19.6957 16.2376 20.0715 16.6147 20.5097 16.9077C21.1695 17.3528 21.9474 17.5904 22.7433 17.5899C24.0355 17.5899 25.3053 16.9685 26.079 15.8184C27.3142 13.9823 26.8253 11.4837 24.9894 10.2488ZM25.5481 15.461C24.5097 17.0043 22.4102 17.4149 20.8665 16.3768C20.4983 16.1304 20.1825 15.8134 19.9375 15.4442C19.6925 15.075 19.5232 14.6609 19.4393 14.2258C19.3531 13.7912 19.3539 13.3438 19.4417 12.9095C19.5294 12.4751 19.7025 12.0625 19.9507 11.6955C20.1971 11.3272 20.5141 11.0114 20.8834 10.7664C21.2527 10.5215 21.6669 10.3522 22.1021 10.2683C22.5367 10.1821 22.9841 10.1828 23.4184 10.2707C23.8528 10.3585 24.2654 10.5316 24.6323 10.78C26.1753 11.8178 26.5862 13.9179 25.5481 15.461Z" fill="currentColor"/>
<path fill-rule="evenodd" clip-rule="evenodd" d="M23.07 7.54802C24.1886 7.60248 25.2697 7.96882 26.1909 8.60562C26.8455 9.05589 27.4042 9.6315 27.8348 10.2992C28.2654 10.9668 28.5593 11.7132 28.6994 12.4952C28.8438 13.2764 28.8319 14.0784 28.6642 14.855C28.4966 15.6315 28.1766 16.367 27.7228 17.0191C27.2725 17.6736 26.6969 18.2323 26.0293 18.6629C25.3616 19.0935 24.6152 19.3874 23.8332 19.5275C23.6079 19.5671 23.3805 19.594 23.1522 19.6082C23.6924 20.6949 25.605 24.6373 25.605 25.9442C25.605 27.5186 24.3241 28.7992 22.75 28.7992C21.1759 28.7992 19.8953 27.5186 19.8953 25.9442C19.8953 24.6392 21.8031 20.7048 22.3458 19.6123C21.256 19.5411 20.2062 19.1741 19.3094 18.5509C16.5676 16.6536 15.8802 12.8792 17.7772 10.1375C18.8828 8.54002 20.6258 7.64594 22.43 7.54834V6.78482C21.5855 6.63282 20.942 5.89458 20.942 5.00722C20.942 4.0101 21.7532 3.19922 22.75 3.19922C23.7468 3.19922 24.558 4.0101 24.558 5.0069C24.558 5.89458 23.9148 6.63314 23.07 6.78482V7.54802ZM21.9249 4.18158C21.7059 4.40048 21.5827 4.69728 21.5823 5.0069C21.5827 5.31657 21.7055 5.61346 21.9245 5.83242C22.1434 6.05139 22.4403 6.17456 22.75 6.1749C23.3941 6.1749 23.918 5.65138 23.918 5.00722C23.918 4.36306 23.3941 3.83922 22.7503 3.83922C22.4407 3.83956 22.1439 3.96268 21.9249 4.18158ZM21.1848 27.5097C21.6 27.9249 22.1629 28.1585 22.75 28.1592C23.3372 28.1585 23.9002 27.925 24.3154 27.5098C24.7307 27.0945 24.9644 26.5315 24.965 25.9442C24.965 24.9855 23.5583 21.8994 22.75 20.2405C21.9417 21.8994 20.5353 24.9858 20.5353 25.9442C20.5359 26.5314 20.7695 27.0944 21.1848 27.5097ZM25.6822 18.125C26.2791 17.74 26.7938 17.2404 27.1964 16.6552C28.0182 15.4677 28.3292 14.0306 28.07 12.6098C27.8108 11.189 27.0146 9.95378 25.8268 9.13202C24.8905 8.48402 23.8188 8.17298 22.758 8.17298C21.0412 8.17298 19.3522 8.9861 18.3036 10.5013C16.6073 12.9531 17.222 16.3282 19.6732 18.0245C20.861 18.8463 22.2975 19.157 23.7186 18.8981C24.4178 18.7727 25.0852 18.51 25.6822 18.125Z" fill="currentColor"/>
</svg>
