<svg width="32" height="32" viewBox="0 0 32 32" fill="none" xmlns="http://www.w3.org/2000/svg">
<path d="M5.07922 18.1711C4.67363 18.4121 4.35669 18.7776 4.17554 19.2133C4.06358 19.4799 4.00576 19.7662 4.00543 20.0553C4.0051 20.3445 4.06227 20.6309 4.17362 20.8978C4.28359 21.1651 4.44564 21.408 4.65034 21.6121C4.85503 21.8162 5.09828 21.9776 5.36594 22.0869C5.6324 22.1971 5.9179 22.254 6.20626 22.2543C6.38578 22.2543 6.56498 22.2296 6.7413 22.1851C6.45897 22.5629 6.30621 23.0217 6.30578 23.4933C6.30424 23.7824 6.36027 24.069 6.47058 24.3363C6.5809 24.6036 6.74331 24.8462 6.94834 25.0501C7.15205 25.254 7.39406 25.4157 7.66046 25.5258C7.92686 25.6359 8.2124 25.6923 8.50066 25.6917C8.97379 25.6914 9.43425 25.5388 9.81394 25.2565C9.55282 26.2978 10.0827 27.4031 11.1007 27.8248C11.3714 27.9368 11.6555 27.9928 11.9397 27.9928C12.2299 27.9926 12.5171 27.9348 12.7848 27.8229C13.2205 27.6418 13.586 27.3248 13.8271 26.9192C13.9851 27.9813 14.8975 28.7992 15.9992 28.7992C17.101 28.7992 18.0133 27.9813 18.1714 26.9192C18.4124 27.3248 18.7779 27.6418 19.2136 27.8229C19.4812 27.9348 19.7684 27.9925 20.0584 27.9928C20.3426 27.9928 20.6271 27.9368 20.8978 27.8248C21.9157 27.4031 22.4456 26.2978 22.1845 25.2562C22.5642 25.5385 23.0246 25.6911 23.4978 25.6914C23.786 25.692 24.0715 25.6356 24.3379 25.5256C24.6043 25.4155 24.8463 25.2539 25.0501 25.0501C25.2551 24.8462 25.4175 24.6036 25.5278 24.3363C25.6382 24.069 25.6942 23.7824 25.6927 23.4933C25.6922 23.0217 25.5395 22.5629 25.2571 22.1851C25.4331 22.2296 25.6123 22.2543 25.7925 22.2543C26.0773 22.2543 26.3618 22.1986 26.6325 22.0869C27.1765 21.8629 27.6002 21.4405 27.8248 20.8978C27.9362 20.6309 27.9933 20.3445 27.993 20.0553C27.9927 19.7662 27.9348 19.4799 27.8229 19.2133C27.6417 18.7776 27.3248 18.4121 26.9192 18.1711C27.9813 18.0133 28.7992 17.101 28.7992 15.9992C28.7992 14.8975 27.9813 13.9851 26.9192 13.8274C27.3248 13.5863 27.6417 13.2208 27.8229 12.7851C27.9348 12.5185 27.9927 12.2323 27.993 11.9431C27.9933 11.6539 27.9362 11.3675 27.8248 11.1007C27.7148 10.8333 27.5528 10.5905 27.3481 10.3863C27.1434 10.1822 26.9001 10.0208 26.6325 9.91154C26.1966 9.73165 25.7142 9.6972 25.2571 9.8133C25.5395 9.43556 25.6922 8.97673 25.6927 8.50514C25.6942 8.21599 25.6382 7.92943 25.5278 7.66215C25.4175 7.39488 25.2551 7.15222 25.0501 6.94834C24.2706 6.16882 23.0469 6.10258 22.1845 6.74226C22.4456 5.70066 21.9157 4.59506 20.8978 4.17362C20.631 4.06221 20.3446 4.005 20.0555 4.00533C19.7664 4.00566 19.4802 4.06352 19.2136 4.17554C18.7779 4.35665 18.4124 4.6736 18.1714 5.07922C18.0133 4.01714 17.101 3.19922 15.9992 3.19922C14.8975 3.19922 13.9851 4.01714 13.8271 5.07922C13.586 4.6736 13.2205 4.35665 12.7848 4.17554C12.5182 4.06364 12.232 4.00585 11.9429 4.00552C11.6538 4.00519 11.3675 4.06233 11.1007 4.17362C10.0827 4.59538 9.55282 5.70066 9.81394 6.74226C8.95218 6.1029 7.72818 6.16914 6.94834 6.94834C6.74331 7.15222 6.5809 7.39488 6.47058 7.66215C6.36027 7.92943 6.30424 8.21599 6.30578 8.50514C6.30621 8.97673 6.45897 9.43556 6.7413 9.8133C6.28422 9.69717 5.80187 9.73163 5.36594 9.91154C4.82194 10.1355 4.39826 10.5579 4.17362 11.1007C4.06227 11.3675 4.0051 11.6539 4.00543 11.9431C4.00576 12.2323 4.06358 12.5185 4.17554 12.7851C4.35669 13.2208 4.67363 13.5863 5.07922 13.8274C4.01714 13.9851 3.19922 14.8975 3.19922 15.9992C3.19922 17.101 4.01714 18.0133 5.07922 18.1711ZM7.9797 10.6408C8.34753 10.7345 8.73339 10.7308 9.0994 10.6303C9.46541 10.5298 9.79898 10.3358 10.0674 10.0674C10.2724 9.86349 10.4348 9.62084 10.5451 9.35356C10.6554 9.08628 10.7115 8.79972 10.7099 8.51058C10.7089 8.33274 10.6865 8.15568 10.6431 7.98322C11.0208 8.26445 11.479 8.41659 11.9499 8.41714C12.2341 8.41714 12.5183 8.36082 12.789 8.24882C13.14 8.10457 13.4473 7.8712 13.6805 7.57179C13.9137 7.27237 14.0647 6.91728 14.1186 6.54162C14.5042 7.18098 15.2018 7.61042 15.9992 7.61042C16.7967 7.61042 17.4943 7.18098 17.8799 6.54162C17.9337 6.91728 18.0848 7.27237 18.3179 7.57179C18.5511 7.8712 18.8584 8.10457 19.2095 8.24882C19.4802 8.36082 19.7643 8.41714 20.0485 8.41714C20.5194 8.41659 20.9776 8.26445 21.3554 7.98322C21.312 8.15568 21.2895 8.33274 21.2885 8.51058C21.287 8.79972 21.343 9.08628 21.4533 9.35356C21.5636 9.62084 21.726 9.86349 21.9311 10.0674C22.1994 10.3358 22.533 10.5298 22.899 10.6304C23.265 10.7309 23.6509 10.7345 24.0187 10.6408C23.5746 11.2415 23.444 12.0514 23.7496 12.789C23.8952 13.1391 24.1288 13.4456 24.4278 13.6787C24.7269 13.9118 25.0811 14.0635 25.4562 14.1192C24.8175 14.5048 24.3883 15.2021 24.3883 15.9992C24.3883 16.7976 24.8187 17.4955 25.4587 17.8808C24.7199 17.9919 24.0549 18.4722 23.7496 19.2095C23.444 19.9471 23.5746 20.757 24.0187 21.3579C23.2939 21.1775 22.4959 21.3666 21.9311 21.9311C21.726 22.1349 21.5636 22.3776 21.4533 22.6449C21.343 22.9121 21.287 23.1987 21.2885 23.4879C21.2888 23.668 21.3131 23.8443 21.3554 24.0152C21.2126 23.9092 21.0575 23.8208 20.8936 23.7519C20.6271 23.6398 20.3409 23.5819 20.0518 23.5815C19.7626 23.5811 19.4763 23.6383 19.2095 23.7496C18.8584 23.8939 18.5511 24.1272 18.3179 24.4266C18.0848 24.7261 17.9337 25.0812 17.8799 25.4568C17.4943 24.8175 16.7967 24.388 15.9992 24.388C15.2018 24.388 14.5042 24.8175 14.1186 25.4568C14.0647 25.0811 13.9136 24.726 13.6804 24.4266C13.4471 24.1272 13.1397 23.8938 12.7887 23.7496C12.5219 23.6382 12.2356 23.5811 11.9465 23.5814C11.6574 23.5818 11.3713 23.6398 11.1048 23.7519C10.9384 23.821 10.7848 23.9109 10.6431 24.0152C10.6865 23.8428 10.7089 23.6657 10.7099 23.4879C10.7115 23.1987 10.6554 22.9121 10.5451 22.6449C10.4348 22.3776 10.2724 22.1349 10.0674 21.9311C9.5029 21.3666 8.70482 21.1775 7.9797 21.3576C8.42386 20.7567 8.5541 19.9471 8.24882 19.2095C7.94322 18.4719 7.27826 17.9919 6.53938 17.8811C7.17938 17.4959 7.6101 16.7976 7.6101 15.9992C7.6101 15.2021 7.18098 14.5048 6.54226 14.1192C6.91728 14.0635 7.2715 13.9117 7.57053 13.6786C7.86955 13.4455 8.10321 13.139 8.24882 12.789C8.5541 12.0514 8.42386 11.2415 7.98002 10.6408H7.9797ZM5.60946 21.4952C5.4198 21.4178 5.24744 21.3035 5.1024 21.1588C4.95737 21.0142 4.84256 20.8421 4.76466 20.6527C4.68576 20.4636 4.64527 20.2607 4.64555 20.0559C4.64582 19.851 4.68686 19.6482 4.76626 19.4594C4.84496 19.2694 4.96046 19.0969 5.10611 18.9517C5.25175 18.8066 5.42467 18.6917 5.6149 18.6136C5.80424 18.5346 6.0073 18.4937 6.21246 18.4932C6.41763 18.4927 6.62087 18.5327 6.81059 18.6108C7.00031 18.6889 7.17278 18.8036 7.31814 18.9484C7.46351 19.0932 7.57892 19.2652 7.65778 19.4546C7.98642 20.2485 7.6053 21.1634 6.80754 21.4933C6.6178 21.5725 6.41429 21.6134 6.20869 21.6138C6.00309 21.6141 5.79944 21.5738 5.60946 21.4952ZM7.40082 24.5976C7.25557 24.4531 7.14054 24.2812 7.06241 24.0918C6.98429 23.9025 6.94464 23.6994 6.94578 23.4946C6.9457 23.2889 6.98632 23.0853 7.0653 22.8955C7.14427 22.7056 7.26004 22.5332 7.40594 22.3883C7.55143 22.2426 7.72428 22.127 7.91456 22.0483C8.10484 21.9695 8.3088 21.9292 8.51474 21.9295C8.91346 21.9295 9.31154 22.0808 9.6149 22.3839C9.7601 22.5283 9.87512 22.7002 9.95324 22.8895C10.0314 23.0788 10.071 23.2818 10.0699 23.4866C10.07 23.6922 10.0294 23.8958 9.95042 24.0857C9.87144 24.2755 9.75567 24.4479 9.60978 24.5928C8.99986 25.2031 8.00882 25.2053 7.40082 24.5976ZM13.3848 26.3835C13.3068 26.5737 13.1919 26.7466 13.0467 26.8922C12.9015 27.0378 12.729 27.1532 12.5391 27.2319C12.3502 27.3113 12.1475 27.3524 11.9426 27.3527C11.7377 27.353 11.5348 27.3124 11.3458 27.2335C10.5519 26.9048 10.1746 25.9883 10.5048 25.1909C10.5829 25.0007 10.6979 24.8278 10.8431 24.6822C10.9883 24.5366 11.1609 24.4212 11.3509 24.3426C11.5397 24.2632 11.7424 24.2222 11.9472 24.2219C12.152 24.2215 12.3548 24.2619 12.5439 24.3407C12.7333 24.4186 12.9053 24.5334 13.05 24.6784C13.1946 24.8234 13.309 24.9958 13.3864 25.1855C13.4652 25.3754 13.5056 25.579 13.5053 25.7847C13.505 25.9903 13.4641 26.1938 13.3848 26.3835ZM15.9992 28.1592C15.1397 28.1592 14.4405 27.4568 14.4405 26.5935C14.4405 25.7301 15.1397 25.028 15.9992 25.028C16.8587 25.028 17.5579 25.7304 17.5579 26.5935C17.5579 27.4565 16.8587 28.1592 15.9992 28.1592ZM20.6527 27.2335C20.4636 27.3123 20.2607 27.3528 20.0559 27.3526C19.851 27.3523 19.6482 27.3113 19.4594 27.2319C19.0741 27.0715 18.7736 26.7701 18.6136 26.3839C18.4536 25.9976 18.453 25.5717 18.612 25.1858C18.6894 24.9961 18.8038 24.8238 18.9484 24.6787C19.0931 24.5337 19.2651 24.4189 19.4546 24.341C19.6437 24.2624 19.8465 24.2221 20.0512 24.2224C20.256 24.2226 20.4587 24.2635 20.6475 24.3426C20.8375 24.4211 21.0101 24.5365 21.1553 24.682C21.3005 24.8276 21.4155 25.0004 21.4936 25.1906C21.8239 25.9883 21.4466 26.9048 20.6527 27.2335ZM24.5976 24.5976C23.9893 25.2056 22.9983 25.2024 22.3887 24.5928C22.2428 24.4479 22.127 24.2755 22.048 24.0857C21.969 23.8958 21.9284 23.6922 21.9285 23.4866C21.9274 23.2817 21.967 23.0787 22.0451 22.8893C22.1233 22.6999 22.2383 22.528 22.3835 22.3835C22.5279 22.239 22.6995 22.1245 22.8883 22.0465C23.0771 21.9686 23.2794 21.9287 23.4837 21.9291C23.885 21.9291 24.2869 22.0827 24.5925 22.3883C24.7384 22.5332 24.8542 22.7056 24.9331 22.8955C25.0121 23.0853 25.0527 23.2889 25.0527 23.4946C25.0538 23.6994 25.0141 23.9025 24.936 24.0918C24.8579 24.2812 24.7429 24.4531 24.5976 24.5976ZM27.2335 20.6527C27.1556 20.8421 27.0407 21.0142 26.8957 21.1588C26.7507 21.3035 26.5783 21.4178 26.3887 21.4952C26.1987 21.5738 25.9951 21.6141 25.7896 21.6138C25.584 21.6135 25.3806 21.5725 25.1909 21.4933C24.3931 21.1631 24.012 20.2485 24.3407 19.4546C24.4195 19.2652 24.5349 19.0932 24.6803 18.9484C24.8257 18.8036 24.9981 18.6889 25.1878 18.6108C25.3776 18.5327 25.5808 18.4927 25.786 18.4932C25.9911 18.4937 26.1942 18.5346 26.3835 18.6136C26.5738 18.6917 26.7467 18.8066 26.8923 18.9517C27.038 19.0969 27.1535 19.2694 27.2322 19.4594C27.3115 19.6482 27.3525 19.851 27.3527 20.0559C27.3529 20.2607 27.3124 20.4636 27.2335 20.6527ZM28.1592 15.9992C28.1592 16.8587 27.4571 17.5576 26.5935 17.5576C25.7304 17.5576 25.0283 16.8587 25.0283 15.9992C25.0283 15.1397 25.7304 14.4408 26.5935 14.4408C27.4571 14.4408 28.1592 15.1394 28.1592 15.9992ZM25.7925 10.3845C25.9944 10.3845 26.1963 10.4242 26.389 10.5032C26.5786 10.5806 26.751 10.695 26.896 10.8396C27.0411 10.9843 27.1559 11.1563 27.2338 11.3458C27.3127 11.5348 27.3532 11.7377 27.3529 11.9426C27.3526 12.1474 27.3116 12.3502 27.2322 12.5391C27.1535 12.729 27.038 12.9015 26.8923 13.0467C26.7467 13.1918 26.5738 13.3068 26.3835 13.3848C25.5861 13.716 24.6696 13.3378 24.3407 12.5439C24.012 11.7499 24.3931 10.8351 25.1909 10.5051C25.3815 10.4258 25.586 10.3848 25.7925 10.3845ZM23.4978 6.94642C23.8965 6.94642 24.2946 7.0981 24.5976 7.40082C24.7429 7.54528 24.8579 7.71722 24.936 7.90659C25.0141 8.09597 25.0538 8.299 25.0527 8.50386C25.0527 8.70949 25.0121 8.9131 24.9331 9.10297C24.8542 9.29283 24.7384 9.46518 24.5925 9.6101C23.9826 10.2203 22.9919 10.2226 22.3835 9.6149C22.2383 9.47043 22.1233 9.2985 22.0451 9.10912C21.967 8.91974 21.9274 8.71671 21.9285 8.51186C21.9284 8.30622 21.969 8.10261 22.048 7.91275C22.127 7.72289 22.2428 7.55053 22.3887 7.40562C22.5342 7.25978 22.707 7.14414 22.8974 7.06533C23.0877 6.98653 23.2918 6.94612 23.4978 6.94642ZM18.6136 5.61522C18.6917 5.42502 18.8066 5.25214 18.9517 5.10655C19.0969 4.96096 19.2694 4.84552 19.4594 4.7669C19.6492 4.68744 19.8529 4.64644 20.0587 4.64626C20.2597 4.64626 20.461 4.68594 20.6527 4.7653C21.4466 5.09394 21.8239 6.01042 21.4936 6.80786C21.4155 6.99809 21.3006 7.17098 21.1554 7.31658C21.0101 7.46217 20.8376 7.57759 20.6475 7.65618C20.4588 7.73567 20.2561 7.77678 20.0512 7.77711C19.8464 7.77744 19.6436 7.73699 19.4546 7.6581C19.2651 7.58018 19.0931 7.46537 18.9484 7.32033C18.8038 7.1753 18.6894 7.00294 18.612 6.8133C18.5333 6.62336 18.4929 6.41972 18.4931 6.2141C18.4934 6.00848 18.5344 5.80495 18.6136 5.61522ZM15.9992 3.83922C16.8587 3.83922 17.5579 4.54162 17.5579 5.40498C17.5579 6.26834 16.8587 6.97042 15.9992 6.97042C15.1397 6.97042 14.4405 6.26802 14.4405 5.40498C14.4405 4.54194 15.1397 3.83922 15.9992 3.83922ZM11.3458 4.76498C11.534 4.68661 11.7358 4.64616 11.9397 4.64594C12.1426 4.64594 12.3458 4.68594 12.5391 4.76658C12.9243 4.9269 13.2248 5.22834 13.3848 5.61458C13.5448 6.00082 13.5455 6.42674 13.3864 6.81266C13.309 7.0023 13.1946 7.17466 13.05 7.31969C12.9053 7.46473 12.7333 7.57954 12.5439 7.65746C12.3548 7.73631 12.152 7.77677 11.9472 7.7765C11.7424 7.77623 11.5397 7.73522 11.3509 7.65586C11.1609 7.57731 10.9883 7.46194 10.8431 7.3164C10.6979 7.17086 10.5829 6.99803 10.5048 6.80786C10.1746 6.0101 10.5519 5.09362 11.3458 4.76498ZM7.40082 7.40082C7.54518 7.25637 7.71666 7.14187 7.90541 7.06389C8.09415 6.98591 8.29644 6.94599 8.50066 6.94642C8.90194 6.94642 9.30386 7.0997 9.60978 7.40562C9.75567 7.55053 9.87144 7.72289 9.95042 7.91275C10.0294 8.10261 10.07 8.30622 10.0699 8.51186C10.0711 8.71671 10.0314 8.91974 9.9533 9.10912C9.87518 9.2985 9.76014 9.47043 9.6149 9.6149C9.00626 10.2226 8.01554 10.2197 7.40594 9.6101C7.26004 9.46518 7.14427 9.29283 7.0653 9.10297C6.98632 8.9131 6.9457 8.70949 6.94578 8.50386C6.94464 8.299 6.98429 8.09597 7.06241 7.90659C7.14054 7.71722 7.25557 7.54528 7.40082 7.40082ZM4.76498 11.3458C4.84288 11.1563 4.95769 10.9843 5.10272 10.8396C5.24776 10.695 5.42012 10.5806 5.60978 10.5032C5.79977 10.4248 6.00333 10.3847 6.20885 10.385C6.41436 10.3853 6.6178 10.4262 6.80754 10.5051C7.6053 10.8354 7.98642 11.7499 7.65778 12.5439C7.32882 13.3375 6.41266 13.7157 5.6149 13.3848C5.42467 13.3068 5.25175 13.1918 5.10611 13.0467C4.96046 12.9015 4.84496 12.729 4.76626 12.5391C4.68691 12.3502 4.64593 12.1474 4.64571 11.9425C4.64549 11.7377 4.68603 11.5348 4.76498 11.3458ZM5.40498 14.4405C6.26802 14.4405 6.9701 15.1397 6.9701 15.9992C6.9701 16.8587 6.26802 17.5576 5.40498 17.5576C4.5413 17.5576 3.83922 16.8591 3.83922 15.9992C3.83922 15.1394 4.5413 14.4405 5.40498 14.4405Z" fill="currentColor"/>
</svg>
