<svg width="32" height="32" viewBox="0 0 32 32" fill="none" xmlns="http://www.w3.org/2000/svg">
<path fill-rule="evenodd" clip-rule="evenodd" d="M4.23021 30H27.7698C28.9994 30 30 28.9994 30 27.7698V24.0679C30 22.8383 28.9994 21.8377 27.7698 21.8377H27.4793L28.4902 7.51227C28.5919 6.07112 28.106 4.69567 27.1211 3.63904C26.1361 2.58215 24.7986 2 23.3537 2H8.64634C7.20144 2 5.86365 2.58215 4.87853 3.63904C3.89375 4.69567 3.40779 6.07112 3.50978 7.51227L4.52074 21.8377H4.23021C3.00057 21.8378 2 22.8383 2 24.0679V27.7698C2 28.9994 3.00057 30 4.23021 30ZM2.69993 24.0679C2.69993 23.2241 3.38646 22.5379 4.23028 22.5379H27.7699C28.6136 22.5379 29.2999 23.2242 29.2999 24.0679V27.7698C29.2999 28.6135 28.6136 29.2998 27.7699 29.2998H4.23021C3.38639 29.2998 2.69986 28.6135 2.69986 27.7698L2.69993 24.0679ZM4.20779 7.46284C4.11995 6.21768 4.54002 5.02892 5.39095 4.11599C6.24175 3.20271 7.39797 2.69986 8.64634 2.69986H23.3537C24.602 2.69986 25.7583 3.20271 26.609 4.11592C27.4601 5.02892 27.88 6.21768 27.7922 7.46284L26.7778 21.8378H25.9314C24.5195 18.045 20.994 15.2727 16.7941 14.9565L20.5153 11.4646C20.5157 11.4642 20.516 11.4639 20.5163 11.4635C20.5164 11.4633 20.5165 11.4632 20.5166 11.463C20.5168 11.4627 20.517 11.4625 20.5171 11.4622C20.5176 11.4615 20.5181 11.4607 20.5188 11.46C20.5239 11.4549 20.5279 11.449 20.5319 11.4431C20.5351 11.4385 20.5382 11.4339 20.5419 11.4296C20.5612 11.4062 20.5793 11.3827 20.5916 11.3558C20.5954 11.3472 20.5978 11.3384 20.6002 11.3295C20.6008 11.3271 20.6015 11.3247 20.6022 11.3223C20.6029 11.3197 20.6037 11.3171 20.6045 11.3145C20.6132 11.2865 20.6199 11.2592 20.6217 11.2301C20.6218 11.2268 20.6228 11.2237 20.6237 11.2205L20.6237 11.2204C20.6248 11.217 20.6258 11.2135 20.6258 11.2098C20.6258 11.2046 20.6244 11.1997 20.623 11.1949C20.6218 11.191 20.6207 11.1871 20.6202 11.1829C20.6179 11.1557 20.6125 11.1288 20.6041 11.1028C20.5993 11.0865 20.5932 11.0706 20.5859 11.0552C20.584 11.0515 20.5828 11.0476 20.5816 11.0437C20.5802 11.0391 20.5788 11.0344 20.5761 11.03L20.2993 10.5676C19.3977 9.06086 17.7471 8.12497 15.9916 8.12497C14.236 8.12497 12.5855 9.06086 11.6839 10.5672L11.407 11.0295C11.4043 11.0339 11.4029 11.0386 11.4015 11.0433C11.4003 11.0472 11.3992 11.0511 11.3973 11.0547C11.3899 11.0701 11.3838 11.086 11.3791 11.1023C11.3705 11.1283 11.365 11.1552 11.3629 11.1824C11.3626 11.1868 11.3614 11.1909 11.3602 11.195C11.3587 11.1997 11.3573 11.2043 11.3573 11.2094C11.3573 11.2134 11.3584 11.2171 11.3595 11.2208C11.3603 11.2237 11.3612 11.2266 11.3615 11.2297C11.3633 11.2587 11.3696 11.2863 11.3787 11.3144C11.3803 11.3194 11.3817 11.3245 11.383 11.3295C11.3854 11.3383 11.3878 11.3471 11.3916 11.3553C11.4038 11.3822 11.422 11.4057 11.4413 11.4291C11.4446 11.4332 11.4475 11.4375 11.4505 11.4419C11.4546 11.448 11.4587 11.4542 11.464 11.4596C11.4644 11.4599 11.4647 11.4603 11.465 11.4607C11.4651 11.4609 11.4653 11.461 11.4654 11.4612C11.4655 11.4614 11.4657 11.4617 11.4659 11.4619C11.4661 11.4623 11.4664 11.4627 11.4666 11.463C11.4669 11.4634 11.4672 11.4638 11.4675 11.4641L15.1887 14.956C10.989 15.2725 7.46349 18.0447 6.05171 21.8378H5.22197L4.20779 7.46284ZM6.80205 21.8378C8.26703 18.1984 11.8341 15.6228 15.9916 15.6228C20.1491 15.6228 23.7162 18.1984 25.1812 21.8378H23.7294C23.3146 20.9688 22.75 20.1676 22.0489 19.4666C20.4309 17.8485 18.2795 16.9575 15.9915 16.9575C13.7037 16.9575 11.5522 17.8486 9.93419 19.4666C9.23311 20.1676 8.66851 20.9688 8.25375 21.8378H6.80205ZM9.03795 21.8378C9.40077 21.1554 9.86724 20.5234 10.4292 19.9615C11.9149 18.4758 13.8906 17.6575 15.9916 17.6575C18.0926 17.6575 20.068 18.4758 21.5541 19.9615C22.1162 20.5234 22.5826 21.1554 22.9455 21.8378H9.03795ZM17.8294 11.5595L16.8641 13.9307L19.3911 11.5595H17.8294ZM17.7828 10.8595H19.6514C18.9785 9.78218 17.857 9.05806 16.6138 8.87465L17.7828 10.8595ZM15.0127 10.8595H16.9708L15.9916 9.19669L15.0127 10.8595ZM14.2003 10.8595L15.3689 8.87431C14.1261 9.05806 13.0044 9.78218 12.3313 10.8595H14.2003ZM14.1538 11.5595H12.5917L15.1191 13.931L14.1538 11.5595ZM17.0741 11.5595H14.9094L15.9916 14.2181L17.0741 11.5595Z" fill="currentColor"/>
</svg>
