<svg width="32" height="32" viewBox="0 0 32 32" fill="none" xmlns="http://www.w3.org/2000/svg">
<path d="M12.3278 32C15.4863 32 18.6448 30.7976 21.0492 28.3932C22.3342 27.1083 23.2974 25.5984 23.9143 23.9052C25.5982 23.2922 27.1271 22.3173 28.3932 21.0492C33.2021 16.2404 33.2021 8.41554 28.3932 3.60659C23.5846 -1.2022 15.7595 -1.2022 10.9506 3.60659C9.666 4.89128 8.70213 6.40152 8.08456 8.09495C6.40116 8.7082 4.87263 9.68299 3.60659 10.9507C-1.2022 15.7595 -1.2022 23.5844 3.60659 28.3932C6.01107 30.7976 9.16957 31.9999 12.3278 31.9999V32ZM11.5167 4.17227C16.0142 -0.324298 23.3307 -0.324064 27.8276 4.17227C32.3245 8.66915 32.3245 15.9863 27.8276 20.4835C23.3305 24.9804 16.0136 24.9804 11.5167 20.4835C9.2335 18.2002 8.01203 15.0491 8.15185 11.824C8.75947 11.4988 9.40314 11.246 10.0697 11.0708C10.0156 11.4869 9.979 11.9067 9.979 12.3277C9.979 17.6726 14.3275 22.0209 19.6722 22.0209C25.0169 22.0209 29.365 17.6727 29.365 12.3277C29.365 6.98306 25.0169 2.63483 19.6722 2.63483C16.2664 2.63483 13.0715 4.45558 11.3317 7.38696C10.5667 7.44851 9.80906 7.58106 9.06859 7.78289C9.64435 6.43568 10.4656 5.22336 11.5167 4.17219V4.17227ZM19.692 24.6552C18.0459 27.0814 15.2818 28.5647 12.3278 28.5647C7.42463 28.5647 3.43512 24.5752 3.43512 19.672C3.43512 16.6164 4.98475 13.9164 7.3389 12.3149C7.33702 15.5784 8.63328 18.7317 10.9507 21.0491C13.3552 23.4536 16.5137 24.6558 19.6722 24.6558C19.6789 24.6558 19.6853 24.6552 19.692 24.6552ZM21.1031 21.1038C20.63 21.1811 20.1514 21.22 19.6721 21.2204C14.7686 21.2204 10.7795 17.2312 10.7795 12.3277C10.7795 11.8469 10.8234 11.3666 10.8994 10.8956C11.3716 10.8184 11.8493 10.7795 12.3278 10.7793C17.2313 10.7793 21.2205 14.7685 21.2205 19.672C21.2205 20.1525 21.1794 20.6333 21.1031 21.1038ZM24.6599 19.6861C24.6618 16.4225 23.3652 13.2665 21.0493 10.9505C18.6397 8.5409 15.4727 7.33929 12.3074 7.34452C13.9532 4.92082 16.7265 3.43497 19.6722 3.43497C24.5754 3.43497 28.5649 7.42447 28.5649 12.3277C28.5649 15.384 27.0146 18.0845 24.6599 19.6861ZM4.17235 11.5166C8.66985 7.01972 15.9867 7.02003 20.4836 11.5166C22.7646 13.7981 23.9891 16.9514 23.8493 20.1755C23.2415 20.5006 22.5978 20.7535 21.9312 20.9289C21.9853 20.5132 22.021 20.0931 22.021 19.6721C22.021 14.3274 17.6728 9.97893 12.3278 9.97893C6.98314 9.97893 2.63491 14.3274 2.63491 19.6721C2.63491 25.0168 6.98314 29.3649 12.3278 29.3649C15.7421 29.3649 18.922 27.5463 20.6646 24.6132C21.4306 24.5519 22.1893 24.4193 22.9307 24.2172C22.3553 25.5635 21.5346 26.7761 20.4836 27.8275C15.9864 32.3247 8.66954 32.3244 4.17235 27.8275C-0.32422 23.3306 -0.32422 16.0135 4.17235 11.5166Z" fill="currentColor"/>
</svg>
