<svg width="20" height="20" viewBox="0 0 20 20" fill="none" xmlns="http://www.w3.org/2000/svg">
<path d="M2.07816 18.125H17.9219C17.9486 18.125 17.975 18.1197 17.9996 18.1095C18.0243 18.0993 18.0467 18.0843 18.0655 18.0655C18.0844 18.0466 18.0993 18.0242 18.1096 17.9995C18.1198 17.9749 18.125 17.9485 18.125 17.9218V4.61721C18.125 4.59053 18.1198 4.56411 18.1096 4.53946C18.0994 4.51481 18.0844 4.49241 18.0655 4.47355C18.0467 4.45468 18.0243 4.43971 17.9996 4.42951C17.975 4.4193 17.9486 4.41404 17.9219 4.41405H13.5964C13.1131 2.94382 11.6839 1.875 10 1.875C8.31591 1.875 6.88694 2.94382 6.40345 4.41405H2.07812C2.05144 4.41403 2.02501 4.41927 2.00036 4.42947C1.9757 4.43968 1.9533 4.45464 1.93443 4.47351C1.91557 4.49238 1.90061 4.51479 1.89041 4.53944C1.88021 4.5641 1.87497 4.59053 1.875 4.61721V17.9218C1.87499 17.9485 1.88025 17.9749 1.89046 17.9996C1.90066 18.0242 1.91563 18.0466 1.9345 18.0655C1.95336 18.0844 1.97576 18.0993 2.00041 18.1095C2.02506 18.1197 2.05148 18.125 2.07816 18.125ZM10 2.28117C11.4547 2.28117 12.6933 3.17241 13.1623 4.41405H6.83766C7.30676 3.17241 8.54534 2.28117 10 2.28117ZM2.28117 4.82022H6.29772C6.259 5.01331 6.23809 5.21218 6.23266 5.41452C5.75749 5.50735 5.39754 5.92578 5.39754 6.4276C5.39754 6.9973 5.8612 7.46095 6.43086 7.46095C7.00056 7.46095 7.4639 6.99726 7.4639 6.4276C7.4639 5.92919 7.10919 5.51219 6.63882 5.41563C6.64501 5.21199 6.66906 5.01287 6.71289 4.82022H13.2869C13.3308 5.01287 13.355 5.21199 13.3611 5.41563C12.8909 5.51219 12.5361 5.92919 12.5361 6.4276C12.5361 6.9973 12.9995 7.46095 13.5692 7.46095C14.1388 7.46095 14.6024 6.99726 14.6024 6.4276C14.6024 5.92578 14.2423 5.50739 13.7672 5.41455C13.7618 5.21214 13.7409 5.01331 13.7023 4.82026H17.7187V17.7186H2.28125L2.28117 4.82022ZM6.43086 5.80073C6.77641 5.80073 7.05769 6.08217 7.05769 6.42756C7.05769 6.77334 6.77641 7.05462 6.43086 7.05462C6.08511 7.05462 5.80383 6.77334 5.80383 6.4276C5.80383 6.08217 6.08511 5.80073 6.43086 5.80073ZM13.5692 5.80073C13.9149 5.80073 14.1962 6.08217 14.1962 6.42756C14.1962 6.77334 13.9149 7.05462 13.5692 7.05462C13.2236 7.05462 12.9423 6.77334 12.9423 6.4276C12.9423 6.08217 13.2236 5.80073 13.5692 5.80073Z" fill="currentColor"/>
<path d="M2.28117 4.82022H6.29772C6.259 5.01331 6.23809 5.21218 6.23266 5.41452C5.75749 5.50735 5.39754 5.92578 5.39754 6.4276C5.39754 6.9973 5.8612 7.46095 6.43086 7.46095C7.00056 7.46095 7.4639 6.99726 7.4639 6.4276C7.4639 5.92919 7.10919 5.51219 6.63882 5.41563C6.64501 5.21199 6.66906 5.01287 6.71289 4.82022H13.2869C13.3308 5.01287 13.355 5.21199 13.3611 5.41563C12.8909 5.51219 12.5361 5.92919 12.5361 6.4276C12.5361 6.9973 12.9995 7.46095 13.5692 7.46095C14.1388 7.46095 14.6024 6.99726 14.6024 6.4276C14.6024 5.92578 14.2423 5.50739 13.7672 5.41455C13.7618 5.21214 13.7409 5.01331 13.7023 4.82026H17.7187V17.7186H2.28125L2.28117 4.82022Z" fill="currentColor"/>
</svg>
