<svg width="32" height="32" viewBox="0 0 32 32" fill="none" xmlns="http://www.w3.org/2000/svg">
<path d="M3.32506 29H28.675C28.7177 29 28.76 28.9916 28.7994 28.9752C28.8388 28.9589 28.8747 28.9349 28.9048 28.9047C28.935 28.8746 28.959 28.8387 28.9753 28.7993C28.9916 28.7598 29 28.7176 29 28.6749V7.38754C29 7.34486 28.9916 7.30258 28.9753 7.26314C28.959 7.2237 28.935 7.18786 28.9049 7.15767C28.8747 7.12749 28.8388 7.10354 28.7994 7.08721C28.76 7.07087 28.7177 7.06247 28.675 7.06248H21.7542C20.981 4.71011 18.6943 3 16 3C13.3055 3 11.0191 4.71011 10.2455 7.06248H3.325C3.28231 7.06245 3.24002 7.07083 3.20057 7.08716C3.16112 7.10348 3.12528 7.12743 3.09509 7.15762C3.06491 7.18781 3.04097 7.22366 3.02465 7.26311C3.00834 7.30256 2.99996 7.34485 3 7.38754V28.6749C2.99999 28.7176 3.00839 28.7599 3.02473 28.7993C3.04106 28.8388 3.06501 28.8746 3.09519 28.9048C3.12538 28.935 3.16122 28.9589 3.20066 28.9752C3.2401 28.9916 3.28238 29 3.32506 29ZM16 3.64987C18.3276 3.64987 20.3093 5.07586 21.0597 7.06248H10.9403C11.6908 5.07586 13.6725 3.64987 16 3.64987ZM3.64987 7.71235H10.0763C10.0144 8.02129 9.98094 8.3395 9.97225 8.66322C9.21199 8.81176 8.63607 9.48124 8.63607 10.2842C8.63607 11.1957 9.37792 11.9375 10.2894 11.9375C11.2009 11.9375 11.9422 11.1956 11.9422 10.2842C11.9422 9.4867 11.3747 8.8195 10.6221 8.665C10.632 8.33918 10.6705 8.02059 10.7406 7.71235H21.2591C21.3293 8.02059 21.368 8.33918 21.3777 8.665C20.6254 8.8195 20.0578 9.4867 20.0578 10.2842C20.0578 11.1957 20.7992 11.9375 21.7107 11.9375C22.6221 11.9375 23.3638 11.1956 23.3638 10.2842C23.3638 9.48124 22.7878 8.81182 22.0276 8.66329C22.0189 8.33943 21.9854 8.02129 21.9236 7.71241H28.3499V28.3498H3.65L3.64987 7.71235ZM10.2894 9.28117C10.8423 9.28117 11.2923 9.73147 11.2923 10.2841C11.2923 10.8373 10.8423 11.2874 10.2894 11.2874C9.73618 11.2874 9.28613 10.8373 9.28613 10.2842C9.28613 9.73147 9.73618 9.28117 10.2894 9.28117ZM21.7107 9.28117C22.2638 9.28117 22.7139 9.73147 22.7139 10.2841C22.7139 10.8373 22.2638 11.2874 21.7107 11.2874C21.1577 11.2874 20.7077 10.8373 20.7077 10.2842C20.7077 9.73147 21.1577 9.28123 21.7106 9.28123L21.7107 9.28117Z" fill="currentColor"/>
</svg>
