<svg width="32" height="32" viewBox="0 0 32 32" fill="none" xmlns="http://www.w3.org/2000/svg">
<path fill-rule="evenodd" clip-rule="evenodd" d="M15.9993 10.0938C18.6141 10.0938 21.0728 11.1121 22.922 12.9613C24.7712 14.8104 25.7896 17.2688 25.7895 19.884C25.7895 22.4992 24.7712 24.9576 22.922 26.8068C21.0728 28.6559 18.614 29.6743 15.9993 29.6743C13.3844 29.6743 10.9256 28.6559 9.07653 26.8068C7.22741 24.9576 6.20898 22.4992 6.20898 19.884C6.20898 17.2688 7.22733 14.8104 9.07653 12.9613C10.9257 11.1122 13.3845 10.0938 15.9993 10.0938ZM15.9993 28.8743C18.4005 28.8743 20.6585 27.9395 22.3564 26.2411C24.0544 24.5427 24.9896 22.2856 24.9896 19.884C24.9896 17.4825 24.0549 15.2249 22.3564 13.5269C20.6581 11.829 18.4005 10.8937 15.9993 10.8937C13.5982 10.8937 11.3402 11.829 9.64222 13.5269C7.94428 15.2249 7.00905 17.4825 7.00905 19.884C7.00905 22.2856 7.94381 24.5432 9.64222 26.2411C11.3406 27.9391 13.5982 28.8743 15.9993 28.8743Z" fill="currentColor"/>
<path fill-rule="evenodd" clip-rule="evenodd" d="M21.1682 3.81675L16.9155 7.80748C23.1686 8.27833 28.1137 13.513 28.1138 19.8844C28.1138 26.5651 22.6786 31.9998 15.9983 31.9998C9.31798 31.9998 3.88281 26.5651 3.88281 19.8844C3.88281 13.5125 8.82791 8.2781 15.0806 7.80693L10.8279 3.8162C10.8263 3.81456 10.8255 3.81261 10.8239 3.81097C10.8178 3.8049 10.8131 3.79786 10.8084 3.79084C10.8051 3.78584 10.8017 3.78085 10.7979 3.7762C10.7759 3.74941 10.7551 3.72261 10.7411 3.69183C10.7368 3.68241 10.7341 3.67249 10.7313 3.66238C10.7298 3.65664 10.7282 3.65084 10.7263 3.64503C10.7159 3.613 10.7087 3.58144 10.7067 3.54824C10.7064 3.5447 10.7054 3.54138 10.7044 3.53805C10.7032 3.53388 10.7019 3.52968 10.7019 3.52503C10.7019 3.51927 10.7036 3.51396 10.7052 3.50862C10.7066 3.50396 10.708 3.49927 10.7084 3.49425C10.7108 3.4631 10.717 3.43235 10.7268 3.40269C10.7322 3.38403 10.7392 3.36584 10.7476 3.34832C10.7497 3.34412 10.7511 3.33969 10.7524 3.33523C10.7541 3.32989 10.7557 3.32451 10.7587 3.31949L11.0751 2.79114C12.1055 1.0696 13.9919 0 15.9983 0C18.0046 0 19.891 1.0696 20.9214 2.79161L21.2378 3.32004C21.2408 3.32503 21.2424 3.33037 21.244 3.33568C21.2454 3.34017 21.2467 3.34464 21.2489 3.34886C21.2572 3.36643 21.2642 3.38461 21.2697 3.40324C21.2794 3.43295 21.2856 3.46367 21.2881 3.4948C21.2887 3.49957 21.29 3.50404 21.2913 3.50847C21.2929 3.51405 21.2946 3.51957 21.2946 3.52558C21.2946 3.52974 21.2934 3.53371 21.2922 3.53769C21.2911 3.54133 21.29 3.54498 21.2898 3.54878C21.2878 3.58199 21.2802 3.61316 21.2702 3.64519C21.2683 3.65091 21.2668 3.65663 21.2653 3.6623C21.2625 3.67251 21.2598 3.68259 21.2554 3.69238C21.2414 3.72316 21.2206 3.74995 21.1986 3.77675C21.1944 3.78164 21.1908 3.78691 21.1872 3.79217C21.1826 3.79893 21.1781 3.80567 21.1722 3.81151L21.1704 3.814L21.1682 3.81675ZM18.0987 3.92519L16.9955 6.63515L19.8834 3.92519H18.0987ZM18.0454 3.1252H20.181C19.4118 1.89396 18.1302 1.06639 16.7094 0.856786L18.0454 3.1252ZM14.8795 3.1252H17.1174L15.9983 1.22483L14.8795 3.1252ZM13.951 3.1252L15.2867 0.856396C13.8663 1.06639 12.5843 1.89396 11.8151 3.1252H13.951ZM13.8979 3.92519H12.1127L15.0011 6.63554L13.8979 3.92519ZM17.2355 3.92519H14.7615L15.9983 6.96359L17.2355 3.92519ZM4.6828 19.8845C4.6828 26.124 9.75876 31.2 15.9983 31.2C22.2377 31.2 27.3138 26.124 27.3138 19.8845C27.3138 13.645 22.2378 8.56903 15.9983 8.56903C9.75876 8.56903 4.6828 13.645 4.6828 19.8845Z" fill="currentColor"/>
</svg>
