<svg width="32" height="32" viewBox="0 0 32 32" fill="none" xmlns="http://www.w3.org/2000/svg">
<path fill-rule="evenodd" clip-rule="evenodd" d="M13.8711 27.1341V23.2554C13.8711 22.056 14.847 21.0801 16.0464 21.0801C17.2457 21.0801 18.2216 22.056 18.2216 23.2554V27.1341C18.2216 28.3338 17.2457 29.3094 16.0464 29.3094C14.847 29.3094 13.8711 28.3338 13.8711 27.1341ZM17.4215 27.1341V23.2554C17.4215 22.497 16.8047 21.8802 16.0464 21.8802C15.2883 21.8802 14.6712 22.497 14.6712 23.2554V27.1341C14.6712 27.8925 15.2883 28.5096 16.0464 28.5096C16.8047 28.5096 17.4215 27.8925 17.4215 27.1341Z" fill="currentColor"/>
<path fill-rule="evenodd" clip-rule="evenodd" d="M4.60633 8.35474C4.895 8.20029 5.21976 8.10474 5.56913 8.10474C6.70412 8.10474 7.62756 9.02802 7.62756 10.1629C7.62756 10.3189 7.60677 10.4693 7.57381 10.6152C7.59666 10.6129 7.61925 10.6098 7.64181 10.6068C7.68767 10.6006 7.73342 10.5944 7.78107 10.5944C8.91598 10.5944 9.83918 11.5179 9.83918 12.6528C9.83918 12.781 9.82387 12.9058 9.80137 13.0276C9.92309 13.005 10.0479 12.9898 10.1764 12.9898C11.3114 12.9898 12.2348 13.9132 12.2348 15.0481C12.2348 15.3692 12.1542 15.6695 12.0227 15.9405C13.3005 16.8425 14.6458 17.6449 16.0467 18.3404C17.4476 17.6449 18.7929 16.8425 20.0707 15.9405C19.9392 15.6695 19.8589 15.3692 19.8589 15.0481C19.8589 13.9132 20.7824 12.9898 21.9174 12.9898C22.0455 12.9898 22.1703 13.0049 22.2924 13.0276C22.2695 12.9058 22.2542 12.781 22.2542 12.6528C22.2542 11.5178 23.1777 10.5944 24.3126 10.5944C24.3602 10.5944 24.4061 10.6006 24.452 10.6068C24.4744 10.6099 24.4969 10.6129 24.5195 10.6152C24.4866 10.4693 24.4658 10.3189 24.4658 10.1629C24.4658 9.02802 25.3893 8.10482 26.5242 8.10482C26.8739 8.10482 27.1983 8.20037 27.487 8.35474C30.3843 4.05821 31.2479 0.350037 31.2565 0.312537C31.305 0.0970701 31.5202 -0.0387101 31.7345 0.0101177C31.7857 0.0216148 31.8342 0.0430892 31.8771 0.0733142C31.92 0.103539 31.9565 0.141923 31.9846 0.186272C32.0127 0.230621 32.0317 0.280067 32.0407 0.331786C32.0497 0.383504 32.0483 0.436482 32.0368 0.487692C32.0011 0.647925 31.1293 4.41133 28.1087 8.86521C28.4001 9.22044 28.5826 9.66848 28.5826 10.1629C28.5826 11.2978 27.6591 12.2213 26.5242 12.2213C26.4771 12.2213 26.4316 12.2151 26.386 12.2088C26.3631 12.2057 26.3401 12.2025 26.3169 12.2002C26.3502 12.3464 26.371 12.4968 26.371 12.6528C26.371 13.7878 25.4476 14.7112 24.3126 14.7112C24.1842 14.7112 24.0594 14.6956 23.9375 14.6731C23.9602 14.7951 23.9754 14.9196 23.9754 15.0481C23.9754 16.183 23.0522 17.1065 21.9174 17.1065C21.3924 17.1065 20.9182 16.9029 20.5541 16.5785C19.5231 17.3091 18.4484 17.9761 17.336 18.5756C19.2779 19.1365 20.703 20.9266 20.703 23.0467V27.3435C20.703 29.9112 18.6144 31.9999 16.0467 31.9999C13.4792 31.9999 11.3903 29.9112 11.3903 27.3435V23.0467C11.3903 20.9266 12.8158 19.1365 14.7573 18.5756C13.645 17.9761 12.5703 17.3091 11.5392 16.5785C11.1752 16.9029 10.701 17.1065 10.1764 17.1065C9.04137 17.1065 8.11794 16.183 8.11794 15.0481C8.11794 14.9196 8.13357 14.7951 8.15607 14.673C8.03404 14.6956 7.90951 14.7112 7.78107 14.7112C6.64608 14.7112 5.72265 13.7877 5.72265 12.6528C5.72265 12.4968 5.74343 12.3464 5.7764 12.2002C5.75345 12.2025 5.7307 12.2056 5.70794 12.2088C5.66228 12.215 5.61658 12.2213 5.56913 12.2213C4.43422 12.2213 3.51079 11.2978 3.51079 10.1629C3.51079 9.66841 3.69329 9.22044 3.985 8.86529C0.964324 4.41126 0.092455 0.647847 0.0565178 0.487614C0.0333791 0.384143 0.0522682 0.275718 0.109034 0.186167C0.1658 0.0966155 0.255798 0.0332659 0.35925 0.0100395C0.573467 -0.0391007 0.788309 0.096992 0.837137 0.312459C0.845418 0.349959 1.70932 4.05806 4.60633 8.35474ZM5.56913 8.90458C4.87515 8.90458 4.31094 9.46919 4.31094 10.1629C4.31094 10.8568 4.87515 11.421 5.56913 11.421C6.26311 11.421 6.82772 10.8568 6.82772 10.1629C6.82772 9.46919 6.26311 8.90458 5.56913 8.90458ZM19.9032 27.3435V23.0467C19.9032 20.9201 18.1732 19.1902 16.0467 19.1902C13.9202 19.1902 12.1902 20.9202 12.1902 23.0467V27.3435C12.1902 29.4701 13.9203 31.2 16.0467 31.2C18.1731 31.2 19.9032 29.47 19.9032 27.3435ZM27.7824 10.1629C27.7824 9.46919 27.2182 8.90458 26.5242 8.90458C25.8302 8.90458 25.2656 9.46919 25.2656 10.1629C25.2656 10.8568 25.8302 11.421 26.5242 11.421C27.2182 11.421 27.7824 10.8568 27.7824 10.1629ZM25.5709 12.6528C25.5709 11.9588 25.0066 11.3943 24.3126 11.3943C23.6186 11.3943 23.0544 11.9588 23.0544 12.6528C23.0544 13.3467 23.6186 13.911 24.3126 13.911C25.0066 13.911 25.5709 13.3467 25.5709 12.6528ZM23.1756 15.0481C23.1756 14.3541 22.611 13.7899 21.9173 13.7899C21.2233 13.7899 20.6587 14.3541 20.6587 15.0481C20.6587 15.7417 21.2233 16.3063 21.9173 16.3063C22.611 16.3063 23.1756 15.7418 23.1756 15.0481ZM10.1764 16.3063C10.8703 16.3063 11.4346 15.7418 11.4346 15.0481C11.4346 14.3541 10.8703 13.7899 10.1764 13.7899C9.48239 13.7899 8.91809 14.3541 8.91809 15.0481C8.91809 15.7417 9.48239 16.3063 10.1764 16.3063ZM7.78107 13.911C8.47474 13.911 9.03926 13.3467 9.03926 12.6528C9.03926 11.9588 8.47474 11.3942 7.78107 11.3942C7.08709 11.3942 6.52249 11.9588 6.52249 12.6528C6.52249 13.3467 7.08709 13.911 7.78107 13.911Z" fill="currentColor"/>
</svg>
